<?xml version="1.0" encoding="UTF-8"?>
<svg width="300px" height="300px" viewBox="0 0 300 300" version="1.1" xmlns="http://www.w3.org/2000/svg" xmlns:xlink="http://www.w3.org/1999/xlink">
    <!-- Generator: Sketch 51.3 (57544) - http://www.bohemiancoding.com/sketch -->
    <title>Character/Ambassador</title>
    <desc>Created with Sketch.</desc>
    <defs></defs>
    <g id="Character/Ambassador" stroke="none" stroke-width="1" fill="none" fill-rule="evenodd">
        <g id="Page-1" transform="translate(44.000000, 41.500000)">
            <polygon id="Fill-1" fill="#D9E9E5" points="76.4209318 72.4355975 58.6209039 107.776004 8.79333893 78.6327601"></polygon>
            <polygon id="Fill-2" fill="#E0EFEC" points="64.8903303 111.894412 104.360093 125.439951 144.048838 115.369953 106.0963 222.567415"></polygon>
            <polygon id="Fill-3" fill="#D9E9E5" points="132.495712 71.5918949 150.29574 107.776943 200.123305 78.6336986"></polygon>
            <polygon id="Fill-4" fill="#A6C8C2" points="105.231325 221.445293 62.4393071 109.958932 5.39162533 77.3776861"></polygon>
            <polygon id="Fill-5" fill="#A6C8C2" points="105.005462 221.445293 147.79748 109.958932 204.845161 77.3776861"></polygon>
            <polygon id="Fill-6" fill="#D2EAEB" points="103.777604 8.89700572 49.2263057 16.539443 74.9002651 68.9197009"></polygon>
            <polygon id="Fill-7" fill="#D2EAEB" points="106.495471 8.89700572 161.046769 16.539443 135.37281 68.9197009"></polygon>
            <polygon id="Fill-8" fill="#ADD0C7" points="44.3624246 16.5391302 80.6381933 72.4355975 4.57670314 75.4043544"></polygon>
            <polygon id="Fill-9" fill="#ADD0C7" points="166.364567 16.5391302 134.305747 71.5909565 206.150288 75.4043544"></polygon>
            <path d="M84.2785962,78.9962686 L68.5526313,112.681805 L55.8830156,107.848581 L105.422777,0.46029301 L153.489109,107.276102 L142.055172,114.505604 L127.020561,79.1839666 L84.2785962,78.9962686 Z M105.422777,30.7078273 L90.0158987,65.7760721 L121.029867,66.2296756 L105.422777,30.7078273 Z" id="Fill-10" fill="#020203"></path>
            <polygon id="Fill-11" fill="#020203" points="39.4475522 8.89638006 -0.000312830016 77.3779989 9.88511568 77.3779989 49.2297468 8.89638006"></polygon>
            <polygon id="Fill-12" fill="#020203" points="162.128848 8.89638006 201.47348 77.3779989 211.35578 77.3779989 171.907915 8.89638006"></polygon>
            <polygon id="Fill-13" fill="#020203" points="0 77.3770604 99.8960091 221.037989 109.675075 221.037989 9.88542851 77.3770604"></polygon>
            <polygon id="Fill-14" fill="#020203" points="201.472228 77.3770604 101.679453 221.037989 111.458519 221.037989 211.354528 77.3770604"></polygon>
            <polyline id="Stroke-15" stroke="#1D1D1B" stroke-width="7.56200027" points="37.8421908 14.1507972 105.493394 4.13498303 171.730771 14.1507972"></polyline>
            <polygon id="Fill-17" fill="#020203" points="105.701196 229.443419 115.123636 215.76649 105.231951 217.649727 93.5978024 211.97499"></polygon>
            <path d="M5.39287665,77.3783118 L62.4405584,109.95643 L106.371278,219.709713 M105.423403,219.709713 L145.115275,112.487224 L206.15154,77.3783118 M62.4405584,109.95643 L104.359781,125.845066 L145.115275,112.487224 M9.88511568,77.3783118 L79.1175266,72.3167221 M131.1568,73.139465 L206.15154,77.3783118 M133.831496,70.6149268 L164.9268,13.3607772 M79.1175266,69.7702858 L44.6467871,13.3607772" id="Stroke-18" stroke="#1D1D1B" stroke-width="2.489"></path>
        </g>
    </g>
</svg>