<?xml version="1.0" encoding="utf-8"?>
<!-- Generator: Adobe Illustrator 21.1.0, SVG Export Plug-In . SVG Version: 6.00 Build 0)  -->
<svg version="1.1" id="Layer_1" xmlns="http://www.w3.org/2000/svg" xmlns:xlink="http://www.w3.org/1999/xlink" x="0px" y="0px"
	 viewBox="0 0 985.8 5.4" style="enable-background:new 0 0 985.8 5.4;" xml:space="preserve">
<style type="text/css">
	.st0{fill:#E84F35;}
	.st1{fill:#9CD6F0;}
</style>
<polygon id="Fill-1" class="st0" points="20.3,0 20.3,5.4 20.8,5.4 20.8,0 "/>
<polygon id="Fill-2" class="st0" points="30.5,0 30.5,5.4 31,5.4 31,0 "/>
<polygon id="Fill-3" class="st0" points="50.8,0 50.8,5.4 51.3,5.4 51.3,0 "/>
<polygon id="Fill-4" class="st0" points="60.9,0 60.9,5.4 61.4,5.4 61.4,0 "/>
<polygon id="Fill-5" class="st0" points="71.1,0 71.1,5.4 71.6,5.4 71.6,0 "/>
<polygon id="Fill-6" class="st0" points="81.2,0 81.2,5.4 81.7,5.4 81.7,0 "/>
<polygon id="Fill-7" class="st0" points="91.4,0 91.4,5.4 91.9,5.4 91.9,0 "/>
<polygon id="Fill-8" class="st0" points="101.5,0 101.5,5.4 102,5.4 102,0 "/>
<polygon id="Fill-9" class="st0" points="121.8,0 121.8,5.4 122.3,5.4 122.3,0 "/>
<polygon id="Fill-10" class="st0" points="131.9,0 131.9,5.4 132.4,5.4 132.4,0 "/>
<polygon id="Fill-11" class="st0" points="152.2,0 152.2,5.4 152.7,5.4 152.7,0 "/>
<polygon id="Fill-12" class="st0" points="162.4,0 162.4,5.4 162.9,5.4 162.9,0 "/>
<polygon id="Fill-13" class="st0" points="172.5,0 172.5,5.4 173,5.4 173,0 "/>
<polygon id="Fill-14" class="st0" points="192.8,0 192.8,5.4 193.3,5.4 193.3,0 "/>
<polygon id="Fill-15" class="st0" points="203,0 203,5.4 203.5,5.4 203.5,0 "/>
<polygon id="Fill-16" class="st0" points="213.1,0 213.1,5.4 213.6,5.4 213.6,0 "/>
<polygon id="Fill-17" class="st0" points="223.3,0 223.3,5.4 223.8,5.4 223.8,0 "/>
<polygon id="Fill-18" class="st0" points="233.4,0 233.4,5.4 233.9,5.4 233.9,0 "/>
<polygon id="Fill-19" class="st0" points="253.7,0 253.7,5.4 254.2,5.4 254.2,0 "/>
<polygon id="Fill-20" class="st0" points="263.8,0 263.8,5.4 264.4,5.4 264.4,0 "/>
<polygon id="Fill-21" class="st0" points="273.9,0 273.9,5.4 274.5,5.4 274.5,0 "/>
<polygon id="Fill-22" class="st0" points="294.2,0 294.2,5.4 294.9,5.4 294.9,0 "/>
<polygon id="Fill-23" class="st0" points="304.3,0 304.3,5.4 305.1,5.4 305.1,0 "/>
<polygon id="Fill-24" class="st0" points="314.5,0 314.5,5.4 315.2,5.4 315.2,0 "/>
<polygon id="Fill-25" class="st0" points="324.6,0 324.6,5.4 325.3,5.4 325.3,0 "/>
<polygon id="Fill-26" class="st0" points="334.8,0 334.8,5.4 335.5,5.4 335.5,0 "/>
<polygon id="Fill-27" class="st0" points="344.9,0 344.9,5.4 345.6,5.4 345.6,0 "/>
<polygon id="Fill-28" class="st0" points="355,0 355,5.4 355.8,5.4 355.8,0 "/>
<polygon id="Fill-29" class="st0" points="375.3,0 375.3,5.4 376.1,5.4 376.1,0 "/>
<polygon id="Fill-30" class="st0" points="395.6,0 395.6,5.4 396.4,5.4 396.4,0 "/>
<polygon id="Fill-31" class="st0" points="405.7,0 405.7,5.4 406.6,5.4 406.6,0 "/>
<polygon id="Fill-32" class="st0" points="415.9,0 415.9,5.4 416.7,5.4 416.7,0 "/>
<polygon id="Fill-33" class="st0" points="426,0 426,5.4 426.8,5.4 426.8,0 "/>
<polygon id="Fill-34" class="st0" points="446.3,0 446.3,5.4 447.2,5.4 447.2,0 "/>
<polygon id="Fill-35" class="st0" points="456.4,0 456.4,5.4 457.3,5.4 457.3,0 "/>
<polygon id="Fill-36" class="st0" points="466.5,0 466.5,5.4 467.5,5.4 467.5,0 "/>
<polygon id="Fill-37" class="st0" points="476.7,0 476.7,5.4 477.6,5.4 477.6,0 "/>
<polygon id="Fill-38" class="st0" points="486.9,0 486.9,5.4 487.8,5.4 487.8,0 "/>
<polygon id="Fill-34_1_" class="st0" points="436.1,0 436.1,5.4 437,5.4 437,0 "/>
<polygon id="Fill-30_1_" class="st0" points="385.4,0 385.4,5.4 386.2,5.4 386.2,0 "/>
<polygon id="Fill-19_1_" class="st0" points="243.6,0 243.6,5.4 244.1,5.4 244.1,0 "/>
<polygon id="Fill-14_1_" class="st0" points="182.7,0 182.7,5.4 183.2,5.4 183.2,0 "/>
<polygon id="Fill-9_1_" class="st0" points="111.7,0 111.7,5.4 112.2,5.4 112.2,0 "/>
<polygon id="Fill-22_1_" class="st0" points="284.1,0 284.1,5.4 284.7,5.4 284.7,0 "/>
<polygon id="Fill-29_1_" class="st0" points="365.2,0 365.2,5.4 366,5.4 366,0 "/>
<polygon id="Fill-11_1_" class="st0" points="142.1,0 142.1,5.4 142.6,5.4 142.6,0 "/>
<polygon id="Fill-3_1_" class="st0" points="40.6,0 40.6,5.4 41.1,5.4 41.1,0 "/>
<polygon id="Fill-1_1_" class="st0" points="0,0 0,5.4 0.6,5.4 0.6,0 "/>
<polygon id="Fill-2_1_" class="st0" points="10.2,0 10.2,5.4 10.7,5.4 10.7,0 "/>
<polygon id="Fill-39" class="st1" points="496.9,0 496.9,5.4 497.9,5.4 497.9,0 "/>
<polygon id="Fill-40" class="st1" points="507.5,0 507.5,5.4 508.5,5.4 508.5,0 "/>
<polygon id="Fill-41" class="st1" points="518.1,0 518.1,5.4 519.1,5.4 519.1,0 "/>
<polygon id="Fill-41_1_" class="st1" points="528.6,0 528.6,5.4 529.7,5.4 529.7,0 "/>
<polygon id="Fill-42" class="st1" points="539.2,0 539.2,5.4 540.3,5.4 540.3,0 "/>
<polygon id="Fill-43" class="st1" points="549.8,0 549.8,5.4 550.9,5.4 550.9,0 "/>
<polygon id="Fill-44" class="st1" points="560.4,0 560.4,5.4 561.5,5.4 561.5,0 "/>
<polygon id="Fill-45" class="st1" points="571,0 571,5.4 572.1,5.4 572.1,0 "/>
<polygon id="Fill-46" class="st1" points="581.6,0 581.6,5.4 582.8,5.4 582.8,0 "/>
<polygon id="Fill-47" class="st1" points="592.2,0 592.2,5.4 593.4,5.4 593.4,0 "/>
<polygon id="Fill-48" class="st1" points="602.8,0 602.8,5.4 604,5.4 604,0 "/>
<polygon id="Fill-49" class="st1" points="613.3,0 613.3,5.4 614.5,5.4 614.5,0 "/>
<polygon id="Fill-50" class="st1" points="623.9,0 623.9,5.4 625.1,5.4 625.1,0 "/>
<polygon id="Fill-51" class="st1" points="634.5,0 634.5,5.4 635.7,5.4 635.7,0 "/>
<polygon id="Fill-52" class="st1" points="645.1,0 645.1,5.4 646.4,5.4 646.4,0 "/>
<polygon id="Fill-53" class="st1" points="655.7,0 655.7,5.4 657,5.4 657,0 "/>
<polygon id="Fill-54" class="st1" points="666.2,0 666.2,5.4 667.6,5.4 667.6,0 "/>
<polygon id="Fill-55" class="st1" points="676.9,0 676.9,5.4 678.2,5.4 678.2,0 "/>
<polygon id="Fill-56" class="st1" points="687.5,0 687.5,5.4 688.8,5.4 688.8,0 "/>
<polygon id="Fill-57" class="st1" points="698,0 698,5.4 699.4,5.4 699.4,0 "/>
<polygon id="Fill-58" class="st1" points="708.6,0 708.6,5.4 710,5.4 710,0 "/>
<polygon id="Fill-59" class="st1" points="719.2,0 719.2,5.4 720.7,5.4 720.7,0 "/>
<polygon id="Fill-60" class="st1" points="729.8,0 729.8,5.4 731.3,5.4 731.3,0 "/>
<polygon id="Fill-61" class="st1" points="740.3,0 740.3,5.4 741.8,5.4 741.8,0 "/>
<polygon id="Fill-62" class="st1" points="750.9,0 750.9,5.4 752.4,5.4 752.4,0 "/>
<polygon id="Fill-63" class="st1" points="761.5,0 761.5,5.4 763,5.4 763,0 "/>
<polygon id="Fill-64" class="st1" points="772.1,0 772.1,5.4 773.7,5.4 773.7,0 "/>
<polygon id="Fill-65" class="st1" points="782.7,0 782.7,5.4 784.3,5.4 784.3,0 "/>
<polygon id="Fill-66" class="st1" points="793.3,0 793.3,5.4 794.9,5.4 794.9,0 "/>
<polygon id="Fill-67" class="st1" points="803.9,0 803.9,5.4 805.5,5.4 805.5,0 "/>
<polygon id="Fill-68" class="st1" points="814.5,0 814.5,5.4 816.1,5.4 816.1,0 "/>
<polygon id="Fill-69" class="st1" points="825,0 825,5.4 826.7,5.4 826.7,0 "/>
<polygon id="Fill-70" class="st1" points="835.6,0 835.6,5.4 837.3,5.4 837.3,0 "/>
<polygon id="Fill-71" class="st1" points="846.2,0 846.2,5.4 847.9,5.4 847.9,0 "/>
<polygon id="Fill-72" class="st1" points="856.8,0 856.8,5.4 858.5,5.4 858.5,0 "/>
<polygon id="Fill-73" class="st1" points="867.3,0 867.3,5.4 869.1,5.4 869.1,0 "/>
<polygon id="Fill-74" class="st1" points="877.9,0 877.9,5.4 879.7,5.4 879.7,0 "/>
<polygon id="Fill-75" class="st1" points="888.5,0 888.5,5.4 890.3,5.4 890.3,0 "/>
<polygon id="Fill-76" class="st1" points="899.1,0 899.1,5.4 900.9,5.4 900.9,0 "/>
<polygon id="Fill-77" class="st1" points="909.7,0 909.7,5.4 911.5,5.4 911.5,0 "/>
<polygon id="Fill-78" class="st1" points="920.3,0 920.3,5.4 922.2,5.4 922.2,0 "/>
<polygon id="Fill-79" class="st1" points="930.9,0 930.9,5.4 932.8,5.4 932.8,0 "/>
<polygon id="Fill-80" class="st1" points="941.5,0 941.5,5.4 943.4,5.4 943.4,0 "/>
<polygon id="Fill-81" class="st1" points="952,0 952,5.4 954,5.4 954,0 "/>
<polygon id="Fill-82" class="st1" points="962.6,0 962.6,5.4 964.6,5.4 964.6,0 "/>
<polygon id="Fill-81_1_" class="st1" points="973.2,0 973.2,5.4 975.2,5.4 975.2,0 "/>
<polygon id="Fill-82_1_" class="st1" points="983.8,0 983.8,5.4 985.8,5.4 985.8,0 "/>
</svg>
