<?xml version="1.0" encoding="UTF-8"?>
<svg width="26px" height="22px" viewBox="0 0 26 22" version="1.1" xmlns="http://www.w3.org/2000/svg" xmlns:xlink="http://www.w3.org/1999/xlink">
    <!-- Generator: Sketch 51.3 (57544) - http://www.bohemiancoding.com/sketch -->
    <title>Icon/plus_with_silhouette</title>
    <desc>Created with Sketch.</desc>
    <defs></defs>
    <g id="Symbols" stroke="none" stroke-width="1" fill="none" fill-rule="evenodd">
        <g id="Dropdown/Orgs-Listing" transform="translate(-256.000000, -3.000000)">
            <g id="Icon/plus_with_silhouette" transform="translate(256.000000, 0.000000)">
                <g id="Icon/Person-Male-2-Blk" transform="translate(2.000000, 0.000000)" fill="#1C1C1C">
                    <path d="M23.9997025,23.9685192 C24.0097919,22.9242189 23.7696661,21.3385391 22.2885545,20.9539526 C20.0325833,20.3672116 18.1600061,19.4718153 18.1600061,19.4718153 C17.7907371,18.9501582 17.7241476,17.8595103 17.7241476,17.8595103 C18.4303998,17.0814622 18.7431686,16.1081625 18.8753386,15.2847529 C18.9217495,15.3202532 18.9752229,15.34392 19.0347498,15.3419478 C19.2466255,15.3380033 19.5311442,15.0204729 19.8378594,13.8164213 C20.2232713,12.3007559 19.8610649,12.0019618 19.5109656,12.0049202 C19.43126,12.0059063 19.4181439,12.003934 19.3475187,12.0256287 L19.3465097,11.9930867 C19.3465097,11.9930867 20.3836915,8.45193241 17.8886035,6.89485007 C17.8886035,6.89485007 18.3264798,6.53097206 18.2931851,6.00734272 C18.2931851,6.00734272 17.1490566,6.14046882 16.0523479,6.14244106 C15.5539356,6.1444133 15.0656127,6.11778808 14.6993705,6.03988466 C14.5530754,6.00931496 14.4047625,5.99748153 14.2574584,6.00043989 C13.2283481,6.02805123 12.241613,6.84850246 12.0680767,7.64035624 C12.0680767,7.64035624 12.0529428,7.63937012 12.0246927,7.63937012 C11.6998167,7.63838401 9.6547122,7.79813533 10.6364027,12.0068924 C10.6364027,12.0068924 10.6374116,12.0128091 10.6384206,12.0226703 C10.5910008,12.011823 10.5415631,12.0059063 10.4911165,12.0049202 C10.1400083,11.9999896 9.77477507,12.2968115 10.1611959,13.8164213 C10.4709379,15.0303341 10.7564656,15.3429339 10.9693502,15.3419478 C11.0399754,15.3419478 11.1025291,15.3064475 11.1549936,15.2591138 C11.2851458,16.0884401 11.5979146,17.0755455 12.3132471,17.8614826 L12.2749077,17.8595103 C12.2749077,17.8595103 12.2163897,18.8259072 11.901603,19.3741895 C11.887478,19.3810924 9.95840063,20.3691839 7.71050089,20.9539526 C6.22636242,21.3395252 5.98926348,22.9321079 6.00036173,23.9764082 C5.99935279,24.1134788 6.00338852,24.2436465 6.00944211,24.3609947 L6.00742425,24.3600086 C6.00742425,24.3600086 6.00641532,24.4103007 6.00742425,24.4951069 C6.00641532,24.5730104 6.00742425,24.7633314 6.0154957,25 L23.9764971,24.9881666 C23.9845686,24.7593869 23.9845686,24.5739965 23.9845686,24.4970792 L23.9845686,24.4497454 C23.9946579,24.3077443 24.0007115,24.1450346 23.9997025,23.9685192" id="Fill-1"></path>
                </g>
                <g id="Icon/Plus" transform="translate(0.000000, 3.000000)">
                    <g>
                        <path d="M8.4108,15.8213 C12.7798,15.8213 16.3218,12.2793 16.3218,7.9103 C16.3218,3.5413 12.7798,0.0003 8.4108,0.0003 C4.0418,0.0003 0.4998,3.5413 0.4998,7.9103 C0.4998,12.2793 4.0418,15.8213 8.4108,15.8213" id="Fill-3" fill="#48B9B9"></path>
                        <polygon id="Fill-7" fill="#FEFEFE" points="12.9785 8.6416 12.9785 6.9226 9.3175 6.9226 9.3175 3.1646 7.5035 3.1646 7.5035 6.9226 3.8435 6.9226 3.8435 8.6416 7.5035 8.6416 7.5035 12.6566 9.3175 12.6566 9.3175 8.6416"></polygon>
                    </g>
                </g>
            </g>
        </g>
    </g>
</svg>