<?xml version="1.0" encoding="UTF-8"?>
<svg width="300px" height="300px" viewBox="0 0 300 300" version="1.1" xmlns="http://www.w3.org/2000/svg" xmlns:xlink="http://www.w3.org/1999/xlink">
    <!-- Generator: Sketch 51.3 (57544) - http://www.bohemiancoding.com/sketch -->
    <title>Character/Pirate</title>
    <desc>Created with Sketch.</desc>
    <defs>
        <polygon id="path-1" points="0.503515359 208.503686 169.494335 208.503686 169.494335 0.703853891 0.503515359 0.703853891"></polygon>
    </defs>
    <g id="Character/Pirate" stroke="none" stroke-width="1" fill="none" fill-rule="evenodd">
        <g id="Page-1" transform="translate(18.500000, 45.000000)">
            <path d="M81.9751482,49.8106216 C85.0368923,47.9295327 86.0583581,42.0448286 81.4551292,43.8357101 C78.6321693,44.9341175 78.3907319,50.4712579 81.9751482,49.8106216" id="Fill-1" fill="#1D1D1B"></path>
            <path d="M73.1878894,46.9786409 C70.0332848,48.0584761 71.0945479,53.2241744 74.6816173,52.3221008 C78.2978714,51.4147208 76.8996572,45.9359499 73.1878894,46.9786409" id="Fill-3" fill="#1D1D1B"></path>
            <path d="M81.6522589,55.7865943 C80.2991484,48.7106223 75.7224511,53.1175175 77.5106795,55.9617027 C78.0386579,56.8027537 80.37609,55.4337243 81.6522589,55.7865943" id="Fill-5" fill="#1D1D1B"></path>
            <path d="M96.8243419,23.8070217 L96.0151288,22.2124738 C112.52573,17.5323034 146.38533,16.3967518 147.818035,16.348995 L147.916202,18.0549755 C147.568639,18.0655881 112.990033,19.2223649 96.8243419,23.8070217" id="Fill-7" fill="#858484"></path>
            <path d="M121.966196,92.3264146 L122.719693,90.6628846 C122.942558,90.7610515 145.125611,100.442424 157.428304,101.092448 L157.173601,102.872717 C144.605592,102.206774 122.884189,92.7296946 121.966196,92.3264146" id="Fill-9" fill="#858484"></path>
            <path d="M13.0726393,34.6210277 C17.2168718,35.0455329 20.6765896,33.214854 24.7465337,34.727154 C24.9614395,34.8067487 31.4112662,38.5185165 31.3210588,37.3935776 C31.3873878,38.2213629 29.8803941,38.9191434 29.474461,39.433856 C31.5969873,41.2990259 38.670306,37.2847981 41.342036,37.5288887 C44.486028,37.8180829 46.8791764,39.7071312 50.4556331,38.8581207 C54.5680278,37.8844118 53.4192104,34.0532519 57.2344514,32.1695098 C60.1210871,30.7447641 62.2595323,30.0682088 64.7057438,27.7122047 C65.4433217,27.0038115 66.5151975,26.8552347 67.2580817,26.1415352 C68.1070922,25.3243626 67.3111448,24.3533069 68.2875069,23.6343011 C71.21394,21.4719775 74.9522394,20.8193006 78.2421551,19.9968217 C79.1468819,19.7713033 80.4681545,18.8214728 81.3224714,18.808207 C84.2648234,18.757797 85.7983486,20.943999 88.6213085,20.893589 C88.7353943,20.1878491 84.2011476,19.5617038 84.225026,17.9618496 C84.2595171,15.5899265 110.998042,15.6058455 114.232241,15.8207513 C120.010819,16.202806 125.619595,16.505266 127.344147,23.3742916 C128.798078,29.163482 127.232714,39.1791528 126.954133,45.2150869 C126.802903,48.49439 125.126107,51.8426752 125.585103,55.0397304 C125.898176,57.2073603 127.487418,59.9852165 127.85886,62.6065365 C129.005024,70.7278526 129.755868,78.668754 131.605119,86.6308807 C133.1015,93.0621352 138.041679,100.949973 130.042409,101.103857 C124.364651,101.212636 120.467162,95.6542704 115.993938,92.5553821 C115.991285,93.0674416 116.078839,93.5635821 116.256601,94.0438036 C115.248401,96.1424515 101.314016,93.8421636 98.9553583,93.3911268 C94.5484631,92.5500758 89.6984906,91.3667674 85.2438386,92.6190579 C85.2411855,92.6508958 86.578377,93.7041994 86.2202007,93.8607358 C85.0501581,94.3727952 82.1767882,95.6728426 80.9669482,96.3891952 C76.374332,99.1113351 72.2964284,103.069847 67.7834069,105.972401 C65.4857722,107.452863 61.7448197,110.350112 59.2057477,110.915234 C53.6341162,112.156912 51.7079236,109.591309 56.6029998,105.69382 C56.7515767,106.118325 45.8524043,113.642681 43.7723285,113.995551 C41.4004054,114.396177 27.3094842,111.02932 26.8213032,108.431879 C27.0786595,107.025705 27.8666473,106.211185 29.1826136,105.983014 C24.6536732,103.369653 14.2373756,111.923434 11.0615456,106.346497 C10.8439867,105.961789 35.2185477,98.4268204 36.2240945,96.0734694 C31.9021004,94.1711552 28.8111715,98.7531588 25.2930842,97.6945488 C23.7967032,97.243512 21.1727301,93.1603021 20.0584038,91.9690342 C19.4481775,91.3137042 16.6782808,91.3747269 15.9778471,91.1385958 C17.8562828,86.9572191 23.1519859,84.1554844 26.0200495,81.1441503 C28.4503421,78.5971187 32.7060072,78.719164 34.4093346,75.6308883 C27.4872458,77.5119772 28.6413694,75.1984236 25.76004,70.0937479 C24.1310011,67.2124185 21.0984417,65.8274701 19.2518439,63.2883981 C17.6095392,61.0279076 18.4346713,59.8286802 15.9221308,57.958204 C13.6298024,56.2522235 23.5897569,56.5387645 23.8020095,56.5679493 C25.4496206,56.7961208 27.0998847,56.9924545 28.7474957,57.2047071 C32.3637499,57.6690098 38.3625397,60.9032092 41.594086,59.993176 C38.6411213,57.9104471 34.5870961,56.597134 31.3847346,54.9176851 C27.0494747,52.6439288 25.3328816,54.479914 20.7296528,54.0235709 C15.4843597,53.5062051 2.88186004,41.2114717 11.0270546,39.4497749 C11.0774646,38.8183234 0.170332733,39.2799728 0.00583694723,37.0433608 C-0.293969888,32.9919888 12.1679125,34.5281671 13.0726393,34.6210277 M83.6254123,40.1104112 C84.2435981,38.0807455 81.1579756,39.065067 80.4097851,37.1866313 C81.3516561,37.332555 87.0400265,40.6728807 86.6393996,41.0575886 C89.8709459,37.9666597 78.8656472,33.9497787 77.3347751,34.0797835 C74.2916031,34.3397929 71.5349721,35.6822908 69.7945006,38.8926118 C67.7993259,42.5725417 68.4811874,50.6487541 70.4896279,54.3021525 C71.0680163,55.352803 76.7882246,61.9512065 76.9235357,61.8795712 C77.0853783,61.4073091 77.2445678,60.9323939 77.3984509,60.4548255 C76.9925178,61.0093355 80.8263308,60.6060555 81.4312508,60.3009423 C83.8668497,59.0645708 83.6492908,57.8653434 85.0528113,54.4825672 C86.8277739,50.2083299 88.3666054,49.8607663 86.3714307,44.6977211 C86.5147012,45.0691632 84.0525708,38.7095439 83.6254123,40.1104112 M101.014209,83.0995276 C101.210542,83.0119734 103.351641,74.7579994 102.866113,74.1849173 C101.144214,72.1552515 99.4939493,75.4770051 97.6977615,75.8511004 C95.1454237,76.381732 90.3723927,74.3414536 87.6157617,73.7073489 C81.9406571,72.4019952 73.3019752,71.62462 68.4466964,67.9022395 C66.0164038,66.0397227 64.9153433,60.4309471 61.8323739,63.1716591 C62.3576992,62.7047033 60.7658045,69.170449 60.6968224,68.6557363 C61.4158281,74.0575657 61.665225,70.4068205 65.2231096,70.7968347 C69.7467437,71.2929752 73.9519989,72.818541 78.3588941,74.1185883 C83.065596,75.5061899 90.6987311,75.6123162 94.9252116,78.1566945 C97.1963147,79.525724 98.6926957,84.1342591 101.014209,83.0995276 M84.3470713,71.1337858 C87.7669917,68.4514432 91.133849,65.270307 94.9597026,64.2727196 C95.95729,64.0127101 100.228874,66.3819801 99.8017157,62.2828512 C99.5947693,60.2876765 96.8885484,60.3884965 96.243831,59.1070213 C95.0923605,56.8120398 97.841032,51.2536741 93.4500558,56.4697824 C92.2694006,57.8733029 92.0544948,60.7917765 90.141568,62.7630728 C87.3504459,65.641749 84.0578771,67.8544827 81.1738945,70.6084605 C82.1635224,71.4601242 83.2194792,71.6352326 84.3470713,71.1337858 M74.9097889,76.0315151 C73.0366594,77.5464682 70.3410511,80.8947534 68.1097453,81.6137592 C66.8415359,82.0196923 64.1565402,80.8310776 63.363246,81.2688487 C61.2911297,82.4123597 61.5086887,82.0356113 61.7050223,84.4659039 C61.5272608,82.2611297 65.4247496,89.0107632 64.4271623,88.1590996 C65.1567807,88.7825917 64.2626665,90.9581811 66.5974454,90.5442885 C69.3965269,90.0454948 67.1041985,87.6974501 68.0328038,85.7500323 C70.2136995,81.1839476 76.4990304,79.9024724 79.2291298,75.7847714 C77.8574472,74.7235083 76.2204488,74.970252 74.9097889,76.0315151 M73.5195342,58.7541513 C76.0957504,70.7066274 88.0933301,66.5677011 85.8407991,54.9601356 C83.6254123,55.957723 83.720926,62.7418475 80.3169245,63.4661596 C77.5417214,64.0551607 73.6203542,59.2104945 73.5195342,58.7541513 M34.4517851,81.5155924 C32.7802957,81.1521097 31.3794283,81.8339713 30.2226515,83.3860686 C31.4192257,83.6858755 36.5796177,81.979895 34.4517851,81.5155924 M29.1268973,86.1586186 C27.8215437,86.0365733 25.9059637,88.2811448 24.5873443,89.0717859 C25.9935179,90.0640669 29.6734478,87.9627659 30.4375573,86.4663849 C30.0024394,86.3629117 29.5646684,86.2620917 29.1268973,86.1586186 M39.2540008,91.3986053 C37.7655792,91.67984 41.9628749,93.2717347 43.6370175,92.2370032 C43.3902738,91.22615 39.543195,91.3455421 39.2540008,91.3986053 M125.171211,93.5211316 C124.470777,93.1231579 123.815447,93.1311173 123.210527,93.5476631 C122.735612,95.2297652 126.670245,96.402461 126.471258,95.2164994 C126.038793,94.6513768 125.603676,94.0862542 125.171211,93.5211316 M70.8955611,29.0334773 C72.3123474,29.1183783 73.5540252,28.6912199 74.6152884,27.7546552 C73.2223805,26.2025579 71.2192463,27.9164978 69.8900143,28.8238778 C69.8926674,29.3836941 70.2269653,29.4526762 70.8955611,29.0334773 M39.9597407,55.1219782 C40.9334497,54.4268509 38.4129497,53.4186509 37.3463803,54.6444098 C38.1370213,55.5013798 39.0072571,55.6632224 39.9597407,55.1219782" id="Fill-11" fill="#1D1D1B"></path>
            <g id="Group-15" transform="translate(92.860524, 0.853256)">
                <mask id="mask-2" fill="white">
                    <use xlink:href="#path-1"></use>
                </mask>
                <g id="Clip-14"></g>
                <path d="M58.5989705,9.78826631 C61.9419493,9.85990157 65.0010403,9.89439262 67.7895092,9.89439262 L74.5762869,9.89439262 C76.3141053,9.89439262 77.115359,9.75642841 76.9773948,9.47519368 C77.5319048,9.47519368 78.8903216,9.02415685 81.049992,8.11943003 C83.2070094,7.21470321 85.9211898,6.20385008 89.1951866,5.08952379 C92.463877,3.97785066 96.2234017,2.96699752 100.471107,2.0622707 C104.718813,1.15754388 109.138974,0.703853891 113.734243,0.703853891 C131.136306,0.703853891 144.781496,4.35990538 154.667162,11.6667021 C164.552828,18.978805 169.495662,29.0395795 169.495662,41.8463724 C169.495662,52.7057474 167.335991,62.4163051 163.021956,70.9780454 C158.705269,79.5424389 153.030164,86.8518887 145.999296,92.909048 C138.968428,98.9662074 131.030179,103.593315 122.192511,106.795676 C113.349535,110.000691 104.403087,111.600545 95.3558191,111.600545 C92.5700033,111.600545 89.5400971,111.462581 86.2714067,111.181346 C82.9974099,110.905418 80.5963021,110.417237 79.06543,109.719456 L79.06543,123.295665 C79.06543,128.864643 79.1344121,134.436274 79.2750295,140.0026 C79.4129937,145.574231 79.6915752,150.620537 80.1107742,155.144171 C80.5273199,159.665152 81.0818299,162.626076 81.7822636,164.018984 C82.1988094,164.992693 83.066392,165.584347 84.3903178,165.7966 C85.7142435,166.003546 87.2106245,166.072528 88.882114,166.003546 C90.5536034,165.931911 92.2542776,165.7966 93.9974023,165.584347 C95.7378738,165.377401 97.2342548,165.273928 98.4891985,165.273928 C98.9057443,165.409239 99.1843258,165.722312 99.3249432,166.213146 C99.4602542,166.698674 99.5318895,167.255837 99.5318895,167.881982 C99.5318895,168.508127 99.4602542,169.062637 99.3249432,169.556125 C99.1843258,170.038999 98.9057443,170.285743 98.4891985,170.285743 C95.841347,170.285743 92.8140939,170.598816 89.4047861,171.224961 C85.9901719,171.851106 82.3712646,172.686851 78.5427579,173.732195 C74.711598,174.774886 70.8857444,175.992686 67.0572376,177.385593 C63.2260777,178.775848 59.5726794,180.237738 56.0917363,181.771263 C52.7514106,183.161518 48.5753402,185.35568 43.5608719,188.351095 C38.5490567,191.343857 33.5372416,194.333966 28.5254264,197.332034 C23.5136113,200.322143 18.9183419,202.93285 14.7422715,205.161503 C10.5662011,207.387502 7.64242114,208.504482 5.9709317,208.504482 C5.27580435,208.504482 4.47720384,208.223247 3.56982386,207.668737 C2.66509704,207.111574 1.89833443,206.482775 1.27218918,205.787648 C0.646043932,205.089868 0.404606569,204.431884 0.539917619,203.805739 C0.680534984,203.179594 1.4472976,202.725904 2.8375523,202.447322 C6.31849538,201.890159 10.4282369,200.494598 15.1588173,198.271252 C19.894704,196.042599 24.4899734,193.604347 28.9419722,190.961802 C33.3966242,188.313951 37.3286041,185.772225 40.7432183,183.33928 C44.1525261,180.901028 46.3440344,179.195047 47.3203965,178.221338 C48.0155239,177.523558 48.7477954,174.424669 49.514558,168.927326 C50.2786675,163.424677 51.0082859,156.746679 51.7060664,148.877413 C52.4011938,141.013453 52.992848,132.451712 53.481029,123.192192 C53.96921,113.932671 54.2133006,105.195822 54.2133006,96.9816453 C54.2133006,79.9961289 54.0726832,66.1439918 53.7967548,55.4199279 C53.5155201,44.7011702 53.0989743,36.3118852 52.5418111,30.2547258 C51.984648,24.2002197 52.0642427,20.2815055 51.8360711,17.8299877 L51.6423906,9.91827104 L58.5989705,9.78826631 Z M79.06543,96.5624464 C79.7605573,98.5151705 82.1988094,100.356462 86.3748798,102.096934 C90.5536034,103.840058 95.9819643,104.707641 102.665269,104.707641 C108.788757,104.707641 114.392227,103.558824 119.475677,101.263842 C124.556474,98.9662074 128.942144,95.5197553 132.632687,90.924486 C136.320576,86.3292166 139.175374,80.6567652 141.19708,73.9044785 C143.21348,67.1521918 144.224333,59.3200699 144.224333,50.4081127 C144.224333,43.8654255 143.250624,37.9143925 141.300553,32.5523605 C139.350482,27.1956348 136.670793,22.6322034 133.261485,18.8726787 C129.846871,15.1131541 125.845909,12.1893741 121.253293,10.1013389 C116.658023,8.01330372 111.712537,6.97061269 106.424794,6.97061269 C103.501014,6.97061269 100.609072,7.35532058 97.7569269,8.11943003 C94.9021291,8.88353949 92.328566,9.78826631 90.0309313,10.8336105 C87.7332966,11.8763015 85.8522077,12.993281 84.3903178,14.1739362 C82.9284278,15.3598978 82.058192,16.439733 81.7822636,17.4107888 C81.5010289,18.2465335 81.2595915,20.3345687 81.049992,23.6775476 C80.8403926,27.0178733 80.6334463,31.0904705 80.4238468,35.8953394 C80.2142473,40.6975551 80.0046479,45.9906049 79.7977015,51.7665295 C79.5881021,57.5451073 79.4474847,63.2202119 79.3785026,68.786537 C79.3068673,74.3581685 79.2378852,79.6140741 79.1715563,84.554254 C79.0972679,89.4970871 79.06543,93.5007022 79.06543,96.5624464 Z" id="Fill-13" fill="#363635" mask="url(#mask-2)"></path>
            </g>
            <path d="M181.742903,166.855475 C183.414393,166.786493 185.115067,166.648529 186.858192,166.43893 C188.598663,166.22933 190.095044,166.125857 191.349988,166.125857 C191.766534,166.261168 192.045115,166.576894 192.185733,167.065075 C192.321044,167.550603 192.392679,168.110419 192.392679,168.736564 C192.392679,169.362709 192.321044,169.917219 192.185733,170.408054 C192.045115,170.893582 191.766534,171.137672 191.349988,171.137672 C188.702136,171.137672 185.674883,171.450745 182.265576,172.07689 C178.850961,172.703035 175.232054,173.53878 171.403547,174.584124 C167.572387,175.629468 163.743881,176.847268 159.918027,178.237522 C156.086867,179.63043 152.433469,181.09232 148.952526,182.623192 C145.6122,184.0161 141.43613,186.207609 136.421661,189.203024 C131.409846,192.195786 126.398031,195.188548 121.386216,198.183963 C116.374401,201.176725 111.779131,203.787432 107.603061,206.016085 C103.426991,208.239431 100.503211,209.356411 98.8317211,209.356411 C98.1365938,209.356411 97.3353401,209.075176 96.4306133,208.520666 C95.5258865,207.963503 94.7591239,207.337358 94.1329786,206.64223 C93.5068334,205.94445 93.2627429,205.283813 93.4007071,204.657668 C93.5413244,204.031523 94.308087,203.577833 95.6983417,203.299251 C99.1792848,202.742088 103.289026,201.34918 108.019607,199.123181 C112.755493,196.894528 117.350763,194.456276 121.802762,191.813731 C126.257414,189.168533 130.189394,186.626807 133.604008,184.191209 C137.013316,181.752957 139.204824,180.046976 140.181186,179.073267 C140.876313,178.375487 150.663813,171.400335 177.251107,166.648529 C178.575033,166.855475 180.071414,166.924457 181.742903,166.855475 Z" id="Fill-16" fill="#363635"></path>
        </g>
    </g>
</svg>