<?xml version="1.0" encoding="UTF-8"?>
<svg width="30px" height="30px" viewBox="0 0 30 30" version="1.1" xmlns="http://www.w3.org/2000/svg" xmlns:xlink="http://www.w3.org/1999/xlink">
    <!-- Generator: Sketch 51.3 (57544) - http://www.bohemiancoding.com/sketch -->
    <title>Icon/ Character Pirate Blk</title>
    <desc>Created with Sketch.</desc>
    <defs></defs>
    <g id="Icon/-Character-Pirate-Blk" stroke="none" stroke-width="1" fill="none" fill-rule="evenodd">
        <path d="M7.1323854,20.0813102 L7.17700906,19.0984154 C5.41085173,18.8400679 3.81731749,18.8999576 3.81731749,18.8999576 C7.36372383,14.1240521 3,5.34493492 3,5.34493492 C4.91646859,8.09046407 6.37613187,10.3968025 7.48937465,12.316794 L7.63851161,9.06748728 L7.63851161,12.5751415 C10.9841115,18.4055744 11.0522213,20.5545558 11.0522213,20.5545558 C10.2431239,19.8147425 8.9279004,19.4025609 7.63851161,19.173571 L7.63851161,20.1799519 C8.23975666,20.2985569 8.87857952,20.4242077 9.53971421,20.5545558 L10.0587578,21.926146 L10.9101302,22.0365309 C11.4561828,20.5111064 13.1894595,14.6383984 9.01949633,11.1330928 L14.0243916,11.7378608 L14.1312536,10.5306735 L13.0779004,10.5306735 L13.0779004,9.77441993 L14.1970147,9.78968592 L14.3696378,7.84855688 C13.6098614,7.78279571 12.6985993,7.86147426 11.6194114,8.19145445 C11.6194114,8.19145445 14.0784097,4.76717601 12.1866016,4.31506792 L14.6221138,4.99851444 L14.9767544,1 L14.8581494,3.56703453 L14.9767544,1.92535371 C14.9767544,1.92535371 15.246845,1.26304471 16.0336305,1.68814375 C16.820416,2.11441709 16.9155348,3.15485286 18.1920062,2.82369836 C18.1920062,2.82369836 17.482725,3.3180815 17.6248161,3.56703453 C17.7669072,3.81598755 18.4280419,3.81011602 18.4280419,3.81011602 C18.4280419,3.81011602 17.5296972,4.76247878 16.7029853,4.05319751 C15.8750991,3.34391625 15.5909168,3.12901811 14.8581494,3.56703453 L14.7900396,5.04548671 L16.6430957,5.56570459 C16.6430957,5.56570459 18.5994907,6.94903792 17.5296972,9.4902377 C17.5296972,9.4902377 16.686545,8.16914262 14.6596916,7.88261178 L14.5716186,9.79438315 L15.6273203,9.80964913 L15.5439446,10.5306735 L14.5375637,10.5306735 L14.4788483,11.7930532 L19.4684777,12.3954726 C19.4684777,12.3954726 20.8870402,15.6377335 20.5558857,18.143704 C20.2247312,20.6496746 19.0903509,22.8021789 17.0576259,23.3447086 C17.0576259,23.3447086 19.4684777,21.9578523 19.3745331,20.8070317 C19.2794143,19.6562111 17.1997171,19.9779712 16.2532258,20.218704 C15.8527872,20.3208687 14.952094,20.7295275 14.0467035,21.1663696 L13.9891624,22.4087861 L13.7707414,22.4087861 L14.787691,22.5403085 C14.787691,22.5403085 14.5035088,23.4351302 15.0237267,23.886064 C15.5439446,24.3369978 18.2389785,24.2900255 18.2389785,24.2900255 C18.2389785,24.2900255 19.0433786,23.533772 19.232442,23.1556452 C19.232442,23.1556452 22.4007216,22.9184352 23.439983,21.7370827 C23.6748444,21.470515 24.090549,21.0571591 24.591978,20.5768676 C24.3336305,20.2210527 23.8862196,19.9192558 23.1464064,20.218704 C21.7384126,20.7905914 19.8513017,22.4909876 19.8513017,22.4909876 C19.8513017,22.4909876 21.5023769,19.9873656 21.4072581,17.7174307 C21.3121392,15.4474958 19.8513017,13.4088993 19.8513017,13.4088993 L25.4257357,14.1252264 C25.4257357,14.1252264 27.1367007,16.2718591 26.1174024,19.1512592 C27.5876344,17.8008065 29.0672609,16.4879315 29.0672609,16.4879315 L25.8684494,19.747807 C25.6359366,20.2374929 25.3235711,20.7447935 24.9066922,21.263837 C24.9066922,21.263837 24.86794,21.087691 24.7657754,20.8716186 L24.102292,21.5480193 C24.102292,21.5480193 23.0618563,25.547708 21.5963215,27.2833334 C21.5963215,27.2833334 12.4707838,30.5772638 4.76380872,26.2992643 C4.76380872,26.2992643 4.05452745,23.0605263 4.00755518,22.0200906 L3.34524618,21.8310272 C3.34524618,21.8310272 2.91897284,19.8922468 3.01409168,19.2780843 C3.01409168,19.2780843 4.72388229,19.6092388 7.1323854,20.0813102 Z" id="Fill-1" fill="#1C1C1C"></path>
    </g>
</svg>