<?xml version="1.0" encoding="UTF-8"?>
<svg width="300px" height="300px" viewBox="0 0 300 300" version="1.1" xmlns="http://www.w3.org/2000/svg" xmlns:xlink="http://www.w3.org/1999/xlink">
    <!-- Generator: Sketch 51.3 (57544) - http://www.bohemiancoding.com/sketch -->
    <title>Character/Smiley</title>
    <desc>Created with Sketch.</desc>
    <defs></defs>
    <g id="Character/Smiley" stroke="none" stroke-width="1" fill="none" fill-rule="evenodd">
        <g id="Page-1" transform="translate(51.000000, 50.500000)">
            <g id="Group-3" transform="translate(0.000000, 0.122397)" fill="#FBE911">
                <path d="M197.585154,98.923039 C197.585154,44.6366995 153.578503,0.630049272 99.2921638,0.630049272 C45.0058244,0.630049272 0.999174101,44.6366995 0.999174101,98.923039 C0.999174101,153.209378 45.0058244,197.216029 99.2921638,197.216029 C153.578503,197.216029 197.585154,153.209378 197.585154,98.923039" id="Fill-1"></path>
            </g>
            <path d="M140.785053,42.649475 C145.148552,42.649475 149.919496,50.2147095 149.919496,59.5693919 C149.919496,68.7588945 146.161655,76.403966 140.785053,76.403966 C135.469017,76.403966 132.933507,68.7588945 132.933507,59.5693919 C132.933507,50.2147095 136.047146,42.649475 140.785053,42.649475" id="Fill-4" fill="#020203"></path>
            <path d="M54.1033768,42.649475 C58.4668764,42.649475 63.2378195,50.2147095 63.2378195,59.5693919 C63.2378195,68.7588945 59.4799792,76.403966 54.1033768,76.403966 C48.7845875,76.403966 46.2518306,68.7588945 46.2518306,59.5693919 C46.2518306,50.2147095 49.3654697,42.649475 54.1033768,42.649475" id="Fill-6" fill="#020203"></path>
            <path d="M148.421865,124.46578 C150.20856,121.231009 151.210651,117.608066 151.05373,113.89152 C150.858267,110.202505 149.61116,106.543772 147.606978,103.416368 C143.562826,97.0954882 137.297006,92.4209 129.145383,88.4896209 C126.378622,87.1626766 121.775612,85.0731522 112.35761,81.6924724 C110.857227,81.1473791 108.842034,80.417835 106.664413,79.627725 C104.588654,78.8513799 102.380751,77.989692 100.459159,77.0977211 C98.5155435,76.2250212 96.8637455,75.3220383 95.685463,74.6530601 C94.5594874,73.951046 93.8547203,73.5133196 93.8547203,73.5133196 C93.8547203,73.5133196 93.309627,73.1168881 92.4149031,72.4699339 C91.5559682,71.8009557 90.4189806,70.8456659 89.3563239,69.6894073 C88.2854082,68.5359018 87.3879313,67.1566505 86.7024352,65.7663872 C86.052728,64.3623589 85.7058504,62.8950118 85.5213997,61.6148684 C85.226829,59.2059964 85.4498217,56.7888654 85.9701381,54.9195807 C86.4877015,53.0117541 87.2915765,51.494853 88.1587704,50.3000524 C89.8738872,47.8664035 91.8808217,46.7927348 93.2132721,46.1017327 C95.9993046,44.7279874 98.947764,44.3425679 101.879705,44.248966 C104.78687,44.204918 107.366427,44.5985965 109.789064,45.3969655 C112.181418,46.2338765 114.389322,47.5773388 116.36322,49.6613572 C118.265541,51.7784116 119.856773,54.671811 120.776274,58.2837425 C121.648974,54.688329 121.662739,50.9497596 120.542269,47.3818761 C119.374999,43.8580405 117.056975,40.5957395 113.891029,38.2474334 C110.719577,35.9183983 106.829593,34.4014972 102.614755,33.8591569 C98.4742485,33.3663705 93.4527828,33.5563273 88.4120461,35.9431753 C87.7788568,36.207463 87.1098787,36.5791175 86.3775816,37.014091 C85.6287665,37.4187815 84.8606805,37.9528628 84.0430405,38.566781 C82.4077605,39.7808525 80.6293247,41.4298975 79.0298337,43.6653307 C75.7620268,48.0783842 73.3091068,54.8837917 74.3029386,63.0491796 C74.5920033,65.2708478 75.2389574,67.9687845 76.4447699,70.5428363 C77.6698534,73.0921111 79.3216514,75.4844651 81.0312622,77.3124548 C82.7353671,79.1459506 84.403683,80.5086839 85.6150015,81.4336907 C86.842838,82.3091436 87.5916531,82.840472 87.5916531,82.840472 C87.5916531,82.840472 88.500142,83.4186012 89.9619831,84.3436081 C91.4348363,85.19979 93.4775598,86.3257656 95.7377699,87.3553863 C97.9952271,88.418043 100.459159,89.3870978 102.752405,90.2487857 C104.963061,91.0416488 107.005785,91.7739458 108.528192,92.3217922 C117.734213,95.6171291 121.811401,97.4698958 124.333145,98.6399193 C131.713929,102.111448 137.032719,105.092943 141.231038,108.641556 C143.334328,110.428251 145.057704,112.432432 146.42319,114.981707 C147.719851,117.536488 148.482431,120.732717 148.421865,124.46578" id="Fill-8" fill="#1D1D1B"></path>
            <path d="M47.0697459,120.05135 C44.2231474,127.957956 44.4131042,136.186663 47.4469064,143.823476 C48.1847095,145.745067 49.2418602,147.542774 50.2852459,149.436836 C50.9101761,150.315042 51.5378593,151.201506 52.1710485,152.09623 L53.1703863,153.450705 C53.5310289,153.880172 53.9192014,154.287616 54.3046209,154.708824 C55.0947309,155.545735 55.8986059,156.393658 56.7162459,157.258099 C57.5889458,158.061974 58.5304706,158.821801 59.4830074,159.622923 C59.9647818,160.016601 60.4520622,160.418539 60.9448486,160.820476 C61.470671,161.175613 62.0019993,161.533503 62.5388336,161.896898 C63.6290203,162.601665 64.7247129,163.372504 65.9140074,164.044235 C66.7316474,164.473703 67.6786783,164.969242 68.8129128,165.561137 C69.9333824,166.18882 71.2961158,166.775208 72.9286427,167.424915 C73.7407767,167.758028 74.6189826,168.115917 75.5660134,168.501337 C76.5405742,168.809673 77.5867129,169.140032 78.7154415,169.495169 C80.9508747,170.285279 83.6130224,170.769806 86.6413187,171.425019 C87.8196012,171.606717 89.8127707,171.859993 91.5113696,172.063714 C92.3565396,172.195858 93.1438966,172.154563 93.7082609,172.195858 C94.2753782,172.215129 94.6277617,172.226141 94.6277617,172.226141 C94.6277617,172.226141 95.8087973,172.28946 97.3174394,172.369297 C98.8233285,172.418851 100.659577,172.286707 101.967251,172.239906 C110.242758,171.74712 116.825173,169.792492 121.786073,167.782805 C123.022168,167.248723 124.186686,166.783467 125.243837,166.279669 C126.27621,165.72081 127.234253,165.203247 128.117965,164.724226 C129.912919,163.821243 131.261887,162.797128 132.401628,162.042807 C132.968745,161.651881 133.530356,161.263709 134.086462,160.883795 C134.623296,160.476352 135.118835,160.02486 135.622634,159.603652 C136.616465,158.739211 137.604791,157.921571 138.502268,157.051624 C140.184349,155.187845 141.891207,153.51953 143.130055,151.573161 C143.771504,150.634389 144.40194,149.712135 145.02687,148.79814 C145.533421,147.829086 146.034467,146.871043 146.530006,145.918506 C147.567886,144.065739 148.181804,142.07257 148.842523,140.175755 C151.223865,132.472871 151.207347,124.745209 149.233449,116.579821 C147.130159,124.750715 144.066074,130.766013 140.3688,136.236217 C139.380474,137.574173 138.538057,138.983708 137.390058,140.239074 C136.864235,140.894287 136.33566,141.552253 135.798826,142.218479 C135.204178,142.840656 134.601272,143.471092 133.987354,144.109787 C132.861378,145.464262 131.372007,146.576472 130.023039,147.919935 C129.268718,148.511829 128.500632,149.117488 127.710522,149.739665 C127.311337,150.045248 126.934177,150.383866 126.512968,150.683943 C126.080748,150.967502 125.640268,151.253813 125.197036,151.545631 C124.310571,152.107242 123.291962,152.908364 121.885181,153.585601 C121.199685,153.954503 120.459129,154.353688 119.66076,154.785908 C118.834861,155.171327 117.91536,155.520958 116.954564,155.939414 C113.067333,157.494857 107.872428,159.053053 101.190906,159.443978 C100.131002,159.45499 98.6471367,159.598146 97.4303122,159.578875 C96.2134878,159.540333 95.2609509,159.51005 95.2609509,159.51005 C95.2609509,159.51005 94.9746393,159.493532 94.5203949,159.466002 C94.0633974,159.419201 93.4302082,159.45499 92.7502181,159.325599 C91.3819788,159.127384 89.7769818,158.909897 88.818939,158.808036 C86.382537,158.257437 84.2214347,157.905053 82.4292339,157.255346 C81.520745,156.97454 80.6755751,156.715759 79.8909711,156.470742 C79.133897,156.162406 78.4318829,155.876095 77.7821757,155.609054 C76.4689963,155.096997 75.3760567,154.639999 74.4923448,154.138954 C73.5893619,153.679203 72.8322878,153.293784 72.1798277,152.960671 C71.2355498,152.440355 70.3766149,151.848461 69.492903,151.33365 C69.0551765,151.069363 68.6229561,150.810581 68.1934886,150.554552 C67.7970571,150.265488 67.4006256,149.976423 67.0124531,149.692864 C66.2250961,149.134006 65.454257,148.588913 64.697183,148.054831 C63.9924158,147.468443 63.3014137,146.89582 62.6186705,146.331455 L61.5918028,145.502804 L60.675055,144.60808 C60.0528777,144.027197 59.4362065,143.451821 58.8222883,142.881951 C57.7623846,141.643102 56.5620781,140.495103 55.5820113,139.225971 C51.6287082,134.190741 48.3361243,128.442484 47.0697459,120.05135" id="Fill-10" fill="#1D1D1B"></path>
            <path d="M142.616071,118.399828 C142.616071,118.399828 147.051148,117.012317 155.524872,122.207222" id="Fill-12" fill="#FED52E"></path>
            <path d="M142.616071,118.399828 C142.616071,118.399828 147.051148,117.012317 155.524872,122.207222" id="Stroke-14" stroke="#1D1D1B" stroke-width="1.395" stroke-linecap="round"></path>
            <path d="M53.159099,118.003947 C53.159099,118.003947 48.6469376,116.891736 40.5118327,122.601451" id="Fill-16" fill="#FED52E"></path>
            <path d="M53.159099,118.003947 C53.159099,118.003947 48.6469376,116.891736 40.5118327,122.601451" id="Stroke-18" stroke="#1D1D1B" stroke-width="1.395" stroke-linecap="round"></path>
        </g>
    </g>
</svg>