<?xml version="1.0" encoding="UTF-8"?>
<svg width="300px" height="300px" viewBox="0 0 300 300" version="1.1" xmlns="http://www.w3.org/2000/svg" xmlns:xlink="http://www.w3.org/1999/xlink">
    <!-- Generator: Sketch 51.3 (57544) - http://www.bohemiancoding.com/sketch -->
    <title>Character/Trojan Horse</title>
    <desc>Created with Sketch.</desc>
    <defs></defs>
    <g id="Character/Trojan-Horse" stroke="none" stroke-width="1" fill="none" fill-rule="evenodd">
        <g id="Page-1" transform="translate(58.951299, 22.675646)">
            <path d="M62.7559971,42.8945158 C62.7473016,41.9843826 62.4458562,40.4742573 62.7125194,39.5989063 C63.0777321,38.404719 63.4980165,38.7177584 64.6168425,39.1757234 C65.0979957,39.3728223 64.3675704,39.7960052 65.0226344,39.8133963 C66.3182697,39.8481785 66.6776853,40.6423711 66.7733363,41.7032269 C66.834205,42.3727834 66.8863783,43.0394414 66.935653,43.7089979 C67.1704326,44.1176883 67.5472393,44.2973961 68.0660731,44.2539184 C67.9994073,42.8800232 67.8631772,41.5583012 67.5994125,40.2452748 C68.0660731,40.0945521 68.4950531,40.0858566 68.9472211,40.2365792 C70.8718338,40.8742521 71.2225539,40.4394752 71.0051654,42.4568403 C70.906616,43.3756689 70.7066186,43.9959507 70.370391,44.8452151 C73.1674562,45.5611478 75.9645213,46.2770805 78.758688,46.9930133 C79.8514274,47.2712705 80.9644564,39.5380376 81.2108301,38.6337015 C81.5470576,37.416326 82.3934234,36.3525717 82.3731338,35.0569363 C82.3470472,33.4917392 81.5731442,31.9033541 80.5354765,30.7526444 C80.0224397,30.1845358 80.3499717,29.9178726 80.0775114,29.3207789 C80.0021501,29.1526651 79.6630241,28.4193413 79.6427345,28.349777 C79.5094029,27.8802179 79.1963634,28.3149948 79.2659278,27.5584829 C79.3007099,27.2077628 80.1905534,26.5990751 80.4224345,26.4657435 C81.3731468,25.9179245 81.4021319,24.8744598 81.4630007,24.1353389 C81.1760479,22.3150727 79.7876601,21.2629124 78.1934779,21.0716106 C77.3268225,20.9672641 76.4050953,21.2310288 75.7935091,21.9846422 C75.341341,22.5411567 75.2688782,22.6484017 74.6833785,23.0918742 C74.4138168,23.2947701 72.9993424,23.5556363 73.4022357,24.0686731 C73.9384607,24.7527222 72.9674588,25.3469174 72.8920974,26.028068 C72.7761569,27.0425476 73.2080354,27.0947208 74.019619,27.8425372 C74.0051265,27.8744208 73.9906339,27.903406 73.9761413,27.9323911 C72.4515234,27.5961636 71.5355933,26.9382011 70.0631486,26.4773375 C69.376201,26.259949 69.4254758,25.4947416 68.471865,25.486046 C67.8312936,25.4773505 66.5559478,23.2107132 66.0892872,22.7411541 C65.280602,21.9295705 64.5994514,21.0223359 64.0081548,20.0484355 C63.2139622,18.7470031 63.1559919,17.7962908 62.7588956,16.3499327 C62.2690469,14.5586516 60.9241368,16.5963063 60.5270405,16.8571725 C60.2197981,17.062967 60.2371892,17.4223826 60.1038576,17.7122339 C59.8429914,18.2861395 60.8139933,18.9730871 61.0922506,19.3788789 C61.6023889,20.1266953 61.8139803,20.8078459 62.0951361,21.6745013 C62.3328142,22.4049266 62.5675938,23.1324534 62.8168659,23.8570817 C63.167586,24.8889523 63.8951128,25.7527092 64.6545232,26.5208152 C65.2139362,27.0831268 66.2979801,27.6599309 66.4863835,28.4483264 C66.6892794,29.2946923 67.8863653,29.451212 68.4254887,29.9439592 C68.9820033,30.4540975 69.6341687,30.8135131 70.2979282,31.1671317 C71.686316,31.9091511 71.8747193,32.0598738 71.8283431,33.5323184 C71.7848654,34.8540404 71.8805164,35.9033021 70.8892249,36.9583609 C70.5356063,37.3322691 71.5239993,37.7525535 71.5095067,38.2279097 C71.477623,39.2365922 69.3993891,38.7989167 68.6747609,38.7699316 C68.1211449,38.7467435 67.6110066,38.523558 67.1153608,38.2858799 C66.8573932,38.1612438 66.596527,38.0482018 66.3385593,37.9235658 C65.8661017,37.6945832 65.2255303,38.1815334 64.7617682,38.2279097 C63.9878652,38.3061695 63.4603358,37.9032762 62.625564,38.1931275 C62.1212227,38.3699368 61.7878937,38.6945703 61.6893443,39.2047086 C61.4922454,40.2394777 61.5878963,41.285841 61.5994904,42.3322042 C61.6023889,42.5206076 61.6458666,42.6336496 61.8603566,42.6713302 C62.1386138,42.720605 62.411074,42.8075604 62.7559971,42.8945158" id="Fill-1" fill="#472613"></path>
            <polygon id="Fill-3" fill="#C77125" points="91.0567892 114.696193 117.670937 114.696193 117.670937 103.606481 91.0567892 103.606481"></polygon>
            <path d="M91.2886703,114.461413 L117.436157,114.461413 L117.436157,103.838362 L91.2886703,103.838362 L91.2886703,114.461413 Z M90.8220097,114.930972 L117.905716,114.930972 L117.905716,103.371702 L90.8220097,103.371702 L90.8220097,114.930972 Z" id="Fill-4" fill="#945315"></path>
            <polygon id="Fill-5" fill="#AA5D26" points="91.0567892 125.713441 117.670937 125.713441 117.670937 114.62373 91.0567892 114.62373"></polygon>
            <path d="M91.2886703,125.478661 L117.436157,125.478661 L117.436157,114.855611 L91.2886703,114.855611 L91.2886703,125.478661 Z M90.8220097,125.94822 L117.905716,125.94822 L117.905716,114.38895 L90.8220097,114.38895 L90.8220097,125.94822 Z" id="Fill-6" fill="#945315"></path>
            <polygon id="Fill-7" fill="#C77125" points="91.0567892 136.730689 117.670937 136.730689 117.670937 125.640978 91.0567892 125.640978"></polygon>
            <path d="M91.2886703,136.49591 L117.436157,136.49591 L117.436157,125.872859 L91.2886703,125.872859 L91.2886703,136.49591 Z M90.8220097,136.965469 L117.905716,136.965469 L117.905716,125.406198 L90.8220097,125.406198 L90.8220097,136.965469 Z" id="Fill-8" fill="#945315"></path>
            <polygon id="Fill-9" fill="#C77125" points="117.204276 191.822728 135.221433 191.822728 135.221433 180.733017 117.204276 180.733017"></polygon>
            <path d="M117.439056,191.587948 L134.986654,191.587948 L134.986654,180.964898 L117.439056,180.964898 L117.439056,191.587948 Z M116.969496,192.054609 L135.453314,192.054609 L135.453314,180.498237 L116.969496,180.498237 L116.969496,192.054609 Z" id="Fill-10" fill="#945315"></path>
            <polygon id="Fill-11" fill="#BF6628" points="117.204276 202.839976 135.221433 202.839976 135.221433 191.750265 117.204276 191.750265"></polygon>
            <path d="M117.439056,202.605197 L134.986654,202.605197 L134.986654,191.982146 L117.439056,191.982146 L117.439056,202.605197 Z M116.969496,203.071857 L135.453314,203.071857 L135.453314,191.515485 L116.969496,191.515485 L116.969496,203.071857 Z" id="Fill-12" fill="#945315"></path>
            <polygon id="Fill-13" fill="#C77125" points="117.204276 213.857224 135.221433 213.857224 135.221433 202.767513 117.204276 202.767513"></polygon>
            <path d="M117.439056,213.625343 L134.986654,213.625343 L134.986654,203.002293 L117.439056,203.002293 L117.439056,213.625343 Z M116.969496,214.092004 L135.453314,214.092004 L135.453314,202.535632 L116.969496,202.535632 L116.969496,214.092004 Z" id="Fill-14" fill="#945315"></path>
            <polygon id="Fill-15" fill="#BF6628" points="91.0567892 147.747938 117.670937 147.747938 117.670937 136.658226 91.0567892 136.658226"></polygon>
            <path d="M91.2886703,147.516056 L117.436157,147.516056 L117.436157,136.893006 L91.2886703,136.893006 L91.2886703,147.516056 Z M90.8220097,147.982717 L117.905716,147.982717 L117.905716,136.426345 L90.8220097,136.426345 L90.8220097,147.982717 Z" id="Fill-16" fill="#945315"></path>
            <polygon id="Fill-17" fill="#D88341" points="91.0567892 158.768084 117.670937 158.768084 117.670937 147.678373 91.0567892 147.678373"></polygon>
            <path d="M91.2886703,158.533305 L117.436157,158.533305 L117.436157,147.910254 L91.2886703,147.910254 L91.2886703,158.533305 Z M90.8220097,159.002864 L117.905716,159.002864 L117.905716,147.443594 L90.8220097,147.443594 L90.8220097,159.002864 Z" id="Fill-18" fill="#945315"></path>
            <polygon id="Fill-19" fill="#C77125" points="91.0567892 169.785333 117.670937 169.785333 117.670937 158.695622 91.0567892 158.695622"></polygon>
            <path d="M91.2886703,169.550553 L117.436157,169.550553 L117.436157,158.927503 L91.2886703,158.927503 L91.2886703,169.550553 Z M90.8220097,170.017214 L117.905716,170.017214 L117.905716,158.460842 L90.8220097,158.460842 L90.8220097,170.017214 Z" id="Fill-20" fill="#945315"></path>
            <polygon id="Fill-21" fill="#C77125" points="117.520214 48.5869056 135.218535 48.5869056 135.218535 37.4971945 117.520214 37.4971945"></polygon>
            <path d="M117.754993,48.3521261 L134.986654,48.3521261 L134.986654,37.7290755 L117.754993,37.7290755 L117.754993,48.3521261 Z M117.285434,48.8187867 L135.453314,48.8187867 L135.453314,37.2624149 L117.285434,37.2624149 L117.285434,48.8187867 Z" id="Fill-22" fill="#945315"></path>
            <polygon id="Fill-23" fill="#BF6628" points="117.520214 59.604154 135.218535 59.604154 135.218535 48.5144428 117.520214 48.5144428"></polygon>
            <path d="M117.754993,59.3693744 L134.986654,59.3693744 L134.986654,48.7463239 L117.754993,48.7463239 L117.754993,59.3693744 Z M117.285434,59.8389335 L135.453314,59.8389335 L135.453314,48.2796633 L117.285434,48.2796633 L117.285434,59.8389335 Z" id="Fill-24" fill="#945315"></path>
            <polygon id="Fill-25" fill="#D88341" points="117.520214 70.6214023 135.218535 70.6214023 135.218535 59.5316911 117.520214 59.5316911"></polygon>
            <path d="M117.754993,70.3866227 L134.986654,70.3866227 L134.986654,59.7635722 L117.754993,59.7635722 L117.754993,70.3866227 Z M117.285434,70.8561818 L135.453314,70.8561818 L135.453314,59.2969116 L117.285434,59.2969116 L117.285434,70.8561818 Z" id="Fill-26" fill="#945315"></path>
            <polygon id="Fill-27" fill="#C77125" points="117.520214 81.6386506 135.218535 81.6386506 135.218535 70.5489394 117.520214 70.5489394"></polygon>
            <path d="M117.754993,81.4067695 L134.986654,81.4067695 L134.986654,70.783719 L117.754993,70.783719 L117.754993,81.4067695 Z M117.285434,81.8763287 L135.453314,81.8763287 L135.453314,70.3170584 L117.285434,70.3170584 L117.285434,81.8763287 Z" id="Fill-28" fill="#945315"></path>
            <polygon id="Fill-29" fill="#D88341" points="91.0567892 180.805479 117.670937 180.805479 117.670937 169.715768 91.0567892 169.715768"></polygon>
            <path d="M91.2886703,180.5707 L117.436157,180.5707 L117.436157,169.947649 L91.2886703,169.947649 L91.2886703,180.5707 Z M90.8220097,181.037361 L117.905716,181.037361 L117.905716,169.480989 L90.8220097,169.480989 L90.8220097,181.037361 Z" id="Fill-30" fill="#945315"></path>
            <polygon id="Fill-31" fill="#BF6628" points="91.0567892 191.822728 117.670937 191.822728 117.670937 180.733017 91.0567892 180.733017"></polygon>
            <path d="M91.2886703,191.587948 L117.436157,191.587948 L117.436157,180.964898 L91.2886703,180.964898 L91.2886703,191.587948 Z M90.8220097,192.054609 L117.905716,192.054609 L117.905716,180.498237 L90.8220097,180.498237 L90.8220097,192.054609 Z" id="Fill-32" fill="#945315"></path>
            <polygon id="Fill-33" fill="#C77125" points="91.0567892 202.839976 117.670937 202.839976 117.670937 191.750265 91.0567892 191.750265"></polygon>
            <path d="M91.2886703,202.605197 L117.436157,202.605197 L117.436157,191.982146 L91.2886703,191.982146 L91.2886703,202.605197 Z M90.8220097,203.071857 L117.905716,203.071857 L117.905716,191.515485 L90.8220097,191.515485 L90.8220097,203.071857 Z" id="Fill-34" fill="#945315"></path>
            <polygon id="Fill-35" fill="#AA5D26" points="91.0567892 213.857224 117.670937 213.857224 117.670937 202.767513 91.0567892 202.767513"></polygon>
            <path d="M91.2886703,213.625343 L117.436157,213.625343 L117.436157,203.002293 L91.2886703,203.002293 L91.2886703,213.625343 Z M90.8220097,214.092004 L117.905716,214.092004 L117.905716,202.535632 L90.8220097,202.535632 L90.8220097,214.092004 Z" id="Fill-36" fill="#945315"></path>
            <polygon id="Fill-37" fill="#D88341" points="64.5904661 114.696193 91.2046134 114.696193 91.2046134 103.606481 64.5904661 103.606481"></polygon>
            <path d="M64.8252456,114.461413 L90.9727323,114.461413 L90.9727323,103.838362 L64.8252456,103.838362 L64.8252456,114.461413 Z M64.3556865,114.930972 L91.439393,114.930972 L91.439393,103.371702 L64.3556865,103.371702 L64.3556865,114.930972 Z" id="Fill-38" fill="#945315"></path>
            <polygon id="Fill-39" fill="#BF6628" points="64.5904661 125.713441 91.2046134 125.713441 91.2046134 114.62373 64.5904661 114.62373"></polygon>
            <path d="M64.8252456,125.478661 L90.9727323,125.478661 L90.9727323,114.855611 L64.8252456,114.855611 L64.8252456,125.478661 Z M64.3556865,125.94822 L91.439393,125.94822 L91.439393,114.38895 L64.3556865,114.38895 L64.3556865,125.94822 Z" id="Fill-40" fill="#945315"></path>
            <polygon id="Fill-41" fill="#C77125" points="64.5904661 136.730689 91.2046134 136.730689 91.2046134 125.640978 64.5904661 125.640978"></polygon>
            <path d="M64.8252456,136.49591 L90.9727323,136.49591 L90.9727323,125.872859 L64.8252456,125.872859 L64.8252456,136.49591 Z M64.3556865,136.965469 L91.439393,136.965469 L91.439393,125.406198 L64.3556865,125.406198 L64.3556865,136.965469 Z" id="Fill-42" fill="#945315"></path>
            <polygon id="Fill-43" fill="#B86928" points="64.5904661 147.747938 91.2046134 147.747938 91.2046134 136.658226 64.5904661 136.658226"></polygon>
            <path d="M64.8252456,147.516056 L90.9727323,147.516056 L90.9727323,136.893006 L64.8252456,136.893006 L64.8252456,147.516056 Z M64.3556865,147.982717 L91.439393,147.982717 L91.439393,136.426345 L64.3556865,136.426345 L64.3556865,147.982717 Z" id="Fill-44" fill="#945315"></path>
            <polygon id="Fill-45" fill="#BF6628" points="47.1385186 191.822728 64.471627 191.822728 64.471627 180.733017 47.1385186 180.733017"></polygon>
            <path d="M47.3703997,191.587948 L64.2368475,191.587948 L64.2368475,180.964898 L47.3703997,180.964898 L47.3703997,191.587948 Z M46.9037391,192.054609 L64.7064066,192.054609 L64.7064066,180.498237 L46.9037391,180.498237 L46.9037391,192.054609 Z" id="Fill-46" fill="#945315"></path>
            <polygon id="Fill-47" fill="#C77125" points="47.1385186 202.839976 64.471627 202.839976 64.471627 191.750265 47.1385186 191.750265"></polygon>
            <path d="M47.3703997,202.605197 L64.2368475,202.605197 L64.2368475,191.982146 L47.3703997,191.982146 L47.3703997,202.605197 Z M46.9037391,203.071857 L64.7064066,203.071857 L64.7064066,191.515485 L46.9037391,191.515485 L46.9037391,203.071857 Z" id="Fill-48" fill="#945315"></path>
            <polygon id="Fill-49" fill="#AA5D26" points="47.1385186 213.857224 64.471627 213.857224 64.471627 202.767513 47.1385186 202.767513"></polygon>
            <path d="M47.3703997,213.625343 L64.2368475,213.625343 L64.2368475,203.002293 L47.3703997,203.002293 L47.3703997,213.625343 Z M46.9037391,214.092004 L64.7064066,214.092004 L64.7064066,202.535632 L46.9037391,202.535632 L46.9037391,214.092004 Z" id="Fill-50" fill="#945315"></path>
            <polygon id="Fill-51" fill="#B86928" points="64.5904661 158.768084 91.2046134 158.768084 91.2046134 147.678373 64.5904661 147.678373"></polygon>
            <path d="M64.8252456,158.533305 L90.9727323,158.533305 L90.9727323,147.910254 L64.8252456,147.910254 L64.8252456,158.533305 Z M64.3556865,159.002864 L91.439393,159.002864 L91.439393,147.443594 L64.3556865,147.443594 L64.3556865,159.002864 Z" id="Fill-52" fill="#945315"></path>
            <polygon id="Fill-53" fill="#B86928" points="64.5904661 169.785333 91.2046134 169.785333 91.2046134 158.695622 64.5904661 158.695622"></polygon>
            <path d="M64.8252456,169.550553 L90.9727323,169.550553 L90.9727323,158.927503 L64.8252456,158.927503 L64.8252456,169.550553 Z M64.3556865,170.017214 L91.439393,170.017214 L91.439393,158.460842 L64.3556865,158.460842 L64.3556865,170.017214 Z" id="Fill-54" fill="#945315"></path>
            <polygon id="Fill-55" fill="#C77125" points="64.5904661 180.805479 91.2046134 180.805479 91.2046134 169.715768 64.5904661 169.715768"></polygon>
            <path d="M64.8252456,180.5707 L90.9727323,180.5707 L90.9727323,169.947649 L64.8252456,169.947649 L64.8252456,180.5707 Z M64.3556865,181.037361 L91.439393,181.037361 L91.439393,169.480989 L64.3556865,169.480989 L64.3556865,181.037361 Z" id="Fill-56" fill="#945315"></path>
            <polygon id="Fill-57" fill="#BF6628" points="64.5904661 191.822728 91.2046134 191.822728 91.2046134 180.733017 64.5904661 180.733017"></polygon>
            <path d="M64.8252456,191.587948 L90.9727323,191.587948 L90.9727323,180.964898 L64.8252456,180.964898 L64.8252456,191.587948 Z M64.3556865,192.054609 L91.439393,192.054609 L91.439393,180.498237 L64.3556865,180.498237 L64.3556865,192.054609 Z" id="Fill-58" fill="#945315"></path>
            <polygon id="Fill-59" fill="#C77125" points="64.5904661 202.839976 91.2046134 202.839976 91.2046134 191.750265 64.5904661 191.750265"></polygon>
            <path d="M64.8252456,202.605197 L90.9727323,202.605197 L90.9727323,191.982146 L64.8252456,191.982146 L64.8252456,202.605197 Z M64.3556865,203.071857 L91.439393,203.071857 L91.439393,191.515485 L64.3556865,191.515485 L64.3556865,203.071857 Z" id="Fill-60" fill="#945315"></path>
            <polygon id="Fill-61" fill="#D88341" points="64.5904661 213.857224 91.2046134 213.857224 91.2046134 202.767513 64.5904661 202.767513"></polygon>
            <path d="M64.8252456,213.625343 L90.9727323,213.625343 L90.9727323,203.002293 L64.8252456,203.002293 L64.8252456,213.625343 Z M64.3556865,214.092004 L91.439393,214.092004 L91.439393,202.535632 L64.3556865,202.535632 L64.3556865,214.092004 Z" id="Fill-62" fill="#945315"></path>
            <polygon id="Fill-63" fill="#BF6628" points="91.0567892 48.5869056 117.670937 48.5869056 117.670937 37.4971945 91.0567892 37.4971945"></polygon>
            <path d="M91.2886703,48.3521261 L117.436157,48.3521261 L117.436157,37.7290755 L91.2886703,37.7290755 L91.2886703,48.3521261 Z M90.8220097,48.8187867 L117.905716,48.8187867 L117.905716,37.2624149 L90.8220097,37.2624149 L90.8220097,48.8187867 Z" id="Fill-64" fill="#945315"></path>
            <polygon id="Fill-65" fill="#C77125" points="91.0567892 59.604154 117.670937 59.604154 117.670937 48.5144428 91.0567892 48.5144428"></polygon>
            <path d="M91.2886703,59.3693744 L117.436157,59.3693744 L117.436157,48.7463239 L91.2886703,48.7463239 L91.2886703,59.3693744 Z M90.8220097,59.8389335 L117.905716,59.8389335 L117.905716,48.2796633 L90.8220097,48.2796633 L90.8220097,59.8389335 Z" id="Fill-66" fill="#945315"></path>
            <polygon id="Fill-67" fill="#AA5D26" points="91.0567892 70.6214023 117.670937 70.6214023 117.670937 59.5316911 91.0567892 59.5316911"></polygon>
            <path d="M91.2886703,70.3866227 L117.436157,70.3866227 L117.436157,59.7635722 L91.2886703,59.7635722 L91.2886703,70.3866227 Z M90.8220097,70.8561818 L117.905716,70.8561818 L117.905716,59.2969116 L90.8220097,59.2969116 L90.8220097,70.8561818 Z" id="Fill-68" fill="#945315"></path>
            <polygon id="Fill-69" fill="#D88341" points="91.0567892 81.6386506 117.670937 81.6386506 117.670937 70.5489394 91.0567892 70.5489394"></polygon>
            <path d="M91.2886703,81.4067695 L117.436157,81.4067695 L117.436157,70.783719 L91.2886703,70.783719 L91.2886703,81.4067695 Z M90.8220097,81.8763287 L117.905716,81.8763287 L117.905716,70.3170584 L90.8220097,70.3170584 L90.8220097,81.8763287 Z" id="Fill-70" fill="#945315"></path>
            <polygon id="Fill-71" fill="#AA5D26" points="91.0567892 92.6587974 117.670937 92.6587974 117.670937 81.5690863 91.0567892 81.5690863"></polygon>
            <path d="M91.2886703,92.4240179 L117.436157,92.4240179 L117.436157,81.8009673 L91.2886703,81.8009673 L91.2886703,92.4240179 Z M90.8220097,92.893577 L117.905716,92.893577 L117.905716,81.3343067 L90.8220097,81.3343067 L90.8220097,92.893577 Z" id="Fill-72" fill="#945315"></path>
            <polygon id="Fill-73" fill="#BF6628" points="91.0567892 103.676046 117.670937 103.676046 117.670937 92.5863346 91.0567892 92.5863346"></polygon>
            <path d="M91.2886703,103.441266 L117.436157,103.441266 L117.436157,92.8182156 L91.2886703,92.8182156 L91.2886703,103.441266 Z M90.8220097,103.910825 L117.905716,103.910825 L117.905716,92.351555 L90.8220097,92.351555 L90.8220097,103.910825 Z" id="Fill-74" fill="#945315"></path>
            <polygon id="Fill-75" fill="#C77125" points="135.22723 59.604154 158.395046 59.604154 158.395046 48.5144428 135.22723 48.5144428"></polygon>
            <path d="M135.459111,59.3693744 L158.160266,59.3693744 L158.160266,48.7463239 L135.459111,48.7463239 L135.459111,59.3693744 Z M134.995349,59.8389335 L158.629825,59.8389335 L158.629825,48.2796633 L134.995349,48.2796633 L134.995349,59.8389335 Z" id="Fill-76" fill="#945315"></path>
            <polygon id="Fill-77" fill="#AA5D26" points="135.22723 70.6214023 158.395046 70.6214023 158.395046 59.5316911 135.22723 59.5316911"></polygon>
            <path d="M135.459111,70.3866227 L158.160266,70.3866227 L158.160266,59.7635722 L135.459111,59.7635722 L135.459111,70.3866227 Z M134.995349,70.8561818 L158.629825,70.8561818 L158.629825,59.2969116 L134.995349,59.2969116 L134.995349,70.8561818 Z" id="Fill-78" fill="#945315"></path>
            <polygon id="Fill-79" fill="#C77125" points="135.22723 81.6386506 158.395046 81.6386506 158.395046 70.5489394 135.22723 70.5489394"></polygon>
            <path d="M135.459111,81.4067695 L158.160266,81.4067695 L158.160266,70.783719 L135.459111,70.783719 L135.459111,81.4067695 Z M134.995349,81.8763287 L158.629825,81.8763287 L158.629825,70.3170584 L134.995349,70.3170584 L134.995349,81.8763287 Z" id="Fill-80" fill="#945315"></path>
            <polygon id="Fill-81" fill="#BF6628" points="135.22723 92.6587974 158.395046 92.6587974 158.395046 81.5690863 135.22723 81.5690863"></polygon>
            <path d="M135.459111,92.4240179 L158.160266,92.4240179 L158.160266,81.8009673 L135.459111,81.8009673 L135.459111,92.4240179 Z M134.995349,92.893577 L158.629825,92.893577 L158.629825,81.3343067 L134.995349,81.3343067 L134.995349,92.893577 Z" id="Fill-82" fill="#945315"></path>
            <polygon id="Fill-83" fill="#BF6628" points="135.22723 48.5869056 158.395046 48.5869056 158.395046 37.4971945 135.22723 37.4971945"></polygon>
            <path d="M135.459111,48.3521261 L158.160266,48.3521261 L158.160266,37.7290755 L135.459111,37.7290755 L135.459111,48.3521261 Z M134.995349,48.8187867 L158.629825,48.8187867 L158.629825,37.2624149 L134.995349,37.2624149 L134.995349,48.8187867 Z" id="Fill-84" fill="#945315"></path>
            <polygon id="Fill-85" fill="#AA5D26" points="158.461711 59.604154 181.629527 59.604154 181.629527 48.5144428 158.461711 48.5144428"></polygon>
            <path d="M158.226932,59.8389335 L181.864306,59.8389335 L181.864306,48.2796633 L158.226932,48.2796633 L158.226932,59.8389335 Z M158.696491,59.3722729 L181.394747,59.3722729 L181.394747,48.7492224 L158.696491,48.7492224 L158.696491,59.3722729 Z" id="Fill-86" fill="#945315"></path>
            <polygon id="Fill-87" fill="#BF6628" points="158.461711 70.6214023 181.629527 70.6214023 181.629527 59.5316911 158.461711 59.5316911"></polygon>
            <path d="M158.226932,70.8561818 L181.864306,70.8561818 L181.864306,59.2969116 L158.226932,59.2969116 L158.226932,70.8561818 Z M158.696491,70.3866227 L181.394747,70.3866227 L181.394747,59.7664707 L158.696491,59.7664707 L158.696491,70.3866227 Z" id="Fill-88" fill="#945315"></path>
            <polygon id="Fill-89" fill="#BF6628" points="158.461711 81.6415491 181.629527 81.6415491 181.629527 70.5489394 158.461711 70.5489394"></polygon>
            <path d="M158.226932,81.8734301 L181.864306,81.8734301 L181.864306,70.3170584 L158.226932,70.3170584 L158.226932,81.8734301 Z M158.696491,81.4067695 L181.394747,81.4067695 L181.394747,70.783719 L158.696491,70.783719 L158.696491,81.4067695 Z" id="Fill-90" fill="#945315"></path>
            <polygon id="Fill-91" fill="#C77125" points="158.461711 92.6558989 181.629527 92.6558989 181.629527 81.5661878 158.461711 81.5661878"></polygon>
            <path d="M158.226932,92.8906785 L181.864306,92.8906785 L181.864306,81.3314082 L158.226932,81.3314082 L158.226932,92.8906785 Z M158.696491,92.4269164 L181.394747,92.4269164 L181.394747,81.8038658 L158.696491,81.8038658 L158.696491,92.4269164 Z" id="Fill-92" fill="#945315"></path>
            <polygon id="Fill-93" fill="#C77125" points="158.461711 48.5869056 181.629527 48.5869056 181.629527 37.494296 158.461711 37.494296"></polygon>
            <path d="M158.226932,48.8187867 L181.864306,48.8187867 L181.864306,37.2624149 L158.226932,37.2624149 L158.226932,48.8187867 Z M158.696491,48.3521261 L181.394747,48.3521261 L181.394747,37.7290755 L158.696491,37.7290755 L158.696491,48.3521261 Z" id="Fill-94" fill="#945315"></path>
            <polygon id="Fill-95" fill="#AA5D26" points="23.5011443 59.604154 46.6689595 59.604154 46.6689595 48.5144428 23.5011443 48.5144428"></polygon>
            <path d="M23.7359238,59.3693744 L46.4370785,59.3693744 L46.4370785,48.7463239 L23.7359238,48.7463239 L23.7359238,59.3693744 Z M23.2692632,59.8389335 L46.9037391,59.8389335 L46.9037391,48.2796633 L23.2692632,48.2796633 L23.2692632,59.8389335 Z" id="Fill-96" fill="#945315"></path>
            <polygon id="Fill-97" fill="#BF6628" points="23.5011443 70.6214023 46.6689595 70.6214023 46.6689595 59.5316911 23.5011443 59.5316911"></polygon>
            <path d="M23.7359238,70.3866227 L46.4370785,70.3866227 L46.4370785,59.7635722 L23.7359238,59.7635722 L23.7359238,70.3866227 Z M23.2692632,70.8561818 L46.9037391,70.8561818 L46.9037391,59.2969116 L23.2692632,59.2969116 L23.2692632,70.8561818 Z" id="Fill-98" fill="#945315"></path>
            <polygon id="Fill-99" fill="#BF6628" points="23.5011443 81.6386506 46.6689595 81.6386506 46.6689595 70.5489394 23.5011443 70.5489394"></polygon>
            <path d="M23.7359238,81.4067695 L46.4370785,81.4067695 L46.4370785,70.783719 L23.7359238,70.783719 L23.7359238,81.4067695 Z M23.2692632,81.8763287 L46.9037391,81.8763287 L46.9037391,70.3170584 L23.2692632,70.3170584 L23.2692632,81.8763287 Z" id="Fill-100" fill="#945315"></path>
            <polygon id="Fill-101" fill="#C77125" points="23.5011443 92.6587974 46.6689595 92.6587974 46.6689595 81.5690863 23.5011443 81.5690863"></polygon>
            <path d="M23.7359238,92.4240179 L46.4370785,92.4240179 L46.4370785,81.8009673 L23.7359238,81.8009673 L23.7359238,92.4240179 Z M23.2692632,92.893577 L46.9037391,92.893577 L46.9037391,81.3343067 L23.2692632,81.3343067 L23.2692632,92.893577 Z" id="Fill-102" fill="#945315"></path>
            <polygon id="Fill-103" fill="#C77125" points="23.5011443 48.5869056 46.6689595 48.5869056 46.6689595 37.4971945 23.5011443 37.4971945"></polygon>
            <path d="M23.7359238,48.3521261 L46.4370785,48.3521261 L46.4370785,37.7290755 L23.7359238,37.7290755 L23.7359238,48.3521261 Z M23.2692632,48.8187867 L46.9037391,48.8187867 L46.9037391,37.2624149 L23.2692632,37.2624149 L23.2692632,48.8187867 Z" id="Fill-104" fill="#945315"></path>
            <polygon id="Fill-105" fill="#BF6628" points="0.234779562 59.604154 23.4025948 59.604154 23.4025948 48.5144428 0.234779562 48.5144428"></polygon>
            <path d="M0,59.8389335 L23.6344759,59.8389335 L23.6344759,48.2796633 L0,48.2796633 L0,59.8389335 Z M0.46666061,59.3722729 L23.1678153,59.3722729 L23.1678153,48.7492224 L0.46666061,48.7492224 L0.46666061,59.3722729 Z" id="Fill-106" fill="#945315"></path>
            <polygon id="Fill-107" fill="#C77125" points="0.234779562 70.6214023 23.4025948 70.6214023 23.4025948 59.5316911 0.234779562 59.5316911"></polygon>
            <path d="M0,70.8561818 L23.6344759,70.8561818 L23.6344759,59.2969116 L0,59.2969116 L0,70.8561818 Z M0.46666061,70.3866227 L23.1678153,70.3866227 L23.1678153,59.7664707 L0.46666061,59.7664707 L0.46666061,70.3866227 Z" id="Fill-108" fill="#945315"></path>
            <polygon id="Fill-109" fill="#AA5D26" points="0.234779562 81.6415491 23.4025948 81.6415491 23.4025948 70.5489394 0.234779562 70.5489394"></polygon>
            <path d="M0,81.8734301 L23.6344759,81.8734301 L23.6344759,70.3170584 L0,70.3170584 L0,81.8734301 Z M0.46666061,81.4067695 L23.1678153,81.4067695 L23.1678153,70.783719 L0.46666061,70.783719 L0.46666061,81.4067695 Z" id="Fill-110" fill="#945315"></path>
            <polygon id="Fill-111" fill="#D88341" points="0.234779562 92.6558989 23.4025948 92.6558989 23.4025948 81.5661878 0.234779562 81.5661878"></polygon>
            <path d="M0,92.8906785 L23.6344759,92.8906785 L23.6344759,81.3314082 L0,81.3314082 L0,92.8906785 Z M0.46666061,92.4269164 L23.1678153,92.4269164 L23.1678153,81.8038658 L0.46666061,81.8038658 L0.46666061,92.4269164 Z" id="Fill-112" fill="#945315"></path>
            <polygon id="Fill-113" fill="#D88341" points="0.234779562 48.5869056 23.4025948 48.5869056 23.4025948 37.494296 0.234779562 37.494296"></polygon>
            <path d="M0,48.8187867 L23.6344759,48.8187867 L23.6344759,37.2624149 L0,37.2624149 L0,48.8187867 Z M0.46666061,48.3521261 L23.1678153,48.3521261 L23.1678153,37.7290755 L0.46666061,37.7290755 L0.46666061,48.3521261 Z" id="Fill-114" fill="#945315"></path>
            <polygon id="Fill-115" fill="#C77125" points="46.880551 48.5869056 64.578872 48.5869056 64.578872 37.4971945 46.880551 37.4971945"></polygon>
            <path d="M47.112432,48.3521261 L64.3440924,48.3521261 L64.3440924,37.7290755 L47.112432,37.7290755 L47.112432,48.3521261 Z M46.6457714,48.8187867 L64.8136516,48.8187867 L64.8136516,37.2624149 L46.6457714,37.2624149 L46.6457714,48.8187867 Z" id="Fill-116" fill="#945315"></path>
            <polygon id="Fill-117" fill="#AA5D26" points="46.880551 59.604154 64.578872 59.604154 64.578872 48.5144428 46.880551 48.5144428"></polygon>
            <path d="M47.112432,59.3693744 L64.3440924,59.3693744 L64.3440924,48.7463239 L47.112432,48.7463239 L47.112432,59.3693744 Z M46.6457714,59.8389335 L64.8136516,59.8389335 L64.8136516,48.2796633 L46.6457714,48.2796633 L46.6457714,59.8389335 Z" id="Fill-118" fill="#945315"></path>
            <polygon id="Fill-119" fill="#B86928" points="46.880551 70.6214023 64.578872 70.6214023 64.578872 59.5316911 46.880551 59.5316911"></polygon>
            <path d="M47.112432,70.3866227 L64.3440924,70.3866227 L64.3440924,59.7635722 L47.112432,59.7635722 L47.112432,70.3866227 Z M46.6457714,70.8561818 L64.8136516,70.8561818 L64.8136516,59.2969116 L46.6457714,59.2969116 L46.6457714,70.8561818 Z" id="Fill-120" fill="#945315"></path>
            <polygon id="Fill-121" fill="#D88341" points="46.880551 81.6386506 64.578872 81.6386506 64.578872 70.5489394 46.880551 70.5489394"></polygon>
            <path d="M47.112432,81.4067695 L64.3440924,81.4067695 L64.3440924,70.783719 L47.112432,70.783719 L47.112432,81.4067695 Z M46.6457714,81.8763287 L64.8136516,81.8763287 L64.8136516,70.3170584 L46.6457714,70.3170584 L46.6457714,81.8763287 Z" id="Fill-122" fill="#945315"></path>
            <polygon id="Fill-123" fill="#C77125" points="64.5904661 48.5869056 91.2046134 48.5869056 91.2046134 37.4971945 64.5904661 37.4971945"></polygon>
            <path d="M64.8252456,48.3521261 L90.9727323,48.3521261 L90.9727323,37.7290755 L64.8252456,37.7290755 L64.8252456,48.3521261 Z M64.3556865,48.8187867 L91.439393,48.8187867 L91.439393,37.2624149 L64.3556865,37.2624149 L64.3556865,48.8187867 Z" id="Fill-124" fill="#945315"></path>
            <polygon id="Fill-125" fill="#D88341" points="64.5904661 59.604154 91.2046134 59.604154 91.2046134 48.5144428 64.5904661 48.5144428"></polygon>
            <path d="M64.8252456,59.3693744 L90.9727323,59.3693744 L90.9727323,48.7463239 L64.8252456,48.7463239 L64.8252456,59.3693744 Z M64.3556865,59.8389335 L91.439393,59.8389335 L91.439393,48.2796633 L64.3556865,48.2796633 L64.3556865,59.8389335 Z" id="Fill-126" fill="#945315"></path>
            <polygon id="Fill-127" fill="#B86928" points="64.5904661 70.6214023 91.2046134 70.6214023 91.2046134 59.5316911 64.5904661 59.5316911"></polygon>
            <path d="M64.8252456,70.3866227 L90.9727323,70.3866227 L90.9727323,59.7635722 L64.8252456,59.7635722 L64.8252456,70.3866227 Z M64.3556865,70.8561818 L91.439393,70.8561818 L91.439393,59.2969116 L64.3556865,59.2969116 L64.3556865,70.8561818 Z" id="Fill-128" fill="#945315"></path>
            <polygon id="Fill-129" fill="#C77125" points="64.5904661 37.5116871 91.2046134 37.5116871 91.2046134 33.1581204 64.5904661 33.1581204"></polygon>
            <path d="M64.8252456,37.279806 L90.9727323,37.279806 L90.9727323,33.3928999 L64.8252456,33.3928999 L64.8252456,37.279806 Z M64.3556865,37.7493651 L91.439393,37.7493651 L91.439393,32.9262393 L64.3556865,32.9262393 L64.3556865,37.7493651 Z" id="Fill-130" fill="#945315"></path>
            <polygon id="Fill-131" fill="#C77125" points="46.8718554 37.5116871 64.578872 37.5116871 64.578872 33.1581204 46.8718554 33.1581204"></polygon>
            <path d="M47.1037365,37.279806 L64.3440924,37.279806 L64.3440924,33.3928999 L47.1037365,33.3928999 L47.1037365,37.279806 Z M46.6370759,37.7493651 L64.8136516,37.7493651 L64.8136516,32.9262393 L46.6370759,32.9262393 L46.6370759,37.7493651 Z" id="Fill-132" fill="#945315"></path>
            <polygon id="Fill-133" fill="#C77125" points="64.5904661 81.6386506 91.2046134 81.6386506 91.2046134 70.5489394 64.5904661 70.5489394"></polygon>
            <path d="M64.8252456,81.4067695 L90.9727323,81.4067695 L90.9727323,70.783719 L64.8252456,70.783719 L64.8252456,81.4067695 Z M64.3556865,81.8763287 L91.439393,81.8763287 L91.439393,70.3170584 L64.3556865,70.3170584 L64.3556865,81.8763287 Z" id="Fill-134" fill="#945315"></path>
            <polygon id="Fill-135" fill="#D88341" points="64.5904661 92.6587974 91.2046134 92.6587974 91.2046134 81.5690863 64.5904661 81.5690863"></polygon>
            <path d="M64.8252456,92.4240179 L90.9727323,92.4240179 L90.9727323,81.8009673 L64.8252456,81.8009673 L64.8252456,92.4240179 Z M64.3556865,92.893577 L91.439393,92.893577 L91.439393,81.3343067 L64.3556865,81.3343067 L64.3556865,92.893577 Z" id="Fill-136" fill="#945315"></path>
            <polygon id="Fill-137" fill="#C77125" points="64.5904661 103.676046 91.2046134 103.676046 91.2046134 92.5863346 64.5904661 92.5863346"></polygon>
            <path d="M64.8252456,103.441266 L90.9727323,103.441266 L90.9727323,92.8182156 L64.8252456,92.8182156 L64.8252456,103.441266 Z M64.3556865,103.910825 L91.439393,103.910825 L91.439393,92.351555 L64.3556865,92.351555 L64.3556865,103.910825 Z" id="Fill-138" fill="#945315"></path>
            <polygon id="Fill-139" fill="#C77125" points="45.4324538 31.3251007 46.913594 32.8033424 77.9073947 1.81244025 76.4262545 0.331300048"></polygon>
            <path d="M76.4259646,0.000289851311 L45.1017335,31.324521 L46.9133042,33.1360917 L78.2375353,1.81475906 L76.4259646,0.000289851311 Z M45.7625945,31.324521 L76.4259646,0.664049353 L77.5766743,1.81475906 L46.9133042,32.4723322 L45.7625945,31.324521 Z" id="Fill-140" fill="#945315"></path>
            <polygon id="Fill-141" fill="#C77125" points="42.4872747 198.415106 33.7482576 203.458519 28.7019463 212.197536 28.7019463 222.28726 33.7482576 231.026277 42.4872747 236.06969 52.5769988 236.06969 61.3160158 231.026277 66.3594286 222.28726 66.3594286 212.197536 61.3160158 203.458519 52.5769988 198.415106"></polygon>
            <path d="M42.4246668,198.180326 L33.5784048,203.287507 L28.4712247,212.133769 L28.4712247,222.351027 L33.5784048,231.194391 L42.4246668,236.304469 L52.639027,236.304469 L61.485289,231.194391 L66.5953676,222.351027 L66.5953676,212.133769 L61.485289,203.287507 L52.639027,198.180326 L42.4246668,198.180326 Z M33.9204293,230.855265 L28.9378853,222.223493 L28.9378853,212.258405 L33.9204293,203.629531 L42.5493028,198.646987 L52.5143909,198.646987 L61.1432644,203.629531 L66.1258084,212.258405 L66.1258084,222.223493 L61.1432644,230.855265 L52.5143909,235.837809 L42.5493028,235.837809 L33.9204293,230.855265 Z" id="Fill-142" fill="#945315"></path>
            <polygon id="Fill-143" fill="#AA5D26" points="45.880564 223.408695 43.016833 221.756542 41.3646805 218.892811 41.3646805 215.588506 43.016833 212.727674 45.880564 211.075521 49.1848689 211.075521 52.0485998 212.727674 53.6978538 215.588506 53.6978538 218.892811 52.0485998 221.756542 49.1848689 223.408695"></polygon>
            <path d="M49.1219712,211.308852 L51.8755586,212.897237 L53.4639438,215.650824 L53.4639438,218.830493 L51.8755586,221.584081 L49.1219712,223.175364 L45.9423023,223.175364 L43.1887148,221.584081 L41.6003296,218.830493 L41.6003296,215.650824 L43.1887148,212.897237 L45.9423023,211.308852 L49.1219712,211.308852 Z M49.2466072,210.842191 L45.8176662,210.842191 L42.8466903,212.555212 L41.1307705,215.526188 L41.1307705,218.955129 L42.8466903,221.926105 L45.8176662,223.642025 L49.2466072,223.642025 L52.2175832,221.926105 L53.9335029,218.955129 L53.9335029,215.526188 L52.2175832,212.555212 L49.2466072,210.842191 Z" id="Fill-144" fill="#945315"></path>
            <polygon id="Fill-145" fill="#D88341" points="130.409612 198.415106 121.670595 203.458519 116.624283 212.197536 116.624283 222.28726 121.670595 231.026277 130.409612 236.06969 140.496437 236.06969 149.235454 231.026277 154.281766 222.28726 154.281766 212.197536 149.235454 203.458519 140.496437 198.415106"></polygon>
            <path d="M130.344395,198.180326 L121.498133,203.287507 L116.390953,212.133769 L116.390953,222.351027 L121.498133,231.194391 L130.344395,236.304469 L140.561654,236.304469 L149.407916,231.194391 L154.515096,222.351027 L154.515096,212.133769 L149.407916,203.287507 L140.561654,198.180326 L130.344395,198.180326 Z M121.843056,230.855265 L116.860512,222.223493 L116.860512,212.258405 L121.843056,203.629531 L130.47193,198.646987 L140.434119,198.646987 L149.062993,203.629531 L154.045537,212.258405 L154.045537,222.223493 L149.062993,230.855265 L140.434119,235.837809 L130.47193,235.837809 L121.843056,230.855265 Z" id="Fill-146" fill="#945315"></path>
            <polygon id="Fill-147" fill="#AA5D26" points="133.801742 223.408695 130.938011 221.756542 129.288757 218.892811 129.288757 215.588506 130.938011 212.727674 133.801742 211.075521 137.106047 211.075521 139.966879 212.727674 141.62193 215.588506 141.62193 218.892811 139.966879 221.756542 137.106047 223.408695"></polygon>
            <path d="M137.043149,211.308852 L139.796736,212.897237 L141.385122,215.650824 L141.385122,218.830493 L139.796736,221.584081 L137.043149,223.175364 L133.86348,223.175364 L131.109893,221.584081 L129.521507,218.830493 L129.521507,215.650824 L131.109893,212.897237 L133.86348,211.308852 L137.043149,211.308852 Z M137.167785,210.842191 L133.738844,210.842191 L130.767868,212.555212 L129.051948,215.526188 L129.051948,218.955129 L130.767868,221.926105 L133.738844,223.642025 L137.167785,223.642025 L140.138761,221.926105 L141.854681,218.955129 L141.854681,215.526188 L140.138761,212.555212 L137.167785,210.842191 Z" id="Fill-148" fill="#945315"></path>
        </g>
    </g>
</svg>