<?xml version="1.0" encoding="UTF-8"?>
<svg width="300px" height="300px" viewBox="0 0 300 300" version="1.1" xmlns="http://www.w3.org/2000/svg" xmlns:xlink="http://www.w3.org/1999/xlink">
    <!-- Generator: Sketch 51.3 (57544) - http://www.bohemiancoding.com/sketch -->
    <title>Character/Assassin</title>
    <desc>Created with Sketch.</desc>
    <defs>
        <polygon id="path-1" points="5.68509966e-20 0.717880911 5.68509966e-20 237.708072 203.96711 237.708072 203.96711 0.717880911"></polygon>
    </defs>
    <g id="Character/Assassin" stroke="none" stroke-width="1" fill="none" fill-rule="evenodd">
        <g id="Page-1" transform="translate(58.000000, 30.500000)">
            <path d="M32.6553316,221.592749 C32.6301624,221.550801 32.6105864,221.517242 32.5854172,221.475293 C32.6105864,221.550801 32.632959,221.58436 32.6553316,221.592749" id="Fill-1" fill="#9013FE"></path>
            <path d="M105.338606,12.9875191 C105.517587,12.9875191 105.649026,13.0098917 105.741313,13.0546369 C105.769279,13.0126882 105.64623,12.9875191 105.338606,12.9875191" id="Fill-3" fill="#9013FE"></path>
            <g id="Group-7" transform="translate(0.000000, 0.325465)">
                <mask id="mask-2" fill="white">
                    <use xlink:href="#path-1"></use>
                </mask>
                <g id="Clip-6"></g>
                <path d="M203.96711,148.634348 C196.791097,148.483333 189.578729,148.07783 182.402717,148.1841 C176.801176,148.2652 163.380411,151.458889 159.666559,147.543684 C167.916456,145.720317 190.736512,151.279909 197.039993,144.822616 C188.829247,137.663383 172.684617,141.578588 162.17229,141.659689 C164.255739,140.169114 168.310773,139.48675 171.753358,138.958197 C162.342881,138.194732 151.321578,139.990134 142.562703,136.614667 C143.127612,136.983815 143.69252,137.352963 144.257428,137.722111 C142.77804,140.31174 140.907131,135.837219 140.53239,135.372988 C142.05093,133.818092 165.514198,134.111732 165.637247,134.318679 C166.218935,131.829727 175.095265,132.777766 178.568612,132.450566 C171.199636,127.632067 154.042645,129.477807 145.222247,129.354757 C136.818537,129.234505 128.392456,129.67916 119.997136,130.258051 L119.997136,128.580106 C120.176117,128.761883 120.268404,129.033151 120.268404,129.393909 L120.268404,127.805454 C121.613557,127.570542 122.967099,127.394358 124.337421,127.304867 C123.484466,127.32724 121.859655,127.391561 120.268404,127.360799 L120.268404,126.135899 L120.539672,126.678435 C121.319916,121.613836 124.348608,112.161412 123.255147,106.590633 C125.154021,98.0107399 126.994168,89.374915 128.957364,80.8006147 C127.687719,82.9735538 126.784425,84.6934477 126.241889,85.9574998 C126.241889,83.683884 126.941033,76.2981283 128.957364,74.284594 C130.062011,67.9056055 129.905403,56.6382031 133.300446,51.2100502 C130.101163,48.1058515 131.572162,49.6691371 130.313703,44.6940294 C130.313703,43.214641 127.721278,42.5434629 129.771167,41.1647513 C130.131926,39.7189218 129.676084,37.9095375 128.412032,35.7365984 C127.505941,35.9211723 127.234673,36.0078662 127.598228,36.0078662 C125.553932,36.0078662 126.015367,38.7233409 123.526414,38.7233409 C124.611486,36.7349758 124.790467,34.5620367 124.06895,32.2073202 C126.784425,27.5034803 128.140764,25.3305412 128.140764,25.694096 L128.140764,24.6062282 C127.234673,24.6062282 126.42087,24.2482665 125.699354,23.5211569 C125.699354,22.6178631 125.517576,21.985837 125.156818,21.6222822 C123.526414,21.985837 122.259566,21.985837 121.356272,21.6222822 C124.06895,17.276404 125.428086,15.3775293 125.428086,15.9200649 C125.428086,15.5593067 125.246308,15.1985485 124.88555,14.8349937 C123.797682,15.7410841 122.712611,16.4626005 121.62754,17.0051362 C120.539672,18.8173171 119.454601,20.0869623 118.369529,20.8056822 C117.351576,20.8056822 121.065428,15.7998122 119.725868,16.4626005 C119.904849,15.1985485 119.815359,14.0211902 119.454601,12.9333224 C118.730288,13.1178963 118.274446,13.1178963 118.098262,12.9333224 C119.015538,11.6217285 129.259394,0.717880911 122.441343,0.717880911 C117.357169,0.717880911 117.94445,9.3676887 114.840251,11.8482511 C114.034837,9.45717911 107.781695,11.1435141 107.781695,11.3057155 C107.398564,12.455108 106.766538,12.9976436 105.88282,12.9333224 C105.88282,12.8438319 105.832482,12.7767141 105.740195,12.7291724 C105.673077,12.8410354 104.554447,13.087134 102.350745,13.475858 L100.451871,17.0051362 C100.180603,16.8233588 99.909335,16.6443779 99.6380671,16.4626005 C99.817048,16.4626005 99.2717158,16.9156458 98.0104602,17.8189396 L98.0104602,17.276404 C100.723138,11.6692703 103.167345,7.68694687 105.337488,5.33223036 L105.337488,3.97589128 C104.973933,3.97589128 104.613175,3.88640087 104.252417,3.70462346 C81.5106652,34.9703367 62.2450572,78.4906434 49.1458979,115.005529 L61.6326071,86.502832 C61.811588,86.8663868 61.811588,87.7696807 61.6326071,89.2155102 L72.2204417,67.2260376 C69.7874211,75.1291598 65.3604422,82.7526244 61.6326071,90.3005815 C61.4508297,91.3884493 61.3613393,92.2022527 61.3613393,92.7447884 C60.0916941,94.3723953 59.459668,95.2812823 59.459668,95.4602631 C59.8204263,95.4602631 60.0050002,95.6420405 60.0050002,96.0027987 C58.3745968,98.5392927 57.1077481,100.712232 56.2044542,102.518819 L56.7469899,103.603891 C55.1165864,103.970242 54.6635412,104.963026 55.3878542,106.590633 C54.6635412,107.857482 54.1210055,108.760776 53.7602473,109.303311 C53.7602473,108.581795 53.5784699,109.669663 53.2177117,112.564118 C52.8513603,113.106654 52.4039082,113.470209 51.858576,113.64919 C49.8646177,118.266336 47.4092245,128.331211 44.4196854,135.540782 C35.1490379,137.389318 25.8392383,138.664557 25.366617,135.744932 C22.7462259,136.933477 22.3966539,138.398882 24.3206978,140.138352 C23.0258834,140.071234 20.7970128,139.481157 21.3675142,141.737993 C14.1859085,136.544753 3.95044244,152.896329 2.81223625,157.423985 C2.1913965,159.893361 -0.152133703,167.673434 0.0072710961,169.245109 C0.127523839,170.439247 4.47340205,180.46497 4.33916643,180.277599 C5.92482469,182.495283 15.5730099,186.919466 22.2036902,188.748426 C20.4698135,194.263273 18.8086477,199.817272 17.1111264,205.404829 C17.8326428,204.862294 18.3751785,204.498739 18.7415299,204.319758 C20.2181217,199.325074 21.9827608,194.556913 23.6271471,189.66011 C23.9879054,189.66011 24.1696828,189.752397 24.1696828,189.931378 C20.9116724,201.514793 19.2840655,206.489901 19.2840655,204.862294 L19.2840655,206.761168 C19.6448237,206.761168 20.005582,207.032436 20.3691368,207.574972 C20.5481176,207.032436 20.9116724,206.668881 21.454208,206.489901 L21.9967437,207.032436 L20.6404046,208.391572 C20.4586272,208.02522 20.1873594,207.84624 19.8266011,207.84624 C19.932871,210.248498 20.2936292,212.600418 20.9116724,214.904796 C18.7415299,220.153968 17.653662,223.227404 17.653662,224.136292 L18.1989942,225.492631 L19.0127977,225.221363 C21.1829402,220.51193 22.7182601,216.982652 23.6271471,214.633528 C24.3486636,214.090993 24.9834862,213.724641 25.5260218,213.548457 C27.1564253,212.463386 27.8779418,211.92085 27.6989609,211.92085 C30.9010398,212.919227 30.9010398,214.818102 27.6989609,217.620271 C27.6989609,218.719325 24.2703595,223.048424 28.2414966,223.048424 C30.0480843,220.335746 31.40722,218.252297 32.3133104,216.806467 L32.855846,217.620271 C32.855846,220.10363 32.7859316,221.314547 32.6544926,221.267005 C33.2333837,222.270976 33.7563433,223.031644 34.2177783,223.56579 C34.0360009,223.923752 33.9437139,225.814237 33.9437139,229.293177 C34.3044721,229.653935 34.6652303,229.925203 35.0287851,230.10698 C38.2839989,226.303637 39.508899,219.740075 41.2707415,215.176064 C42.9766525,218.16001 42.2523394,221.054465 39.1005989,223.862227 L40.1856702,224.678827 L41.2707415,224.678827 C45.9214464,220.492354 49.1458979,212.220084 49.1458979,205.947365 C50.9944342,199.590749 52.6388206,185.314231 61.6326071,185.314231 C61.4508297,185.314231 61.9038749,185.951851 62.9889462,187.215903 C65.0807846,186.4832 86.5165353,176.851794 89.864036,180.157346 C89.864036,182.126135 90.1912354,221.149549 94.4811821,221.149549 C94.4811821,219.698126 94.6573663,218.794832 95.0237177,218.434074 C95.5662533,219.158387 96.108789,219.8827 96.6513246,220.607013 C96.108789,220.967772 95.7452342,221.510307 95.5662533,222.23462 C96.7156458,223.372826 97.8930041,223.644094 99.0955315,223.048424 C100.116282,222.821901 100.930085,223.185456 101.536942,224.136292 C101.536942,223.593756 101.811006,223.048424 102.350745,222.505888 C102.529726,222.866646 102.7143,223.319691 102.896078,223.862227 C102.168968,224.225782 101.536942,224.407559 100.994406,224.407559 C101.411096,226.197368 102.31439,227.735484 103.709881,229.021909 C103.888862,230.10698 103.981149,230.920783 103.981149,231.463319 C104.411821,231.354253 108.052963,229.763001 108.052963,230.378248 C108.052963,231.675859 106.819673,237.708072 109.683366,237.708072 C109.317015,237.708072 110.49717,237.344517 113.209848,236.623001 L113.209848,235.266662 C111.400463,230.920783 110.402086,227.75506 110.225902,225.763898 C112.060455,227.290829 118.870116,229.749018 117.284458,223.319691 C118.730288,222.23462 119.904849,221.510307 120.81094,221.149549 C120.626366,218.903899 119.991543,216.82045 118.912065,214.904796 C119.091046,213.635151 119.272823,212.63957 119.454601,211.92085 C118.649187,199.515241 117.53615,187.159971 117.010394,174.729193 C122.983879,173.641326 127.416451,172.827522 130.313703,172.284987 C131.946903,169.885525 134.209333,168.708167 137.100992,168.755708 C142.959817,164.854486 153.502906,164.110597 160.446803,162.242484 C159.621813,162.457821 159.082074,162.099859 158.827586,161.176989 C163.791507,160.902925 168.780598,160.687588 173.836806,160.575725 C166.683166,158.688037 156.134484,161.025974 149.470245,158.458718 C149.461855,158.100756 149.453465,157.742794 149.442279,157.384833 C151.794199,156.736027 153.933579,156.140357 155.879995,155.595024 C155.812878,155.815954 155.756946,156.04807 155.73737,156.308151 C162.398813,157.826692 175.716105,159.076761 180.968074,153.698946 C176.513129,153.701743 171.378616,153.771657 167.27604,152.482436 C172.667838,152.236337 178.266582,152.426504 183.613634,151.73575 C186.424192,151.374992 201.520106,151.934307 203.96711,148.634348 Z M161.35569,141.346473 C161.271793,141.287745 161.277386,141.290541 161.35569,141.346473 Z M62.1751428,86.2287676 L61.6326071,85.9574998 L63.260214,82.9735538 L63.8055462,82.9735538 L62.1751428,86.2287676 Z M64.3480819,81.6144182 L64.8906175,81.6144182 L64.8906175,80.5293469 L64.3480819,80.5293469 L64.3480819,81.6144182 Z M97.7363959,117.992271 L96.6317486,127.729947 C96.0752301,127.729947 95.5410841,127.729947 95.0265143,127.729947 C95.2837992,125.57938 95.7704033,123.549067 96.6513246,121.792817 C95.5103218,119.351407 95.8738766,118.084558 97.7363959,117.992271 Z M139.598333,137.752873 C139.335455,137.333387 138.700633,137.45364 138.725802,136.276281 C139.145288,136.430093 139.17605,137.081695 139.598333,137.752873 Z M117.779452,130.411863 C117.055139,130.462201 116.328029,130.509743 115.603716,130.562878 C115.416346,130.07907 115.293296,129.58128 115.234568,129.069507 C115.237365,129.061117 115.237365,129.052727 115.240161,129.044337 C116.174218,128.742307 117.11946,128.490615 118.067499,128.264093 C117.969619,128.971626 117.877332,129.695939 117.779452,130.411863 Z M124.611486,90.5718493 L125.154021,90.5718493 L125.154021,89.486778 L124.611486,89.486778 L124.611486,90.5718493 Z M123.526414,95.4602631 L124.06895,95.4602631 L124.06895,94.103924 L123.526414,94.103924 L123.526414,95.4602631 Z M121.62754,103.332623 C121.445762,102.971865 121.171698,102.611106 120.81094,102.247552 C122.441343,99.8984283 123.434127,97.8149796 123.797682,96.0027987 C121.649912,105.606239 119.787393,116.020686 118.204531,127.246139 C117.080308,127.13148 116.227353,126.91055 116.042779,126.521826 C116.386757,125.8087 116.792261,125.215826 117.284458,124.77956 C118.54851,118.084558 119.997136,110.933715 121.62754,103.332623 Z M95.2949855,22.4360857 L95.8375211,22.4360857 L95.0237177,24.6062282 L94.4811821,24.3349604 L95.2949855,22.4360857 Z M93.664582,25.1487638 L94.2099142,25.1487638 L93.9358499,26.7791673 L93.3933142,26.5078995 L93.664582,25.1487638 Z M79.2789981,115.548064 L94.2099142,82.9735538 C94.5706725,83.1553313 94.8419403,83.4265991 95.0237177,83.7873573 C97.1938602,77.6348914 99.0955315,73.1995227 100.723138,70.484048 C98.8298568,87.4145156 94.7160944,104.53515 92.308243,121.521549 C91.9446881,122.245863 91.6706238,122.877889 91.4944395,123.420424 C91.8691806,125.017269 91.9698573,126.465895 91.807656,127.769099 C91.0469874,127.791472 90.417758,127.827827 89.9842888,127.880962 C84.7854551,128.526971 78.5686679,129.651194 72.7238253,130.551692 L78.7336658,115.276797 L79.2789981,115.548064 Z M77.6485946,55.5531318 L78.1911302,55.8243996 L77.6485946,56.9122675 L77.106059,56.6409997 L77.6485946,55.5531318 Z M76.8347911,57.7260709 L77.3773268,57.7260709 L77.3773268,56.9122675 L76.8347911,56.9122675 L76.8347911,57.7260709 Z M76.5635233,57.9973387 L77.106059,57.9973387 L76.5635233,59.3564744 L76.0209877,59.08241 L76.5635233,57.9973387 Z M75.4784521,60.4387491 L76.0209877,60.4387491 L74.3905842,63.1542238 L73.8480486,63.1542238 L75.4784521,60.4387491 Z M73.5767808,63.699556 L74.1193164,63.699556 L72.7629773,67.2260376 L72.2204417,66.9547698 L73.5767808,63.699556 Z M109.954634,183.415357 L110.49717,181.784953 C110.57827,182.274354 110.757251,182.727399 111.039705,183.144089 C110.673354,183.325866 110.312596,183.415357 109.954634,183.415357 Z M112.396044,184.500428 L112.93858,184.500428 L112.93858,175.542997 L112.396044,175.542997 L112.396044,184.500428 Z M113.483912,207.84624 L114.026448,207.84624 L114.026448,203.774426 L113.483912,203.774426 L113.483912,207.84624 Z M115.111519,218.97661 L114.568983,218.97661 L114.840251,217.620271 L115.382787,217.620271 L115.111519,218.97661 Z M115.925322,206.761168 L115.111519,206.489901 C114.929742,205.581014 114.929742,202.239106 115.111519,196.444602 L115.654055,196.444602 C116.014813,197.714247 116.104303,201.154035 115.925322,206.761168 Z M129.771167,171.199915 L128.686096,170.65738 L128.686096,170.112047 L130.042435,170.65738 L129.771167,171.199915 Z M155.961096,161.336394 C149.884138,162.004775 142.845157,164.412627 136.558456,164.412627 C135.618807,163.49535 130.856239,166.504465 130.856239,164.412627 C133.431885,163.716279 135.568468,163.145778 137.285565,162.689936 C143.533115,162.18096 149.733123,161.711135 155.961096,161.336394 Z M163.276937,151.903545 C163.950912,152.166423 164.403957,152.647434 164.647259,153.346578 C163.567781,153.201156 163.780321,152.759297 163.276937,151.903545 Z" id="Fill-5" fill="#E84F35" mask="url(#mask-2)"></path>
            </g>
            <path d="M53.454302,168.625611 C49.3657087,168.653577 46.8068422,166.343605 44.3850079,163.739994 C42.4218119,161.631376 41.4877557,159.024967 41.110218,156.127715 C40.7131043,153.076651 43.5767976,150.6688 46.9438744,151.096676 C50.6353539,151.563704 53.9856513,153.02072 57.3079829,154.581209 C60.7226015,156.186443 64.1204406,157.825236 67.4931106,159.525554 C67.71404,159.634621 67.8091236,160.697319 67.6720914,160.78681 C64.9202612,162.557042 62.1628378,164.330071 59.3271104,165.929712 C57.590437,166.91131 55.7195281,167.604861 53.9101438,168.427054 C53.6640451,168.538917 53.4179465,168.64239 53.454302,168.625611" id="Fill-8" fill="#FFFFFF"></path>
            <path d="M94.1911772,166.569848 C91.6099381,165.683334 86.5872886,163.913102 86.5872886,163.913102 C84.0004563,162.819641 81.5282837,161.440929 79.0169589,160.160097 C78.7988261,160.048234 78.5415411,159.75739 78.5331514,159.530868 C78.5247617,159.309938 78.7680637,158.971553 78.9806035,158.8513 C84.8030735,155.520579 90.5640189,152.044435 96.5011485,148.976592 C98.8866273,147.743302 101.736338,146.842805 104.10224,149.166759 C105.707475,150.744028 105.439004,152.942136 105.008331,154.913722 C104.051902,159.304345 101.26092,162.374985 97.7987595,164.791226 C96.7528403,165.521132 95.5111608,165.932229 94.1911772,166.569848" id="Fill-10" fill="#FFFFFF"></path>
        </g>
    </g>
</svg>