<?xml version="1.0" encoding="UTF-8"?>
<svg width="300px" height="300px" viewBox="0 0 300 300" version="1.1" xmlns="http://www.w3.org/2000/svg" xmlns:xlink="http://www.w3.org/1999/xlink">
    <!-- Generator: Sketch 51.3 (57544) - http://www.bohemiancoding.com/sketch -->
    <title>Character/Beaver</title>
    <desc>Created with Sketch.</desc>
    <defs>
        <polygon id="path-1" points="166.893955 0.371929587 166.893955 208.993997 0.45463854 208.993997 0.45463854 0.371929587 166.893955 0.371929587"></polygon>
    </defs>
    <g id="Character/Beaver" stroke="none" stroke-width="1" fill="none" fill-rule="evenodd">
        <g id="Page-1" transform="translate(22.500000, 37.500000)">
            <g id="Group-3" transform="translate(73.975084, 0.709749)">
                <mask id="mask-2" fill="white">
                    <use xlink:href="#path-1"></use>
                </mask>
                <g id="Clip-2"></g>
                <path d="M132.025491,103.490115 C146.330423,99.61567 165.107765,86.5035863 165.107765,58.1896227 C165.107765,37.3286489 154.677278,0.371929587 97.454468,0.371929587 L0.45463854,0.371929587 L0.45463854,208.993997 L66.7763841,208.993997 C68.2620503,207.801149 68.6689133,207.939852 69.3840058,207.912111 C71.0114576,207.850465 71.547777,206.879542 72.1673183,206.571313 C72.7868597,206.263083 77.1174844,203.683202 78.9730261,202.447202 C80.8285678,201.211202 82.5793115,198.221375 82.5793115,198.221375 L84.6413669,193.992466 L84.6413669,190.959488 L84.6413669,188.734071 C84.6413669,188.734071 83.4053666,186.258988 82.992339,185.84596 C82.5793115,185.432933 78.146971,176.361738 78.146971,176.361738 C78.146971,176.361738 76.069504,174.077757 75.6564765,173.868161 C75.4407158,173.760281 74.8982319,173.04827 74.6824712,172.037278 L48.4367277,172.037278 L48.4367277,120.775626 L56.1239719,120.775626 C56.4476129,120.590689 56.7188549,120.421162 56.9746854,120.294788 C57.5942267,119.983477 61.9248514,117.406678 63.7803931,116.170677 C65.6359348,114.931595 67.3897608,111.941768 67.3897608,111.941768 L69.4518163,107.712859 C69.4518163,107.712859 70.5059612,105.136061 70.5059612,104.682963 C70.5059612,104.229866 69.4518163,102.454464 69.4518163,102.454464 C69.4518163,102.454464 68.2158159,99.9824631 67.8027883,99.5694356 C67.3897608,99.156408 62.9574203,90.082131 62.9574203,90.082131 C62.9574203,90.082131 60.1741078,87.8135617 59.7610802,87.6070479 C59.5021674,87.4806738 58.004172,86.2323443 58.2384264,85.310738 L48.4367277,85.310738 L48.4367277,35.836818 L69.4579809,35.836818 L70.2902006,34.7179448 L77.0126864,29.6691453 L78.6740435,26.7594587 C78.6740435,26.7594587 79.1487169,26.8056931 79.2288566,27.3081072 C79.305914,27.8105213 79.441535,28.5348607 80.1011461,29.1235791 C80.5388321,29.5181129 80.7083583,30.1191604 81.5898947,30.396567 C85.1129581,31.4969464 83.5194115,30.9452155 84.8417161,32.0455949 C86.1609385,33.1459743 86.3890283,35.836818 86.3890283,35.836818 L87.9178467,35.836818 C112.357365,35.836818 116.826693,51.0386979 116.826693,60.2763365 C116.826693,70.7068234 111.460417,85.310738 87.9178467,85.310738 L85.9328486,85.310738 C85.6554421,85.7083541 85.7756516,85.4556059 85.6739358,85.310738 L85.2177561,85.310738 C85.1838509,85.3230672 85.1653571,85.3230672 85.1252873,85.341561 C83.9910027,85.8563043 83.4762594,87.6070479 82.856718,88.3313873 C82.2371767,89.0526444 82.856718,88.3313873 82.0306629,89.4656719 C81.2076901,90.5999566 81.0011763,89.6691034 80.2799193,90.5999566 C79.5555799,91.5277274 79.0408366,92.1441864 78.4212953,92.9702416 C77.8048362,93.7932144 77.5983225,94.0028104 77.0835792,94.7240675 C76.5657536,95.4453246 75.8938132,96.3607663 74.5930846,98.8574254 C74.0166954,99.960887 73.8564161,99.9331464 73.6499023,100.241376 C73.4433885,100.552688 72.4108197,102.093835 72.3091039,102.383571 C72.1056724,102.969207 71.5570239,103.961706 71.4553081,104.682963 C71.3505101,105.40422 75.4314689,109.777997 75.8444965,110.499254 C76.257524,111.220511 76.5657536,112.249998 76.7722673,112.767824 C76.9787811,113.282567 81.5159196,118.127935 81.5159196,118.127935 C81.5159196,118.127935 83.7844889,119.983477 84.2992322,120.396504 C84.3824542,120.464315 84.6259555,120.599936 84.9557611,120.775626 L89.4065953,120.775626 C112.653266,120.775626 118.019542,136.572389 118.019542,146.407993 C118.019542,154.727108 114.39168,166.661755 100.059007,170.662574 C99.9233865,170.798195 99.7939301,170.939981 99.6860498,171.103342 C98.6565632,172.647572 99.6860498,171.103342 98.5548474,171.618086 C97.4174805,172.132829 96.9027372,173.886655 96.2862782,174.607912 C95.6667368,175.329169 96.2862782,174.607912 95.4602231,175.742196 C94.6341679,176.876481 94.4276542,175.94871 93.7063971,176.876481 C92.98514,177.804252 92.4703967,178.423793 91.8508554,179.246766 C91.2313141,180.072821 91.0248003,180.279335 90.510057,181.000592 C89.9953137,181.721849 89.9120917,183.031825 88.4480015,185.432933 C87.7205798,186.628863 87.5202307,186.258988 87.3137169,186.567217 C87.1072031,186.878529 87.1072031,189.353612 87.1072031,189.661842 C87.1072031,189.970071 86.6972578,191.622181 86.5924598,192.343438 C86.4907441,193.064695 88.8610291,196.054522 89.2740566,196.775779 C89.6870842,197.497036 89.9953137,198.529605 90.2018275,199.044348 C90.4083412,199.559091 94.9454798,204.404459 94.9454798,204.404459 C94.9454798,204.404459 97.214049,206.263083 97.7287923,206.673029 C98.0339395,206.91653 100.274768,208.023074 102.275178,208.929269 C156.807144,207.6008 166.895496,170.755043 166.895496,149.684473 C166.895496,118.393012 144.246791,106.470694 132.025491,103.490115" id="Fill-1" fill="#694C27" mask="url(#mask-2)"></path>
            </g>
            <path d="M176.242865,209.639326 C174.242455,208.733131 172.001626,207.626587 171.696479,207.383086 C171.181736,206.973141 168.913167,205.114517 168.913167,205.114517 C168.913167,205.114517 164.376028,200.269149 164.169514,199.754405 C163.963001,199.239662 163.654771,198.207093 163.241744,197.485836 C162.828716,196.764579 160.458431,193.774753 160.560147,193.053496 C160.664945,192.332239 161.077972,190.680128 161.077972,190.371899 C161.077972,190.063669 161.077972,187.588586 161.284486,187.277275 C161.491,186.969045 161.691349,187.33892 162.418771,186.14299 C163.882861,183.741882 163.963001,182.431907 164.480826,181.710649 C164.99557,180.989392 165.202083,180.782879 165.821625,179.956823 C166.438084,179.133851 166.952827,178.514309 167.677166,177.586538 C168.398423,176.658768 168.604937,177.586538 169.42791,176.452254 C170.253965,175.317969 169.634424,176.039226 170.253965,175.317969 C170.873506,174.596712 171.38825,172.842886 172.522534,172.328143 C173.656819,171.8134 172.62425,173.357629 173.656819,171.8134 C173.764699,171.650038 173.891073,171.508252 174.026694,171.372631 C174.026694,171.372631 176.501777,184.315189 176.791513,188.688966 C177.13673,193.916538 176.242865,209.639326 176.242865,209.639326" id="Fill-4" fill="#E9DAC1"></path>
            <path d="M163.376748,121.485992 L158.925914,121.485992 C158.593026,121.310301 158.352607,121.17468 158.269385,121.10687 C157.754642,120.693842 155.48299,118.8383 155.48299,118.8383 C155.48299,118.8383 150.948934,113.992932 150.74242,113.475107 C150.535906,112.960364 150.224595,111.930877 149.814649,111.20962 C149.401622,110.485281 145.320663,106.114586 145.422379,105.393329 C145.524094,104.672072 146.072743,103.679573 146.276174,103.093937 C146.37789,102.801119 147.413541,101.259971 147.620055,100.951742 C147.826569,100.643512 147.986848,100.671253 148.563237,99.567791 C149.863966,97.0711319 150.535906,96.1556902 151.05065,95.4313508 C151.565393,94.7100938 151.771907,94.50358 152.391448,93.6806072 C153.010989,92.854552 153.525733,92.2350107 154.24699,91.3072399 C154.968247,90.379469 155.174761,91.3072399 156.000816,90.1729552 C156.823789,89.0417529 156.207329,89.76301 156.823789,89.0417529 C157.44333,88.3174135 157.958073,86.5666699 159.092358,86.0488443 C159.132428,86.0334328 159.150921,86.0334328 159.187909,86.0211036 L159.641006,86.0211036 C159.745804,86.1659715 159.625595,86.4187197 159.899919,86.0211036 L161.884917,86.0211036 C161.884917,86.0211036 166.234036,93.8840386 166.234036,103.889169 C166.234036,112.408633 163.376748,121.485992 163.376748,121.485992" id="Fill-6" fill="#E9DAC1"></path>
            <path d="M160.818135,36.5474918 L160.355791,36.5474918 C160.355791,36.5474918 160.130783,33.8566481 158.808478,32.7562687 C157.489256,31.6528071 159.082803,32.2076202 155.556657,31.1072408 C154.675121,30.8298343 154.505594,30.2287867 154.067908,29.8342529 C153.41138,29.2455345 153.275759,28.5211952 153.195619,28.018781 C153.118561,27.5132846 152.643888,27.4701325 152.643888,27.4701325 L150.979449,30.3798192 L144.260045,35.4286187 L143.427825,36.5474918 C143.427825,36.5474918 146.451557,29.8373352 147.360834,27.5564368 C147.934141,26.1200872 148.948216,23.1487547 149.842082,21.8880959 C150.69896,20.6736716 151.226032,19.5856214 152.656217,19.9894021 C154.345315,20.4609932 155.417954,23.2165651 156.555321,24.0426203 C157.140957,24.4648947 158.688269,25.8241869 159.132119,26.619419 C160.386614,28.8694945 160.818135,36.5474918 160.818135,36.5474918" id="Fill-8" fill="#E9DAC1"></path>
            <path d="M130.092892,121.485992 C130.416533,121.301054 130.687775,121.131528 130.943605,121.002072 C131.563147,120.693842 135.893771,118.117043 137.749313,116.877961 C139.604855,115.64196 141.358681,112.652134 141.358681,112.652134 L143.420736,108.423225 C143.420736,108.423225 144.474881,105.846426 144.474881,105.393329 C144.474881,104.937149 143.420736,103.164829 143.420736,103.164829 C143.420736,103.164829 142.181653,100.692829 141.771708,100.279801 C141.358681,99.8667736 136.92634,90.7924966 136.92634,90.7924966 C136.92634,90.7924966 134.139945,88.5239273 133.73,88.3174135 C133.471087,88.1910394 131.973092,86.9427099 132.207346,86.0211036 L124.816002,86.0211036 C123.61699,90.1020624 123.882067,99.5462149 123.740281,102.045956 C123.598496,104.496381 121.055602,115.987177 121.76453,120.089712 C122.353249,123.474072 130.092892,121.485992 130.092892,121.485992" id="Fill-10" fill="#E9DAC1"></path>
            <path d="M142.05867,172.747335 L148.648617,172.747335 C148.86746,173.758328 149.409944,174.470338 149.625705,174.578218 C150.038732,174.784732 152.116199,177.071795 152.116199,177.071795 C152.116199,177.071795 156.54854,186.14299 156.961567,186.556017 C157.374595,186.969045 158.610595,189.444128 158.610595,189.444128 L158.610595,191.669545 L158.610595,194.702524 L156.54854,198.931433 C156.54854,198.931433 154.797796,201.921259 152.942254,203.157259 C151.08363,204.39326 146.753005,206.973141 146.136546,207.28137 C145.517005,207.5896 144.980686,208.560523 143.350152,208.622169 C142.638141,208.649909 142.231278,208.511206 140.745612,209.704054 C140.745612,209.704054 137.703387,195.352888 137.903736,190.50752 C138.091756,185.948805 142.05867,172.747335 142.05867,172.747335" id="Fill-12" fill="#E9DAC1"></path>
            <path d="M112.219587,202.593508 C112.009991,202.6644 111.791148,202.698306 111.304145,202.812351 C111.926769,201.650325 112.31822,200.250963 113.400106,200.30028 C114.648435,200.355761 114.824126,199.853347 114.947418,198.922494 C115.28647,198.919412 115.576206,198.916329 116.143348,198.913247 C115.97074,198.04404 115.899847,197.258055 115.640934,196.53988 C115.440585,195.985067 115.428256,195.531969 116.047797,195.578204 C117.400925,195.683002 117.604356,194.881605 117.629015,193.858283 C117.644426,193.266482 117.601274,192.671599 117.650591,192.082881 C117.672167,191.814721 117.857105,191.561973 117.964985,191.30306 C118.183828,191.500327 118.458152,191.663689 118.606102,191.904108 C118.806451,192.233913 118.908167,192.622283 119.114681,193.140108 C119.802033,191.346212 120.409245,189.75883 121.016457,188.174531 C121.124337,188.205354 121.2353,188.236177 121.34318,188.267 C121.558941,188.707768 121.774702,189.151618 121.891829,189.39512 C122.434313,189.022162 123.041525,188.347139 123.328179,188.464266 C123.876827,188.686192 124.24362,189.358132 124.687471,189.845135 C124.783022,189.829723 124.881655,189.814312 124.977206,189.7989 C124.980289,188.914282 124.949466,188.029663 125.004947,187.148126 C125.032688,186.735099 125.229955,186.3344 125.350164,185.927537 C125.399481,185.946031 125.448798,185.961443 125.495032,185.979936 C125.353246,184.68229 125.211461,183.384644 125.069675,182.09008 C125.189885,182.062339 125.313177,182.037681 125.433386,182.00994 C125.920389,182.601741 126.404309,183.190459 126.891312,183.779178 C126.974534,183.745272 127.060838,183.705203 127.14406,183.668215 C127.060838,183.131896 126.99611,182.592494 126.891312,182.062339 C126.761855,181.402728 126.604658,180.783187 127.171801,180.194468 C127.375232,179.984872 127.338245,179.541022 127.39989,179.205052 C127.526265,178.496124 127.643392,177.784114 127.78826,176.948812 C128.315332,177.155325 128.716031,177.315605 129.21228,177.512872 C129.569826,176.347764 129.908879,175.235055 130.26026,174.088442 C131.221936,174.640173 131.339064,173.903504 131.582565,173.357938 C131.859972,172.735314 132.146625,172.115773 132.430196,171.493149 C132.5165,171.530137 132.605887,171.567124 132.692191,171.604112 C132.800072,171.918506 132.90487,172.235982 133.099054,172.824701 C133.971344,171.194166 134.735753,169.770146 135.586466,168.179682 C135.987165,168.783812 136.221419,169.132111 136.501908,169.557468 C137.038228,168.188929 137.512901,166.977587 138.018397,165.67994 C138.628692,166.203931 139.078707,166.589217 139.602697,167.042315 C139.827705,166.484419 140.006478,166.105297 140.135934,165.713846 C140.644513,164.166533 140.638348,164.25592 142.290458,164.212768 C143.184324,164.191192 144.068943,163.772 144.959726,163.553157 C145.585432,163.402124 146.266619,163.072319 146.836844,163.201775 C148.115996,163.488429 149.345832,163.990843 150.584915,164.44394 C151.318501,164.715182 151.722282,164.465516 151.528097,163.69186 C151.364736,163.038413 151.065753,162.384967 150.686631,161.820907 C150.304426,161.2476 149.755777,160.785256 149.281104,160.273595 C149.30268,160.190373 149.327338,160.110233 149.348914,160.027011 C151.719199,161.074991 153.70728,160.020846 155.827899,158.898891 C155.495011,158.624567 155.21144,158.233115 154.841564,158.106741 C152.582242,157.342332 150.988696,155.798102 149.755777,153.840845 C149.22254,153.00246 148.633822,152.41066 147.561183,152.684984 C146.17415,153.04253 144.799447,153.452475 143.403167,153.769952 C142.080862,154.072017 140.807875,153.890161 139.402348,153.171987 C139.824622,152.848346 140.114358,152.678819 140.330119,152.4384 C140.49348,152.256545 140.712323,151.917492 140.644513,151.76646 C140.354777,151.103766 139.96949,150.548953 140.231485,149.707487 C140.336283,149.365352 139.759894,148.819786 139.513311,148.354359 C139.118777,147.602279 139.294468,147.297132 140.160593,147.204663 C140.323954,147.186169 140.487316,147.155346 140.752393,147.118359 C140.659924,146.726907 140.601361,146.397102 140.502727,146.079625 C140.397929,145.752902 140.256144,145.44159 140.132852,145.121032 C140.243814,145.133361 140.357859,145.14569 140.468822,145.154937 C140.552044,144.717251 140.706159,144.276483 140.706159,143.835714 C140.712323,142.76924 140.647595,141.702766 140.607525,140.531494 C141.236314,140.756502 141.677082,140.913699 142.34594,141.151035 C142.222648,140.038327 142.11785,139.132132 141.988394,137.970107 C142.626429,138.330735 143.048703,138.568072 143.631257,138.897878 C143.609681,138.330735 143.5542,137.896132 143.588105,137.467693 C143.603516,137.239603 143.760713,137.014595 143.887087,136.808081 C144.044284,136.555333 144.321691,136.345737 144.395666,136.074495 C144.673073,135.066585 144.888833,134.04018 145.12617,133.019941 C145.209392,133.026105 145.295696,133.03227 145.378918,133.038434 C145.600844,133.469956 145.819686,133.901477 146.038529,134.332998 C146.118669,134.323751 146.201891,134.314505 146.285113,134.305258 C146.494709,132.982953 146.707388,131.663731 146.932395,130.273616 C147.262201,130.458553 147.511867,130.597257 147.746121,130.729795 C148.732455,128.649246 149.669473,126.624178 150.655808,124.623769 C150.979449,123.96724 150.831498,123.455579 150.347578,123.02714 C149.774271,122.518561 149.136236,122.083957 148.547518,121.593872 C148.115996,121.230162 147.773862,120.820216 148.180725,120.357872 C148.723209,120.638361 149.133154,120.854122 149.546181,121.069882 C149.783518,120.561303 150.122571,120.074301 150.224286,119.541064 C150.319837,119.044814 150.128735,118.499248 150.128735,117.975258 C150.128735,117.685522 150.171887,117.235507 150.356825,117.124544 C151.565085,116.397123 151.318501,115.349142 151.124317,114.261092 C150.754441,112.220613 150.366072,110.18938 149.019109,108.515694 C148.233124,107.541689 147.243707,106.687893 146.63033,105.618336 C145.200145,103.121677 143.640504,103.534705 141.590777,104.539533 C140.918837,104.869339 140.169839,105.106675 139.430089,105.229967 C137.090627,105.621419 134.717259,105.852591 132.393209,106.3211 C131.144879,106.573848 129.834904,106.977629 128.777676,107.661898 C125.565925,109.74553 122.48363,112.02951 119.31503,114.180952 C117.126601,115.666619 114.870361,117.053652 112.657273,118.50233 C110.937352,119.627368 109.20202,120.73083 107.534498,121.929843 C105.423126,123.446332 103.715534,125.591609 101.157229,126.396088 C98.7715328,127.145086 96.330355,127.857096 93.8614365,128.162243 C90.7205777,128.54753 87.4810855,128.220807 84.3679674,128.726303 C81.0729938,129.25954 77.7872671,130.178064 74.6618198,131.361666 C71.6103476,132.514444 68.7438131,134.169637 65.8372087,135.683044 C62.3542151,137.498516 59.2133564,139.813319 56.3314104,142.568891 C56.8954704,143.339465 56.4701136,143.78948 55.8721484,144.344293 C54.71937,145.416932 53.6806365,146.615945 52.4477184,147.916673 C53.0980827,148.061541 53.4402175,148.138599 54.0042775,148.264973 C52.9408857,149.534878 51.9853741,150.67841 50.9343115,151.932904 C51.4552194,152.083936 51.7449551,152.170241 52.2720276,152.321273 C50.8233489,153.859338 49.6305006,155.123079 48.2866199,156.550182 C48.9986301,156.522441 49.5411141,156.500865 50.2685357,156.473125 C49.1373334,158.202292 48.0955176,159.792757 47.0043851,161.460278 C47.4544002,161.654463 47.7225599,161.768508 48.1078468,161.934952 C47.0752779,163.534663 46.0858612,165.066564 45.0964444,166.595382 L45.3337811,166.783402 C45.8670182,166.62004 46.4033376,166.456679 47.0691133,166.250165 C46.6098513,167.78823 46.209153,169.132111 45.7992077,170.519144 C46.2707989,170.639353 46.5574523,170.713328 46.8718464,170.79655 C46.4649835,172.670586 45.3584395,174.350437 45.6574221,176.412492 C46.1166841,176.233719 46.4310782,176.11351 46.9951382,175.891584 C46.8749287,177.069021 46.6560858,178.080014 46.7023202,179.08176 C46.7485546,180.018778 45.6882451,181.097581 46.9797268,181.889731 C46.5358763,183.498689 45.7468087,185.027507 45.9810631,186.89846 C46.532794,186.624136 46.9180809,186.429952 47.472894,186.152545 C47.9907196,188.559818 47.5376222,190.831469 47.2478864,193.244906 C47.7533829,193.029146 48.0554478,192.899689 48.6472485,192.646941 C48.7982809,195.300797 48.9431488,197.806703 49.1003459,200.583851 C49.5133734,200.124589 49.6952288,199.92424 49.9325656,199.665327 C50.0127052,200.457477 50.0435282,201.1325 50.1637377,201.792111 C50.2562065,202.309936 50.4966256,202.800021 50.5983413,203.314765 C50.7709498,204.190136 50.8849948,205.077837 51.023698,205.962456 C51.1315784,205.950127 51.242541,205.937798 51.3504213,205.925469 C51.5507705,205.52477 51.7202968,205.105578 51.9576335,204.729538 C52.0932545,204.51686 52.3429204,204.375074 52.5432696,204.202466 C52.7097135,204.405897 52.9717086,204.587753 53.0302722,204.818925 C53.2676089,205.731284 53.5727562,206.655973 53.6066614,207.583743 M131.080151,113.697032 C130.220191,113.900464 129.403382,113.561411 129.255432,112.935705 C129.107482,112.313082 129.686953,111.644224 130.546914,111.440792 C131.406874,111.237361 132.223682,111.576413 132.371633,112.199037 C132.519583,112.824743 131.943194,113.493601 131.080151,113.697032" id="Fill-14" fill="#543009"></path>
            <path d="M51.404978,199.806496 C50.9549629,203.973759 47.5058746,203.955266 45.7335548,204.124792 C41.7296534,204.500832 37.7904801,205.407027 33.8328131,206.122119 C29.0213503,206.994409 24.2037229,207.860534 19.4230831,208.877691 C14.4883285,209.928754 9.72926475,211.556205 5.35857018,214.117593 C3.65406094,215.116256 2.09750187,216.386162 0.553271986,217.631409 C-0.223466401,218.257115 -0.161820497,219.147899 0.61491789,219.779769 C1.14507266,220.21129 1.77386088,220.55959 2.41189598,220.809256 C5.46028592,221.992857 8.70902505,222.365815 11.8961183,222.294922 C17.5243893,222.168548 23.1434134,221.585994 28.7686021,221.23153 C33.6971921,220.920218 38.6288644,220.66747 43.5543721,220.365405 C44.3588512,220.316088 44.9352404,220.735281 45.1047666,221.364069 C45.4407368,222.58774 46.0417843,222.325745 46.8123581,222.008268 C47.3455952,222.17163 47.87575,222.227111 48.3904933,222.159301 C50.1813068,221.925046 50.1782245,221.909635 49.7220448,223.552498 C49.7097156,223.592568 49.7929376,223.660379 49.8360897,223.725107 C50.3724091,223.552498 50.9087284,223.37989 51.4974468,223.19187 C51.4758708,223.688119 51.4635416,224.036419 51.4512124,224.375471 C51.645397,224.397047 51.7255367,224.434035 51.7779357,224.409376 C53.4177167,223.64805 55.0482509,222.871311 56.6972788,222.125396 C57.5695683,221.730862 57.9147854,221.971281 57.9486906,222.936039 C57.9641021,223.327491 57.9671844,223.718942 57.9825959,224.36006 C59.0398231,223.697366 59.8658782,223.194952 60.6796042,222.670962 C61.2436642,222.304169 61.7060085,222.183959 62.2115049,222.834324 C62.6553554,223.40763 63.2718144,223.848399 63.7649817,224.390883 C64.2581489,224.927202 64.5848722,224.751511 64.9054309,224.233686 C65.6205234,223.083989 66.7270673,222.461366 67.9538208,221.940458 C68.4593172,222.738772 68.8939208,222.630892 69.4055818,221.952787 C69.7107291,221.545924 70.1823202,221.262353 70.5891832,220.93563 C70.6539114,220.883231 70.7802855,220.904807 70.8943304,220.892478 C71.0268691,221.145226 71.1501609,221.385645 71.2950288,221.663051 C72.8022711,221.222283 74.0475184,219.27119 75.6318181,221.382563 C76.4424618,220.756857 77.1945418,220.171221 77.9404572,219.591749 C78.3997192,220.155809 78.7788415,220.618153 79.2411858,221.185296 C79.4661933,220.753774 79.5833206,220.507191 79.7251061,220.272936 C80.4247871,219.089335 80.7206875,218.969125 81.9566878,219.545515 C83.0878902,220.066422 84.182105,220.664388 85.341048,221.253106 C85.633866,220.679799 86.0222352,220.578083 86.5277316,221.111321 C86.709587,221.302423 87.1133677,221.5675 87.2274126,221.493525 C88.2353231,220.870902 89.0367199,221.641475 89.9090094,221.83566 C93.5461177,222.661715 96.9797946,221.622982 100.431965,220.726034 C102.524844,220.18355 104.589981,219.422223 106.716765,219.135569 C110.776148,218.590003 114.80779,218.750282 118.660659,220.473285 C119.458973,220.830832 120.442226,220.77535 121.342256,220.910971 C121.38849,220.800009 121.431642,220.689046 121.477877,220.578083 C120.966216,219.878402 120.457637,219.178721 119.878166,218.380407 C122.337837,217.073514 124.73278,216.395409 127.371225,216.728297 C127.78117,216.780696 128.215774,216.648157 128.641131,216.59884 C128.437699,216.232047 128.23735,215.865254 128.033919,215.498461 C127.956861,215.359758 127.876722,215.217972 127.654796,214.823438 C128.736682,214.922072 129.599725,214.999129 130.712433,215.100845 C130.435027,214.613842 130.302488,214.280954 130.083645,214.015877 C128.576403,212.172665 126.307833,212.04629 124.245778,211.469901 C120.55627,210.43425 116.854434,209.438669 113.164927,208.399935 C111.204587,207.848204 109.244247,207.364284 107.179109,207.623197 C106.960266,207.650937 106.735259,207.635526 106.239009,207.647855 C107.089723,206.639945 107.761663,205.351545 108.812726,205.62587 C110.020986,205.940264 110.29531,205.484084 110.609704,204.599465 C110.942592,204.667276 111.229245,204.725839 111.784058,204.842967 C111.796388,203.955266 111.891939,203.172363 111.787141,202.414118 C111.703919,201.828482 111.787141,199.359563 112.385106,199.538337" id="Fill-16" fill="#543009"></path>
        </g>
    </g>
</svg>