<?xml version="1.0" encoding="UTF-8"?>
<svg width="300px" height="300px" viewBox="0 0 300 300" version="1.1" xmlns="http://www.w3.org/2000/svg" xmlns:xlink="http://www.w3.org/1999/xlink">
    <!-- Generator: Sketch 51.3 (57544) - http://www.bohemiancoding.com/sketch -->
    <title>Character/Boomerang</title>
    <desc>Created with Sketch.</desc>
    <defs>
        <polygon id="path-1" points="0.59340931 0.758028146 96.2922342 0.758028146 96.2922342 98.6538786 0.59340931 98.6538786"></polygon>
    </defs>
    <g id="Character/Boomerang" stroke="none" stroke-width="1" fill="none" fill-rule="evenodd">
        <g id="Page-1" transform="translate(69.671875, 42.143697)">
            <g id="Group-29" transform="translate(30.422973, 0.021426)">
                <g id="Group-3" transform="translate(2.783572, 84.875093)" fill="#DCE7EF">
                    <path d="M44.1795985,0.131768373 C69.0599364,-0.705537788 86.9627229,5.67892169 101.706826,19.7869938 C116.874949,34.2976169 122.985674,54.8867607 119.526418,75.6074045 C116.692459,92.5735889 106.679673,107.615579 92.0321823,116.858151 C66.1749873,133.17757 28.1285467,131.51906 0.894627132,119.555243 C30.7290265,131.366091 76.4749265,132.251703 98.604499,108.356273 C109.191591,96.9211402 116.491183,81.753017 116.662939,66.2870061 C116.86153,48.4191073 112.709887,34.732372 100.582366,21.7541265 C78.5064674,-1.87561947 44.1795985,0.131768373 44.1795985,0.131768373" id="Fill-1"></path>
                </g>
                <path d="M42.9685225,97.7521642 C42.9685225,97.7521642 66.5767991,94.8296437 76.8150138,87.1275005 C93.0002493,74.9543571 97.541025,57.0381522 93.3518105,37.981386 C89.6698103,21.2272117 76.6808302,9.13457853 60.6405131,4.02754768 C43.6448082,-1.38542195 8.51283723,9.71425203 3.96937784,13.56264 C36.058063,-5.019116 73.4845749,-2.85070773 87.3806368,31.9753245 C93.0592901,46.2014782 91.1055757,71.3743365 75.588575,84.9376228 C65.2483807,93.9735518 42.9685225,97.7521642 42.9685225,97.7521642" id="Fill-4" fill="#DBE4E9"></path>
                <path d="M43.1904623,85.0068616 C68.0708002,84.1695554 85.9735867,90.5540149 100.717689,104.662087 C115.885813,119.17271 121.996537,139.761854 118.537282,160.482498 C115.703323,177.448682 105.690537,192.490673 91.0430461,201.733245 C65.1858511,218.052664 29.9814209,216.155306 2.74481758,204.19149 C32.5792169,216.002337 75.4857903,217.126796 97.6153628,193.231367 C108.202455,181.796233 115.502047,166.62811 115.673802,151.162099 C115.872394,133.294201 111.720751,119.607465 99.5932302,106.62922 C77.5173312,82.9994738 43.1904623,85.0068616 43.1904623,85.0068616" id="Fill-6" fill="#E6EBEF"></path>
                <path d="M40.446406,85.0068616 C65.3267439,84.1695554 82.3519692,90.5540149 97.0960719,104.662087 C112.261511,119.17271 118.372236,139.761854 114.912981,160.482498 C112.081705,177.448682 102.066235,192.490673 87.4187449,201.733245 C61.5642335,218.052664 29.980079,216.155306 2.74615941,204.19149 C32.5778751,216.002337 71.8641728,217.126796 93.9910616,193.231367 C104.580838,181.796233 111.877746,166.62811 112.052185,151.162099 C112.250777,133.294201 108.09645,119.607465 95.9716127,106.62922 C73.8957137,82.9994738 40.446406,85.0068616 40.446406,85.0068616" id="Fill-8" fill="#E7F4FB"></path>
                <path d="M45.0623246,85.0068616 C69.9426625,84.1695554 79.9339793,90.5540149 94.678082,104.662087 C109.843521,119.17271 115.954246,139.761854 112.494991,160.482498 C109.663715,177.448682 99.6482455,192.490673 85.0034387,201.733245 C59.1462436,218.052664 21.8082929,209.497112 21.8082929,209.497112 C36.1981507,214.190857 69.4461829,217.126796 91.5730717,193.231367 C102.162848,181.796233 109.46244,166.62811 109.634195,151.162099 C109.832787,133.294201 105.67846,119.607465 93.5536228,106.62922 C71.4777238,82.9994738 45.0623246,85.0068616 45.0623246,85.0068616" id="Fill-10" fill="#DBE4E9"></path>
                <path d="M39.478405,97.7521642 C39.478405,97.7521642 60.4486304,94.8296437 70.6868452,87.1275005 C86.8747643,74.9543571 92.8835095,57.244795 88.694295,38.1853452 C85.0096112,21.4311709 70.112539,10.35565 54.5150281,4.02754768 C39.1536805,-2.2039424 12.7785364,7.31504783 0.028403167,13.315742 C36.4055987,-5.43776908 67.3564063,-2.85070773 81.2551518,31.9753245 C86.9311214,46.2014782 84.9800907,71.3743365 69.4604064,84.9376228 C59.120212,93.9735518 39.478405,97.7521642 39.478405,97.7521642" id="Fill-12" fill="#E7F4FB"></path>
                <g id="Group-16" transform="translate(3.786034, -0.000000)">
                    <mask id="mask-2" fill="white">
                        <use xlink:href="#path-1"></use>
                    </mask>
                    <g id="Clip-15"></g>
                    <path d="M41.8012173,98.6538786 C41.8012173,98.6538786 68.0448614,95.731358 78.2857598,88.0292148 C94.4709953,75.8560714 99.011771,57.9398665 94.8225565,38.8831003 C91.1378727,22.1289261 78.4440966,9.00844587 62.1112591,4.92926201 C32.258074,-2.52598323 4.50352173,10.734048 0.59340931,14.2174563 C35.0142068,-8.90775903 74.9553209,-1.94899341 88.8513828,32.8770388 C94.5300361,47.1031925 92.5763217,72.2760508 77.0566373,85.8393372 C66.7191266,94.8752661 41.8012173,98.6538786 41.8012173,98.6538786" id="Fill-14" fill="#DCE7EF" mask="url(#mask-2)"></path>
                </g>
                <path d="M36.592114,84.9341341 C36.592114,84.9341341 29.0697769,86.471879 26.8154911,89.7540118 C24.5585216,93.0361446 27.4300524,95.2904304 31.7373485,95.9076754 C31.7373485,95.9076754 25.715185,95.0247468 26.9335728,90.9589813 C27.9775218,87.4675219 31.5736444,85.9753994 36.592114,84.9341341" id="Fill-17" fill="#DBE4E9"></path>
                <path d="M37.3035559,84.9341341 C37.3035559,84.9341341 26.7862391,86.471879 24.5292696,89.7540118 C22.2749838,93.0361446 26.0240758,95.1589304 30.8573719,95.9076754 C30.8573719,95.9076754 24.8888819,95.4943896 25.7664431,91.1951445 C26.4964023,87.623175 32.2850863,85.9753994 37.3035559,84.9341341" id="Fill-19" fill="#E7F4FB"></path>
                <path d="M51.6864362,92.7098099 C77.4604373,80.9741053 84.2581825,58.3963594 80.2192538,39.3234911 C76.1508046,20.1110719 57.8991405,7.09257129 40.8658642,3.57159154 M89.4993971,85.7859321 C103.744337,73.4249315 107.286786,56.2252674 104.103949,41.199379" id="Stroke-21" stroke="#141414" stroke-width="0.112"></path>
                <path d="M48.0436176,87.4736944 C63.5096285,89.524021 76.3456393,96.9658479 86.9139459,107.075246 C101.408467,120.944471 107.248141,140.618483 103.941855,160.42131 C101.236712,176.633382 91.6640482,191.009822 77.6660067,199.841791 C71.0990575,203.985383 63.9041285,206.899853 56.3844751,208.732802 M112.390059,107.075246 C124.026468,120.944471 131.793019,137.561778 128.698744,160.42131" id="Stroke-23" stroke="#474746" stroke-width="0.112"></path>
                <path d="M39.3452948,95.042459 C36.9782947,95.2571529 33.768621,95.1712753 31.8793148,93.5476528 C30.521376,92.3829385 30.397927,90.4989996 31.425774,89.0712853 C33.2801924,86.4922749 36.983662,86.2668464 39.8551928,86.6237749 C40.0591519,86.647928 40.2926315,86.4278668 40.4939071,86.4520198 C37.3405906,86.0628872 29.9229168,86.7096525 30.0946719,91.3953466 C30.2342229,95.2383672 35.9101926,95.4664794 38.7092641,95.2142141 C38.923958,95.1927447 39.1306009,95.0612447 39.3452948,95.042459" id="Fill-25" fill="#141414"></path>
                <path d="M49.8019606,95.2254855 C63.9610224,97.1040571 75.7101454,103.917904 85.3847887,113.173895 C98.652871,125.873038 103.998749,143.888539 100.971565,162.019438 C98.4945342,176.86552 89.7323399,190.028939 76.9177985,198.117531 C70.9090534,201.909562 64.3206347,204.579817 57.4370119,206.257113" id="Stroke-27" stroke="#CBD3D9" stroke-width="0.112"></path>
            </g>
            <polygon id="Fill-30" fill="#E0D530" points="22.7774113 23.0410629 27.6992686 18.3419505 30.7479218 18.9645628 30.7881769 21.0578282 26.5345543 26.7203794"></polygon>
            <polygon id="Fill-31" fill="#E0D530" points="23.3576215 68.8602273 28.4888054 74.8609214 26.0117747 79.0474523 22.8611419 76.8817277 18.9966519 74.0907071 19.3321111 68.2805538"></polygon>
            <g id="Group-43" transform="translate(0.000000, 16.123467)" fill="#8E5207">
                <g id="Group-34" transform="translate(0.000000, 6.369809)">
                    <path d="M18.9977254,51.5968943 C20.167807,50.9769657 23.6941541,48.6743738 23.5921746,46.9782921 C23.5197154,45.8055267 19.5908172,42.1959857 18.8206029,41.1761897 C15.9302864,37.3492712 12.5032353,32.7897098 12.9138373,27.7631891 C13.6303782,19.0063622 21.4908581,10.8721475 26.5334808,4.22737172 C25.3365624,2.27365735 23.8873786,1.16261648 22.7763378,0.548055226 C18.3965825,4.7989942 14.075868,9.14117807 10.1013474,13.7731987 C6.52132683,17.9463111 1.53506129,22.9620971 0.190540825,28.4931483 C-0.864142897,32.8380159 2.67562257,36.8688936 5.39955127,39.8289856 C9.45726574,44.2382613 14.199317,48.0302921 18.9977254,51.5968943" id="Fill-32"></path>
                </g>
                <path d="M28.2153391,58.4417134 C27.5712574,59.5769074 26.5380431,60.9428972 24.9090532,62.1747034 C25.4082165,62.51553 25.7866144,62.7731626 26.012043,62.926132 C28.5507982,64.6517341 32.466278,63.0629994 28.4890738,58.7369175 C28.4005125,58.642989 28.306584,58.5410094 28.2153391,58.4417134" id="Fill-35"></path>
                <path d="M22.8606051,60.757187 C24.9887583,59.3670441 26.0407583,57.6870644 26.5318706,56.613595 C26.1212685,56.1654215 25.6918808,55.6984623 25.2490746,55.20735 C24.4761766,56.5277174 23.182646,58.1352379 21.0598602,59.474391 C21.7039418,59.9413503 22.3077684,60.370738 22.8606051,60.757187" id="Fill-37"></path>
                <path d="M30.7876402,4.93462936 C33.9060689,0.152323016 30.1650279,-0.167034142 27.7899768,2.13287413 C27.7631401,2.15702719 27.730936,2.18923127 27.6987319,2.21875168 C28.6675381,2.81452722 29.7624769,3.68135379 30.7876402,4.93462936" id="Fill-39"></path>
                <path d="M28.0358013,8.62629075 C28.5027605,8.01441317 28.942883,7.43742335 29.3508013,6.90068863 C28.1995054,5.32268856 26.9086584,4.41023954 25.9291175,3.89765788 C25.5104644,4.29484157 25.0381379,4.74301506 24.5201889,5.236811 C25.6392808,5.95066818 26.9086584,7.02413762 28.0358013,8.62629075" id="Fill-41"></path>
            </g>
        </g>
    </g>
</svg>