<?xml version="1.0" encoding="UTF-8"?>
<svg width="300px" height="300px" viewBox="0 0 300 300" version="1.1" xmlns="http://www.w3.org/2000/svg" xmlns:xlink="http://www.w3.org/1999/xlink">
    <!-- Generator: Sketch 51.3 (57544) - http://www.bohemiancoding.com/sketch -->
    <title>Character/Deadweight</title>
    <desc>Created with Sketch.</desc>
    <defs></defs>
    <g id="Character/Deadweight" stroke="none" stroke-width="1" fill="none" fill-rule="evenodd">
        <g id="Page-1" transform="translate(14.529905, 49.601562)">
            <g id="Group-28" transform="translate(0.000000, 0.131892)" fill="#141F19">
                <path d="M63.3854262,155.789563 C62.993515,155.789563 62.5991696,155.772523 62.20239,155.73601 L50.4401861,154.674685 C46.9933151,154.363103 43.8701968,152.722432 41.6404412,150.049646 C39.4106857,147.379295 38.3566637,144.010319 38.665811,140.565883 C38.9773926,137.119012 40.6204985,133.993459 43.2908498,131.763703 C45.9612012,129.533948 49.3277425,128.48236 52.7770478,128.789073 L64.5392517,129.852832 C67.9861227,130.164414 71.1116752,131.805085 73.3389965,134.477871 C75.568752,137.148222 76.6252083,140.517198 76.3136267,143.964069 C76.0020451,147.408506 74.3613735,150.534058 71.6885879,152.763814 C69.3249497,154.735541 66.4136095,155.789563 63.3854262,155.789563 M51.6061827,134.507082 C49.9241291,134.507082 48.3053656,135.096166 46.9884466,136.194004 C45.5011315,137.435462 44.5858607,139.171068 44.4130303,141.08194 C44.2401999,142.995245 44.8292838,144.864734 46.0707416,146.354484 C47.3121993,147.841799 49.047806,148.754635 50.9586773,148.927466 L62.7208812,149.988791 C64.6414894,150.168924 66.5061103,149.574971 67.9934254,148.333513 C69.4807405,147.092056 70.3935771,145.356449 70.5664075,143.445578 C70.7392379,141.534706 70.150154,139.660349 68.9111304,138.173034 C67.6696727,136.685718 65.934066,135.772882 64.0231947,135.600051 L52.2585566,134.536293 C52.0394758,134.516819 51.8228293,134.507082 51.6061827,134.507082" id="Fill-2"></path>
                <path d="M93.1940446,145.367403 L67.3692886,145.367403 C65.6628927,145.367403 64.2656441,143.970155 64.2656441,142.263759 C64.2656441,140.557363 65.6628927,139.160114 67.3692886,139.160114 L93.1940446,139.160114 C94.9004404,139.160114 96.297689,140.557363 96.297689,142.263759 C96.297689,143.970155 94.9004404,145.367403 93.1940446,145.367403" id="Fill-4"></path>
                <path d="M93.1964788,153.38503 C89.7812528,153.38503 86.3733295,152.051071 83.8271239,149.402628 C78.8612928,144.23719 79.021952,135.994884 84.1873901,131.029053 L92.7023299,122.842734 C95.1316924,120.505872 98.3181007,119.227901 101.699247,119.227901 L101.964579,119.230335 C105.443095,119.298494 108.678188,120.710348 111.075905,123.205434 C113.473622,125.698087 114.756462,128.989167 114.688304,132.465249 C114.620145,135.943765 113.208291,139.178858 110.713205,141.576575 L102.200699,149.762894 C99.6837042,152.182519 96.4364402,153.38503 93.1964788,153.38503 Z M101.701682,124.997028 C99.8200212,124.997028 98.047901,125.70539 96.6993371,127.002835 L88.1868315,135.186719 C85.314439,137.949571 85.2243725,142.533228 87.9847904,145.403186 C89.3138804,146.788264 91.1127771,147.569652 93.0528592,147.606165 C94.9783358,147.645113 96.8186144,146.934318 98.2012576,145.605227 L106.716197,137.418909 C108.098841,136.089819 108.880229,134.290922 108.919176,132.353274 C108.958124,130.415626 108.247329,128.587519 106.915804,127.202442 C105.586714,125.819798 103.787818,125.03841 101.85017,124.999463 L101.701682,124.997028 Z" id="Fill-6"></path>
                <path d="M113.795184,108.642891 L105.557747,133.119083 C105.012479,134.735413 103.245228,135.61417 101.626464,135.068902 C100.010135,134.523635 99.1313772,132.756383 99.676645,131.137619 L107.914082,106.663861 C108.456916,105.045098 110.226602,104.168775 111.845365,104.711608 C113.461695,105.256876 114.340452,107.026562 113.795184,108.642891" id="Fill-8"></path>
                <path d="M109.999975,119.648049 C109.875829,119.648049 109.751683,119.645615 109.625103,119.643181 C106.168495,119.543377 102.948008,118.097444 100.557593,115.568278 C98.1696126,113.039112 96.9062467,109.743164 97.0060502,106.284121 L97.3395398,94.4781014 C97.4369091,91.0214935 98.8852765,87.8010059 101.414442,85.4105911 C103.941174,83.0226106 107.224952,81.7641132 110.698599,81.856614 C114.157641,81.9564174 117.378129,83.4023506 119.766109,85.9315166 C122.156524,88.4606825 123.417456,91.7566312 123.320087,95.2156734 L122.984163,107.021693 C122.784556,114.059055 116.995955,119.648049 109.999975,119.648049 Z M110.328596,87.6208728 C108.485883,87.6208728 106.735671,88.3219313 105.37737,89.604771 C103.967951,90.9362954 103.16222,92.7230209 103.106233,94.6436291 L102.772743,106.449649 C102.71919,108.365389 103.420249,110.198365 104.751773,111.607784 C106.080863,113.01477 107.872457,113.8205 109.790631,113.874053 C113.729217,113.986028 117.103061,110.841002 117.21747,106.8586 L117.553394,95.0525799 C117.606947,93.1344059 116.903454,91.30143 115.574364,89.8944445 C114.242839,88.4850248 112.45368,87.6792944 110.533072,87.6257413 L110.328596,87.6208728 Z" id="Fill-10"></path>
                <path d="M118.454789,68.7064116 L113.746987,94.0978745 C113.437839,95.7750596 111.809339,96.8948059 110.129719,96.5832243 C108.452534,96.2716427 107.332788,94.6455765 107.64437,92.9659571 L112.352172,67.5744942 C112.663754,65.8948749 114.28982,64.7775629 115.969439,65.0891444 C117.646625,65.400726 118.766371,67.0267923 118.454789,68.7064116" id="Fill-12"></path>
                <path d="M115.742569,80.4990434 C114.094595,80.4990434 112.419844,80.1850276 110.805949,79.5180483 C104.179972,76.7868412 101.015472,69.1750011 103.744245,62.5514587 L108.247572,51.6314987 C109.566925,48.4353535 112.062012,45.9353983 115.272763,44.5990055 C118.485947,43.265047 122.015582,43.2528758 125.214162,44.572229 C128.412741,45.8915822 130.910262,48.3866689 132.246655,51.5974195 C133.583048,54.8106043 133.592785,58.3402392 132.275866,61.5388186 L127.772538,72.4587786 C125.708311,77.4659916 120.849586,80.4990434 115.742569,80.4990434 M120.270239,49.3603612 C117.429491,49.3603612 114.729929,51.0472833 113.580972,53.8320435 L109.080079,64.7520035 C107.561119,68.4325606 109.321068,72.6656882 113.006494,74.1846483 C116.687051,75.7060427 120.920178,73.9412252 122.439138,70.2582338 L126.940031,59.3407081 L129.607949,60.4409805 L126.940031,59.3407081 C127.670301,57.5661537 127.665432,55.6041636 126.920558,53.8150039 C126.175683,52.0258441 124.788171,50.6358983 123.016051,49.905629 C122.11782,49.5356259 121.18551,49.3603612 120.270239,49.3603612" id="Fill-14"></path>
                <path d="M137.323974,34.3080508 L123.58274,56.1698789 C122.672338,57.615812 120.746861,58.0564078 119.300928,57.1460055 C117.857429,56.2380373 117.419267,54.3149949 118.327236,52.8690617 L132.068469,31.0047994 C132.978872,29.5613005 134.904348,29.1207047 136.347847,30.0286728 C137.79378,30.936641 138.234376,32.8621176 137.323974,34.3080508" id="Fill-16"></path>
                <path d="M134.940618,44.717796 C132.216714,44.717796 129.470901,43.8658152 127.131605,42.103432 C121.411163,37.7875405 120.267074,29.62313 124.582966,23.9026873 L131.695788,14.4724766 C133.77949,11.7120587 136.824713,9.92533322 140.26915,9.4433555 C143.718455,8.95650931 147.133681,9.8450036 149.894099,11.9262711 C155.614542,16.2397283 156.75863,24.4041388 152.445173,30.1245815 L145.33235,39.5547922 C142.781276,42.935939 138.881638,44.717796 134.940618,44.717796 M142.097257,15.0834686 C141.756465,15.0834686 141.413238,15.1078109 141.070012,15.1564955 C139.149404,15.4242609 137.457613,16.4174271 136.301353,17.9485584 L129.188531,27.378769 C128.032271,28.9099003 127.545425,30.8086004 127.81319,32.7267744 C128.08339,34.6473826 129.074122,36.3416073 130.605253,37.4954328 C133.786793,39.8980187 138.326634,39.2602502 140.724351,36.0787104 L147.837174,26.650934 C150.237325,23.4693942 149.601991,18.9295535 146.420451,16.531836 C145.164388,15.5824859 143.657599,15.0834686 142.097257,15.0834686" id="Fill-18"></path>
                <path d="M180.817108,32.4122718 C178.614129,32.4122718 176.384374,31.8548329 174.342054,30.6742309 L164.11585,24.7687866 C161.119311,23.0404827 158.97232,20.2362486 158.071654,16.8745757 C157.170989,13.515337 157.628624,10.0149129 159.359362,7.01837464 C162.940116,0.813519979 170.902486,-1.32130055 177.109774,2.26188739 L187.335979,8.16733164 C190.332517,9.8956356 192.479509,12.6998696 193.380174,16.0615426 C194.28084,19.4207813 193.823204,22.9212053 192.092466,25.9177436 C189.68988,30.0827128 185.313133,32.4122718 180.817108,32.4122718 Z M177.226618,25.679189 C180.678357,27.6679557 185.106223,26.4849194 187.097424,23.03318 C189.088625,19.5838747 187.903154,15.1535744 184.451415,13.1648078 L174.225211,7.25692927 C170.775906,5.26816259 166.34804,6.45119883 164.354404,9.9029383 C163.395317,11.565518 163.142157,13.5104685 163.646043,15.3823921 C164.147495,17.2543157 165.337834,18.8146578 167.000413,19.7737447 L177.226618,25.679189 Z" id="Fill-20"></path>
                <path d="M170.221388,15.5223604 L146.103028,24.7529641 C144.511041,25.3639561 142.704841,24.5582257 142.096284,22.9638044 C141.487726,21.3693831 142.291022,19.5680522 143.885443,18.9570603 L168.003803,9.72645655 C169.598225,9.11546459 171.399556,9.92119503 172.010548,11.5156163 C172.621539,13.1076033 171.815809,14.9138027 170.221388,15.5223604" id="Fill-22"></path>
                <path d="M52.944036,140.82951 L42.1141426,128.777632 L44.32199,126.85459 C49.2367023,122.575212 49.750325,115.097255 45.470947,110.184976 C41.1940033,105.272698 33.7160459,104.756642 28.7988994,109.036019 L26.6251311,110.929851 L16.8760362,99.7396916 L21.2260069,95.949594 L27.340795,102.969916 C34.529079,98.5371815 44.0980408,99.8224554 49.8209177,106.394879 C55.536492,112.955131 55.5072812,122.587383 50.1592758,129.098951 L57.2355852,136.973688 L52.944036,140.82951 Z" id="Fill-24"></path>
                <path d="M26.0740213,148.337652 C23.2259711,148.337652 20.4071316,147.636593 17.8219784,146.261253 C13.6764831,144.050971 10.6409971,140.358243 9.27295933,135.867087 C8.19216079,132.320412 8.25301657,128.610644 9.41414472,125.163773 L0.000973692375,120.331825 L2.63481157,115.198032 L17.0478929,122.600528 L15.6701182,125.183247 C14.1852374,127.970441 13.8736558,131.166587 14.7913609,134.185033 C15.7115002,137.203479 17.7513857,139.686395 20.5361459,141.168842 C23.3233403,142.653722 26.5194855,142.965304 29.5379319,142.047599 C32.5563782,141.12746 35.0368596,139.087574 36.5217404,136.302814 L37.8776071,133.756608 L50.9762037,140.740417 L48.2620362,145.830394 L40.0489411,141.453647 C37.8337909,144.352816 34.7788311,146.482768 31.2175512,147.566 C29.5257607,148.082057 27.7950225,148.337652 26.0740213,148.337652" id="Fill-26"></path>
            </g>
            <polygon id="Fill-29" fill="#141F19" points="17.9247029 107.784781 15.6000124 105.219102 26.2716808 95.5405998 28.5988056 98.103845"></polygon>
            <g id="Group-36" transform="translate(160.659242, 10.758062)" fill="#474746">
                <path d="M13.831787,20.1274168 L8.59819051,17.1065362 C8.52029512,17.904964 8.47404474,18.7131286 8.50325551,19.5334645 L8.8489163,36.3101841 L18.0770858,36.1227483 L17.7776754,21.5903896 C16.4266772,21.32019 15.0927187,20.8552519 13.831787,20.1274168" id="Fill-30"></path>
                <path d="M46.5814432,19.2620477 C46.1870978,7.8430704 38.7748646,0.175242951 28.1956969,0.175242951 L28.1835258,0.175242951 L27.0029238,0.160637566 L26.8958176,0.163071797 C19.3691756,0.423534507 13.018267,4.98771751 10.1458745,11.338626 L16.7158638,15.1311578 C16.7158638,15.1311578 17.3731062,15.4670817 17.6822535,15.5790563 C17.8331758,15.6350436 18.0741647,15.7007679 18.3005482,15.7591894 C19.605296,12.1979095 23.0180877,9.5738086 27.1173326,9.39367551 L28.1275385,9.40584666 L28.1348412,9.40584666 C35.8513532,9.40584666 37.2242595,15.7810975 37.3532737,19.5225104 L37.6989345,35.3231034 L46.9295382,35.118628 L46.5814432,19.2620477 Z" id="Fill-32"></path>
                <path d="M1.59515153,27.2874637 C1.87752232,26.900421 3.4183905,26.700814 3.4183905,26.700814 L27.7120153,25.5250805 C40.7205454,25.5250805 59.1062916,26.4014036 67.8573519,28.3804334 C72.6990372,29.4782715 78.1298064,34.3905496 81.8687851,36.2600389 C90.3033953,40.5102061 98.3144493,45.1547188 103.411729,52.1044481 C110.2933,61.4811057 111.654035,71.7998106 111.654035,84.389653 C111.654035,103.403431 103.114753,120.000017 87.8058744,130.474513 C72.8183145,140.78835 55.0946791,141.915399 32.0498148,141.915399 L3.00943971,141.915399 C3.00943971,141.915399 1.72416577,141.752305 1.40528152,141.486974 C1.06205496,141.204603 0.916001101,140.479202 0.896527254,139.787881 C0.748039167,134.527508 0.777249938,111.499683 0.847842635,86.2250631 C0.908698409,64.3340243 1.97489156,41.5642281 1.48317691,29.3760338 C1.46370306,28.8526742 1.34442575,27.6306903 1.59515153,27.2874637 M69.5953927,84.389653 C69.5953927,80.6117266 68.8407812,77.3522914 67.9474184,74.5431889 C67.5238622,73.2116646 67.426493,71.9482987 66.6962237,70.8407236 C65.6056882,69.1830124 63.0278377,67.693263 61.4090741,66.5150952 C59.6223486,65.2152159 58.234837,64.3315901 55.8079087,63.5988866 C52.5874212,62.6300627 48.8046263,62.1505192 44.4595241,62.1505192 C43.8144529,62.1505192 43.3811598,62.2284146 43.0598413,62.4718377 C42.8261551,62.6519707 42.813984,62.81263 42.8188524,63.5648073 C42.845629,67.8441853 42.9356955,82.5639798 42.9356955,87.9679725 C42.9356955,92.558932 42.6849697,105.925294 42.6849697,105.925294 C42.6849697,105.925294 42.7117463,106.38293 42.8651028,106.533852 C43.0914863,106.757801 43.3227382,106.774841 43.636754,106.765104 C50.2481253,106.567931 55.5401433,104.38686 59.5785324,102.37862 C60.5911725,101.874734 61.5332199,102.183881 62.3900692,101.553415 C64.106202,100.290049 65.5010163,99.0437232 66.5988545,97.2423924 C68.6143977,93.9342725 69.5953927,89.691408 69.5953927,84.389653" id="Fill-34"></path>
            </g>
        </g>
    </g>
</svg>