<?xml version="1.0" encoding="UTF-8"?>
<svg width="30px" height="30px" viewBox="0 0 30 30" version="1.1" xmlns="http://www.w3.org/2000/svg" xmlns:xlink="http://www.w3.org/1999/xlink">
    <!-- Generator: Sketch 51.2 (57519) - http://www.bohemiancoding.com/sketch -->
    <title>Edit_Iconz</title>
    <desc>Created with Sketch.</desc>
    <defs>
        <path d="M0,15 C0,6.71572875 6.71572875,0 15,0 C23.2842712,0 30,6.71572875 30,15 C30,23.2842712 23.2842712,30 15,30 C6.71572875,30 0,23.2842712 0,15 Z" id="path-1"></path>
    </defs>
    <g id="User" stroke="none" stroke-width="1" fill="none" fill-rule="evenodd">
        <g id="8.Alchemy_SignUp_Summary" transform="translate(-802.000000, -267.000000)">
            <g id="Summary" transform="translate(802.000000, 212.000000)">
                <g id="Edit_Iconz" transform="translate(0.000000, 55.000000)">
                    <mask id="mask-2" fill="white">
                        <use xlink:href="#path-1"></use>
                    </mask>
                    <use id="Radio-Copy" fill="#A39161" fill-rule="nonzero" xlink:href="#path-1"></use>
                    <g id="083-setting-edit-copy" mask="url(#mask-2)" fill="#FFFFFF" fill-rule="nonzero">
                        <g transform="translate(6.000000, 4.500000)" id="Shape">
                            <path d="M15.965625,7.98789062 C15.84375,7.98789062 15.6,7.98789062 15.478125,7.86686198 L11.578125,3.99394531 C11.45625,3.87291667 11.45625,3.75188802 11.45625,3.50983073 C11.45625,3.26777344 11.578125,3.14674479 11.578125,3.02571615 L13.1625,1.45234375 C14.1375,0.484114583 15.721875,0.484114583 16.575,1.45234375 L17.915625,2.78365885 C18.890625,3.75188802 18.890625,5.32526042 17.915625,6.17246094 C16.9287107,7.23157732 16.419899,7.77323788 16.3891897,7.79744262 C16.3431258,7.83374974 16.0875,7.98789062 15.965625,7.98789062 Z M12.91875,3.50983073 L15.965625,6.53554687 L17.184375,5.32526042 C17.671875,4.84114583 17.671875,4.11497396 17.184375,3.63085937 L15.84375,2.29954427 C15.35625,1.81542969 14.625,1.81542969 14.1375,2.29954427 L12.91875,3.50983073 Z"></path>
                            <path d="M0.121875,19.2435547 C0,19.0014974 0,18.8804687 0,18.6384115 L0.73125,14.0393229 C0.73125,13.9182943 0.853125,13.7972656 0.853125,13.676237 L11.578125,3.02571615 C11.821875,2.78365885 12.1875,2.78365885 12.43125,3.02571615 L16.33125,6.89863281 C16.453125,7.01966146 16.453125,7.1406901 16.453125,7.3827474 C16.453125,7.62480469 16.453125,7.74194777 16.33125,7.87790555 L5.60625,18.5173828 C5.484375,18.6384115 5.3625,18.6384115 5.240625,18.6384115 L0.609375,19.3645833 C0.4875,19.3645833 0.24375,19.2435547 0.121875,19.2435547 Z M1.95,14.4024089 L1.340625,18.0332682 L4.996875,17.428125 L15.1125,7.3827474 L12.065625,4.35703125 L1.95,14.4024089 Z"></path>
                            <path d="M6.3375,17.5491536 C6.215625,17.5491536 5.971875,17.5491536 5.85,17.428125 L1.95,13.5552083 C1.70625,13.313151 1.70625,12.9500651 1.95,12.7080078 C2.19375,12.4659505 2.559375,12.4659505 2.803125,12.7080078 L6.703125,16.5809245 C6.946875,16.8229818 6.946875,17.1860677 6.703125,17.428125 C6.703125,17.428125 6.58125,17.5491536 6.3375,17.5491536 Z"></path>
                        </g>
                    </g>
                </g>
            </g>
        </g>
    </g>
</svg>