<?xml version="1.0" encoding="UTF-8"?>
<svg width="18px" height="18px" viewBox="0 0 18 18" version="1.1" xmlns="http://www.w3.org/2000/svg" xmlns:xlink="http://www.w3.org/1999/xlink">
    <!-- Generator: Sketch 51.2 (57519) - http://www.bohemiancoding.com/sketch -->
    <title>HelpAndSupport-Icon</title>
    <desc>Created with Sketch.</desc>
    <defs></defs>
    <g id="User" stroke="none" stroke-width="1" fill="none" fill-rule="evenodd">
        <g id="2.Alchemy_SignUp_CompanyInfo" transform="translate(-37.000000, -925.000000)" fill="#9B9B9B" fill-rule="nonzero">
            <g id="Left-Bar">
                <g id="ios-help-outline" transform="translate(37.000000, 924.000000)">
                    <path d="M9,1 C4.02836538,1 0,5.02836538 0,10 C0,14.9716346 4.02836538,19 9,19 C13.9716346,19 18,14.9716346 18,10 C18,5.02836538 13.9716346,1 9,1 Z M9,18.2514423 C4.45240385,18.2514423 0.748557692,14.5519231 0.748557692,10 C0.748557692,5.45240385 4.44807692,1.74855769 9,1.74855769 C13.5475962,1.74855769 17.2514423,5.44807692 17.2514423,10 C17.2514423,14.5475962 13.5475962,18.2514423 9,18.2514423 Z M9.15576923,5.24038462 C7.28653846,5.24038462 6.24375,6.11875 6.23076923,7.93173077 L7.04423077,7.93173077 C7.01826923,6.61634615 7.71490385,5.91971154 9.11682692,5.91971154 C10.1206731,5.91971154 10.9600962,6.62067308 10.9600962,7.64182692 C10.9600962,8.30384615 10.6009615,8.84038462 10.1206731,9.29038462 C9.14278846,10.1903846 8.86586538,10.8480769 8.81826923,12.08125 L9.64038462,12.08125 C9.68798077,10.9649038 9.66201923,10.7528846 10.6485577,9.775 C11.30625,9.16057692 11.7692308,8.55048077 11.7692308,7.60288462 C11.7692308,6.12307692 10.5836538,5.24038462 9.15576923,5.24038462 Z M9.18605769,13.3014423 C8.77932692,13.3014423 8.45048077,13.6259615 8.45048077,14.0283654 C8.45048077,14.4307692 8.77932692,14.7596154 9.18605769,14.7596154 C9.59278846,14.7596154 9.92163462,14.4350962 9.92163462,14.0283654 C9.92163462,13.6259615 9.59278846,13.3014423 9.18605769,13.3014423 Z" id="HelpAndSupport-Icon"></path>
                </g>
            </g>
        </g>
    </g>
</svg>