<?xml version="1.0" encoding="UTF-8"?>
<svg width="946px" height="7px" viewBox="0 0 946 7" version="1.1" xmlns="http://www.w3.org/2000/svg" xmlns:xlink="http://www.w3.org/1999/xlink">
    <!-- Generator: Sketch 51.3 (57544) - http://www.bohemiancoding.com/sketch -->
    <title>dashed_line/horizontal</title>
    <desc>Created with Sketch.</desc>
    <defs></defs>
    <g id="dashed_line/horizontal" stroke="none" stroke-width="1" fill="none" fill-rule="evenodd">
        <g id="Group-4-Copy" transform="translate(473.000000, 3.500000) rotate(-270.000000) translate(-473.000000, -3.500000) translate(470.000000, -469.000000)">
            <polygon id="Fill-1" fill="#E84F35" points="0.584333333 943.663253 6 943.663253 6 943.501495 0.584333333 943.501495"></polygon>
            <polygon id="Fill-2" fill="#E84F35" points="0.584333333 933.54948 6 933.54948 6 933.365755 0.584333333 933.365755"></polygon>
            <polygon id="Fill-3" fill="#E84F35" points="0.584333333 913.299969 6 913.299969 6 913.094277 0.584333333 913.094277"></polygon>
            <polygon id="Fill-4" fill="#E84F35" points="0.584333333 903.186197 6 903.186197 6 902.958537 0.584333333 902.958537"></polygon>
            <polygon id="Fill-5" fill="#E84F35" points="0.584333333 893.071426 6 893.071426 6 892.822798 0.584333333 892.822798"></polygon>
            <polygon id="Fill-6" fill="#E84F35" points="0.584333333 882.958652 6 882.958652 6 882.687059 0.584333333 882.687059"></polygon>
            <polygon id="Fill-7" fill="#E84F35" points="0.584333333 872.843881 6 872.843881 6 872.551319 0.584333333 872.551319"></polygon>
            <polygon id="Fill-8" fill="#E84F35" points="0.584333333 862.731108 6 862.731108 6 862.41558 0.584333333 862.41558"></polygon>
            <polygon id="Fill-9" fill="#E84F35" points="0.584333333 842.481596 6 842.481596 6 842.144101 0.584333333 842.144101"></polygon>
            <polygon id="Fill-10" fill="#E84F35" points="0.584333333 832.366825 6 832.366825 6 832.008362 0.584333333 832.008362"></polygon>
            <polygon id="Fill-11" fill="#E84F35" points="0.584333333 812.118312 6 812.118312 6 811.736883 0.584333333 811.736883"></polygon>
            <polygon id="Fill-12" fill="#E84F35" points="0.584333333 802.00454 6 802.00454 6 801.601144 0.584333333 801.601144"></polygon>
            <polygon id="Fill-13" fill="#E84F35" points="0.584333333 791.890768 6 791.890768 6 791.465404 0.584333333 791.465404"></polygon>
            <polygon id="Fill-14" fill="#E84F35" points="0.584333333 771.640258 6 771.640258 6 771.193926 0.584333333 771.193926"></polygon>
            <polygon id="Fill-15" fill="#E84F35" points="0.584333333 761.526485 6 761.526485 6 761.058186 0.584333333 761.058186"></polygon>
            <polygon id="Fill-16" fill="#E84F35" points="0.584333333 751.412713 6 751.412713 6 750.922447 0.584333333 750.922447"></polygon>
            <polygon id="Fill-17" fill="#E84F35" points="0.584333333 741.299939 6 741.299939 6 740.786708 0.584333333 740.786708"></polygon>
            <polygon id="Fill-18" fill="#E84F35" points="0.584333333 731.186167 6 731.186167 6 730.650968 0.584333333 730.650968"></polygon>
            <polygon id="Fill-19" fill="#E84F35" points="0.584333333 710.935657 6 710.935657 6 710.37949 0.584333333 710.37949"></polygon>
            <polygon id="Fill-20" fill="#E84F35" points="0.584333333 700.821885 6 700.821885 6 700.24375 0.584333333 700.24375"></polygon>
            <polygon id="Fill-21" fill="#E84F35" points="0.584333333 690.708113 6 690.708113 6 690.108011 0.584333333 690.108011"></polygon>
            <polygon id="Fill-22" fill="#E84F35" points="0.584333333 670.458601 6 670.458601 6 669.836532 0.584333333 669.836532"></polygon>
            <polygon id="Fill-23" fill="#E84F35" points="0.584333333 660.344829 6 660.344829 6 659.700793 0.584333333 659.700793"></polygon>
            <polygon id="Fill-24" fill="#E84F35" points="0.584333333 650.231057 6 650.231057 6 649.565054 0.584333333 649.565054"></polygon>
            <polygon id="Fill-25" fill="#E84F35" points="0.584333333 640.117284 6 640.117284 6 639.429314 0.584333333 639.429314"></polygon>
            <polygon id="Fill-26" fill="#E84F35" points="0.584333333 630.003512 6 630.003512 6 629.293575 0.584333333 629.293575"></polygon>
            <polygon id="Fill-27" fill="#E84F35" points="0.584333333 619.88974 6 619.88974 6 619.157836 0.584333333 619.157836"></polygon>
            <polygon id="Fill-28" fill="#E84F35" points="0.584333333 609.775968 6 609.775968 6 609.022096 0.584333333 609.022096"></polygon>
            <polygon id="Fill-29" fill="#E84F35" points="0.584333333 589.526456 6 589.526456 6 588.750617 0.584333333 588.750617"></polygon>
            <polygon id="Fill-30" fill="#E84F35" points="0.584333333 569.275946 6 569.275946 6 568.479139 0.584333333 568.479139"></polygon>
            <polygon id="Fill-31" fill="#E84F35" points="0.584333333 559.163172 6 559.163172 6 558.343399 0.584333333 558.343399"></polygon>
            <polygon id="Fill-32" fill="#E84F35" points="0.584333333 549.0494 6 549.0494 6 548.20766 0.584333333 548.20766"></polygon>
            <polygon id="Fill-33" fill="#E84F35" points="0.584333333 538.935628 6 538.935628 6 538.071921 0.584333333 538.071921"></polygon>
            <polygon id="Fill-34" fill="#E84F35" points="0.584333333 518.686116 6 518.686116 6 517.800442 0.584333333 517.800442"></polygon>
            <polygon id="Fill-35" fill="#E84F35" points="0.584333333 508.572344 6 508.572344 6 507.664703 0.584333333 507.664703"></polygon>
            <polygon id="Fill-36" fill="#E84F35" points="0.584333333 498.458572 6 498.458572 6 497.528963 0.584333333 497.528963"></polygon>
            <polygon id="Fill-37" fill="#E84F35" points="0.584333333 488.344799 6 488.344799 6 487.393224 0.584333333 487.393224"></polygon>
            <polygon id="Fill-38" fill="#E84F35" points="0.584333333 478.231027 6 478.231027 6 477.257485 0.584333333 477.257485"></polygon>
            <polygon id="Fill-34" fill="#E84F35" points="0.584333333 528.821855 6 528.821855 6 527.936181 0.584333333 527.936181"></polygon>
            <polygon id="Fill-30" fill="#E84F35" points="0.584333333 579.411685 6 579.411685 6 578.614878 0.584333333 578.614878"></polygon>
            <polygon id="Fill-19" fill="#E84F35" points="0.584333333 721.071396 6 721.071396 6 720.515229 0.584333333 720.515229"></polygon>
            <polygon id="Fill-14" fill="#E84F35" points="0.584333333 781.775997 6 781.775997 6 781.329665 0.584333333 781.329665"></polygon>
            <polygon id="Fill-9" fill="#E84F35" points="0.584333333 852.617335 6 852.617335 6 852.279841 0.584333333 852.279841"></polygon>
            <polygon id="Fill-22" fill="#E84F35" points="0.584333333 680.59434 6 680.59434 6 679.972272 0.584333333 679.972272"></polygon>
            <polygon id="Fill-29" fill="#E84F35" points="0.584333333 599.662195 6 599.662195 6 598.886357 0.584333333 598.886357"></polygon>
            <polygon id="Fill-11" fill="#E84F35" points="0.584333333 822.254052 6 822.254052 6 821.872623 0.584333333 821.872623"></polygon>
            <polygon id="Fill-3" fill="#E84F35" points="0.584333333 923.435708 6 923.435708 6 923.230016 0.584333333 923.230016"></polygon>
            <polygon id="Fill-39" fill="#9CD6F0" points="0.584333333 468.117255 6 468.117255 6 467.121745 0.584333333 467.121745"></polygon>
            <polygon id="Fill-40" fill="#9CD6F0" points="0.584333333 457.986006 6 457.986006 6 456.968529 0.584333333 456.968529"></polygon>
            <polygon id="Fill-41" fill="#9CD6F0" points="0.584333333 447.83279 6 447.83279 6 446.793346 0.584333333 446.793346"></polygon>
            <polygon id="Fill-41" fill="#9CD6F0" points="0.584333333 437.657606 6 437.657606 6 436.618162 0.584333333 436.618162"></polygon>
            <polygon id="Fill-42" fill="#9CD6F0" points="0.5 427.482423 5.9175 427.482423 5.9175 426.421012 0.5 426.421012"></polygon>
            <polygon id="Fill-43" fill="#9CD6F0" points="0.5 417.285273 5.9175 417.285273 5.9175 416.201895 0.5 416.201895"></polygon>
            <polygon id="Fill-44" fill="#9CD6F0" points="0.5 407.066155 5.9175 407.066155 5.9175 405.96081 0.5 405.96081"></polygon>
            <polygon id="Fill-45" fill="#9CD6F0" points="0.5 396.825071 5.9175 396.825071 5.9175 395.697758 0.5 395.697758"></polygon>
            <polygon id="Fill-46" fill="#9CD6F0" points="0.5 386.562019 5.9175 386.562019 5.9175 385.413738 0.5 385.413738"></polygon>
            <polygon id="Fill-47" fill="#9CD6F0" points="0.5 376.277998 5.9175 376.277998 5.9175 375.10775 0.5 375.10775"></polygon>
            <polygon id="Fill-48" fill="#9CD6F0" points="0.5 365.972011 5.9175 365.972011 5.9175 364.779796 0.5 364.779796"></polygon>
            <polygon id="Fill-49" fill="#9CD6F0" points="0.5 355.644056 5.9175 355.644056 5.9175 354.429874 0.5 354.429874"></polygon>
            <polygon id="Fill-50" fill="#9CD6F0" points="0.5 345.294135 5.9175 345.294135 5.9175 344.057985 0.5 344.057985"></polygon>
            <polygon id="Fill-51" fill="#9CD6F0" points="0.5 334.922246 5.9175 334.922246 5.9175 333.664129 0.5 333.664129"></polygon>
            <polygon id="Fill-52" fill="#9CD6F0" points="0.5 324.52839 5.9175 324.52839 5.9175 323.247308 0.5 323.247308"></polygon>
            <polygon id="Fill-53" fill="#9CD6F0" points="0.5 314.111568 5.9175 314.111568 5.9175 312.808519 0.5 312.808519"></polygon>
            <polygon id="Fill-54" fill="#9CD6F0" points="0.5 303.67278 5.9175 303.67278 5.9175 302.347763 0.5 302.347763"></polygon>
            <polygon id="Fill-55" fill="#9CD6F0" points="0.5 293.212024 5.9175 293.212024 5.9175 291.86504 0.5 291.86504"></polygon>
            <polygon id="Fill-56" fill="#9CD6F0" points="0.5 282.729301 5.9175 282.729301 5.9175 281.361349 0.5 281.361349"></polygon>
            <polygon id="Fill-57" fill="#9CD6F0" points="0.5 272.225609 5.9175 272.225609 5.9175 270.836689 0.5 270.836689"></polygon>
            <polygon id="Fill-58" fill="#9CD6F0" points="0.5 261.700949 5.9175 261.700949 5.9175 260.289063 0.5 260.289063"></polygon>
            <polygon id="Fill-59" fill="#9CD6F0" points="0.5 251.153323 5.9175 251.153323 5.9175 249.720468 0.5 249.720468"></polygon>
            <polygon id="Fill-60" fill="#9CD6F0" points="0.5 240.584729 5.9175 240.584729 5.9175 239.128908 0.5 239.128908"></polygon>
            <polygon id="Fill-61" fill="#9CD6F0" points="0.5 229.993169 5.9175 229.993169 5.9175 228.515381 0.5 228.515381"></polygon>
            <polygon id="Fill-62" fill="#9CD6F0" points="0.5 219.379642 5.9175 219.379642 5.9175 217.878889 0.5 217.878889"></polygon>
            <polygon id="Fill-63" fill="#9CD6F0" points="0.5 208.743149 5.9175 208.743149 5.9175 207.220429 0.5 207.220429"></polygon>
            <polygon id="Fill-64" fill="#9CD6F0" points="0.5 198.084689 5.9175 198.084689 5.9175 196.540002 0.5 196.540002"></polygon>
            <polygon id="Fill-65" fill="#9CD6F0" points="0.5 187.404263 5.9175 187.404263 5.9175 185.839605 0.5 185.839605"></polygon>
            <polygon id="Fill-66" fill="#9CD6F0" points="0.5 176.703866 5.9175 176.703866 5.9175 175.117241 0.5 175.117241"></polygon>
            <polygon id="Fill-67" fill="#9CD6F0" points="0.5 165.981501 5.9175 165.981501 5.9175 164.372909 0.5 164.372909"></polygon>
            <polygon id="Fill-68" fill="#9CD6F0" points="0.5 155.23717 5.9175 155.23717 5.9175 153.605613 0.5 153.605613"></polygon>
            <polygon id="Fill-69" fill="#9CD6F0" points="0.5 144.469873 5.9175 144.469873 5.9175 142.817347 0.5 142.817347"></polygon>
            <polygon id="Fill-70" fill="#9CD6F0" points="0.5 133.681608 5.9175 133.681608 5.9175 132.006116 0.5 132.006116"></polygon>
            <polygon id="Fill-71" fill="#9CD6F0" points="0.5 122.870377 5.9175 122.870377 5.9175 121.173916 0.5 121.173916"></polygon>
            <polygon id="Fill-72" fill="#9CD6F0" points="0.5 112.038177 5.9175 112.038177 5.9175 110.317752 0.5 110.317752"></polygon>
            <polygon id="Fill-73" fill="#9CD6F0" points="0.5 101.182013 5.9175 101.182013 5.9175 99.4406198 0.5 99.4406198"></polygon>
            <polygon id="Fill-74" fill="#9CD6F0" points="0.5 90.3048804 5.9175 90.3048804 5.9175 88.5405217 0.5 88.5405217"></polygon>
            <polygon id="Fill-75" fill="#9CD6F0" points="0.5 79.4047823 5.9175 79.4047823 5.9175 77.6204535 0.5 77.6204535"></polygon>
            <polygon id="Fill-76" fill="#9CD6F0" points="0.5 68.4847141 5.9175 68.4847141 5.9175 66.6784182 0.5 66.6784182"></polygon>
            <polygon id="Fill-77" fill="#9CD6F0" points="0.5 57.5426788 5.9175 57.5426788 5.9175 55.7134172 0.5 55.7134172"></polygon>
            <polygon id="Fill-78" fill="#9CD6F0" points="0.5 46.5776779 5.9175 46.5776779 5.9175 44.7274477 0.5 44.7274477"></polygon>
            <polygon id="Fill-79" fill="#9CD6F0" points="0.5 35.5917083 5.9175 35.5917083 5.9175 33.7185125 0.5 33.7185125"></polygon>
            <polygon id="Fill-80" fill="#9CD6F0" points="0.5 24.5827732 5.9175 24.5827732 5.9175 22.6886087 0.5 22.6886087"></polygon>
            <polygon id="Fill-81" fill="#9CD6F0" points="0.5 13.5528694 5.9175 13.5528694 5.9175 11.6357394 0.5 11.6357394"></polygon>
            <polygon id="Fill-82" fill="#9CD6F0" points="0.5 2.5 5.9175 2.5 5.9175 0.561901345 0.5 0.561901345"></polygon>
        </g>
    </g>
</svg>