<?xml version="1.0" encoding="utf-8"?>
<!-- Generator: Adobe Illustrator 23.0.1, SVG Export Plug-In . SVG Version: 6.00 Build 0)  -->
<svg version="1.1" id="Layer_1" xmlns="http://www.w3.org/2000/svg" xmlns:xlink="http://www.w3.org/1999/xlink" x="0px" y="0px"
	 viewBox="0 0 24.3 18.5" style="enable-background:new 0 0 24.3 18.5;" xml:space="preserve">
<style type="text/css">
	.st0{fill-rule:evenodd;clip-rule:evenodd;fill:#9CD6F0;}
	.st1{fill-rule:evenodd;clip-rule:evenodd;fill:#004B9B;}
	.st2{fill-rule:evenodd;clip-rule:evenodd;fill:#E84F35;}
	.st3{fill-rule:evenodd;clip-rule:evenodd;fill:#48B9B9;}
</style>
<g>
	<g id="Group">
		<polygon id="Fill-1" class="st0" points="13.5,11.9 17.7,11.9 17.7,5.3 13.5,5.3 		"/>
		<polygon id="Fill-4" class="st1" points="17.7,11.9 24.3,11.9 24.3,5.3 17.7,5.3 		"/>
		<polygon id="Fill-7_1_" class="st2" points="11,18.5 17.7,18.5 17.7,11.9 11,11.9 		"/>
		<polygon id="Fill-10" class="st3" points="17.7,18.5 24.3,18.5 24.3,11.9 17.7,11.9 		"/>
	</g>
</g>
<title>Icon/Plus</title>
<desc>Created with Sketch.</desc>
<path class="st3" d="M7.9,0C3.5,0,0,3.5,0,7.9c0,4.4,3.5,7.9,7.9,7.9c4.4,0,7.9-3.5,7.9-7.9C15.8,3.5,12.3,0,7.9,0z M12.5,8.6H8.8
	v4.1H7V8.6H3.3V6.9H7V3.2h1.8v3.7h3.7V8.6z"/>
</svg>
