<?xml version="1.0" encoding="UTF-8"?>
<svg width="216px" height="55px" viewBox="0 0 216 55" version="1.1" xmlns="http://www.w3.org/2000/svg" xmlns:xlink="http://www.w3.org/1999/xlink">
    <!-- Generator: Sketch 51.2 (57519) - http://www.bohemiancoding.com/sketch -->
    <title>Logo</title>
    <desc>Created with Sketch.</desc>
    <defs>
        <polygon id="path-1" points="0.0010368 0.210305478 53.3582208 0.210305478 53.3582208 53.8792205 0.0010368 53.8792205"></polygon>
    </defs>
    <g id="User" stroke="none" stroke-width="1" fill="none" fill-rule="evenodd">
        <g id="4.Alchemy_SignUp_ShippingAddress" transform="translate(-32.000000, -18.000000)">
            <g id="Group-10" transform="translate(32.000000, 18.000000)">
                <g id="Logo">
                    <g id="Group-3" transform="translate(0.000000, 0.292149)">
                        <g id="Fill-1-Clipped">
                            <mask id="mask-2" fill="white">
                                <use xlink:href="#path-1"></use>
                            </mask>
                            <g id="path-1"></g>
                            <path d="M26.6796288,14.5712149 C33.5276928,14.5712149 39.0814848,20.1556074 39.0814848,27.0452844 C39.0814848,33.9349614 33.5276928,39.5193539 26.6796288,39.5193539 C19.8315648,39.5193539 14.2777728,33.9349614 14.2777728,27.0452844 C14.2777728,20.1556074 19.8315648,14.5712149 26.6796288,14.5712149 M26.6796288,0.209610253 C40.4898048,0.209610253 51.8496768,10.7631215 53.2199808,24.2887184 L50.3463168,24.2887184 C48.9881088,12.353448 38.9104128,3.0826264 26.6796288,3.0826264 C14.4488448,3.0826264 4.3711488,12.353448 3.0129408,24.2887184 L5.8883328,24.2887184 C7.2309888,13.9437746 16.0265088,5.95390449 26.6796288,5.95390449 C37.3327488,5.95390449 46.1265408,13.9437746 47.4691968,24.2887184 L45.9831168,24.2887184 L44.5851648,24.2887184 L41.6907648,24.2887184 C41.8531968,25.1838202 41.9378688,26.104993 41.9378688,27.0452844 C41.9378688,35.5200737 35.1053568,42.390632 26.6796288,42.390632 C20.1840768,42.390632 14.6389248,38.3079249 12.4374528,32.5566784 L9.4117248,32.5566784 C11.7324288,39.9225843 18.5856768,45.2619101 26.6796288,45.2619101 C36.6830208,45.2619101 44.7925248,37.1069242 44.7925248,27.0452844 L45.7049088,27.0452844 L47.6471808,27.0452844 L50.5035648,27.0452844 L52.4199168,27.0452844 L53.3582208,27.0452844 C53.3582208,41.8657374 41.4142848,53.8792205 26.6796288,53.8792205 C12.8694528,53.8792205 1.5113088,43.3274473 0.1392768,29.8001124 L3.0129408,29.8001124 C4.3728768,41.7371208 14.4488448,51.0079424 26.6796288,51.0079424 C38.9104128,51.0079424 48.9881088,41.7371208 50.3463168,29.8001124 L47.4691968,29.8001124 C46.1265408,40.1467942 37.3327488,48.1366643 26.6796288,48.1366643 C16.0265088,48.1366643 7.2327168,40.1467942 5.8883328,29.8001124 L7.4193408,29.8001124 L8.7723648,29.8001124 L11.6684928,29.8001124 C11.5077888,28.9067486 11.4213888,27.9855758 11.4213888,27.0452844 C11.4213888,18.568757 18.2539008,11.6999368 26.6796288,11.6999368 C33.1751808,11.6999368 38.7203328,15.7809059 40.9235328,21.5338904 L43.9475328,21.5338904 C41.6251008,14.1662465 34.7735808,8.82692065 26.6796288,8.82692065 C16.6762368,8.82692065 8.5667328,16.9836447 8.5667328,27.0452844 L7.4521728,27.0452844 L5.7103488,27.0452844 L2.8556928,27.0452844 L0.7371648,27.0452844 L0.0010368,27.0452844 C0.0010368,12.2230934 11.9449728,0.209610253 26.6796288,0.209610253" id="Fill-1" fill="#FFFFFF" fill-rule="nonzero" mask="url(#mask-2)"></path>
                        </g>
                    </g>
                    <path d="M205.315776,20.1368171 L202.122432,20.1368171 L202.122432,20.2584814 L207.591552,28.5542504 L207.591552,34.4758269 L210.276864,34.4758269 L210.276864,28.5542504 L215.951616,20.2584814 L215.951616,20.1368171 L212.718528,20.1368171 L208.935936,26.0583936 L205.315776,20.1368171 Z M190.435968,34.4758269 L193.119552,34.4758269 L193.119552,20.1767925 L190.048896,20.1767925 L185.59584,26.3243171 L181.142784,20.1767925 L178.051392,20.1767925 L178.051392,34.4758269 L180.734976,34.4758269 L180.734976,24.0822174 L185.269248,30.3096928 L185.799744,30.3096928 L190.435968,24.1013361 L190.435968,34.4758269 Z M168.663168,31.8165924 L160.671168,31.8165924 L160.671168,28.5837974 L168.378048,28.5837974 L168.378048,26.068822 L160.671168,26.068822 L160.671168,22.7543382 L168.663168,22.7543382 L168.663168,20.1368171 L158.006592,20.1368171 L158.006592,34.4758269 L168.663168,34.4758269 L168.663168,31.8165924 Z M148.231296,34.4758269 L148.231296,20.1767925 L145.568448,20.1767925 L145.568448,26.2113431 L138.571776,26.2113431 L138.571776,20.1767925 L135.886464,20.1767925 L135.886464,34.4758269 L138.571776,34.4758269 L138.571776,28.7071998 L145.568448,28.7071998 L145.568448,34.4758269 L148.231296,34.4758269 Z M125.238528,30.8154688 C124.30368,31.7557602 122.900544,32.2667504 121.65984,32.2667504 C118.141632,32.2667504 116.77824,29.7917504 116.757504,27.417558 C116.736768,25.0259849 118.222848,22.4484393 121.65984,22.4484393 C122.900544,22.4484393 124.160256,22.8777406 125.096832,23.7971752 L126.885312,22.0591134 C125.421696,20.6078318 123.591744,19.8708936 121.65984,19.8708936 C116.513856,19.8708936 114.094656,23.6755109 114.115392,27.417558 C114.1344,31.1422244 116.37216,34.8025825 121.65984,34.8025825 C123.712704,34.8025825 125.604864,34.1282146 127.06848,32.6751949 L125.238528,30.8154688 Z M95.330304,20.1368171 L95.330304,34.4758269 L105.337152,34.4758269 L105.337152,31.9799702 L98.015616,31.9799702 L98.015616,20.1368171 L95.330304,20.1368171 Z M81.40608,29.2599035 L76.120128,29.2599035 L78.763968,23.1506163 L81.40608,29.2599035 Z M83.685312,34.4758269 L86.614272,34.4758269 L80.227584,20.1368171 L77.300352,20.1368171 L70.913664,34.4758269 L73.821888,34.4758269 L75.041856,31.7748789 L82.484352,31.7748789 L83.685312,34.4758269 Z" id="Fill-4" fill="#FFFFFF" fill-rule="nonzero"></path>
                </g>
            </g>
        </g>
    </g>
</svg>