<?xml version="1.0" encoding="UTF-8"?>
<svg width="415px" height="104px" viewBox="0 0 415 104" version="1.1" xmlns="http://www.w3.org/2000/svg" xmlns:xlink="http://www.w3.org/1999/xlink">
    <!-- Generator: Sketch 51.2 (57519) - http://www.bohemiancoding.com/sketch -->
    <title>Logo_Black</title>
    <desc>Created with Sketch.</desc>
    <defs>
        <polygon id="path-1" points="0.0019968 0.405032772 102.763981 0.405032772 102.763981 103.767388 0.0019968 103.767388"></polygon>
    </defs>
    <g id="User" stroke="none" stroke-width="1" fill="none" fill-rule="evenodd">
        <g id="1.Alchemy_Login" transform="translate(-753.000000, -264.000000)">
            <g id="Logo_Black" transform="translate(753.000000, 264.000000)">
                <g id="Group-3">
                    <g id="Fill-1-Clipped">
                        <mask id="mask-2" fill="white">
                            <use xlink:href="#path-1"></use>
                        </mask>
                        <g id="path-1"></g>
                        <path d="M51.3829888,28.0630805 C64.5718528,28.0630805 75.2680448,38.8182069 75.2680448,52.0872144 C75.2680448,65.3562219 64.5718528,76.1113483 51.3829888,76.1113483 C38.1941248,76.1113483 27.4979328,65.3562219 27.4979328,52.0872144 C27.4979328,38.8182069 38.1941248,28.0630805 51.3829888,28.0630805 M51.3829888,0.40369382 C77.9803648,0.40369382 99.8586368,20.7289747 102.497741,46.7782725 L96.9632768,46.7782725 C94.3474688,23.7918258 74.9385728,5.93691011 51.3829888,5.93691011 C27.8274048,5.93691011 8.4185088,23.7918258 5.8027008,46.7782725 L11.3404928,46.7782725 C13.9263488,26.854677 30.8658688,11.466779 51.3829888,11.466779 C71.9001088,11.466779 88.8363008,26.854677 91.4221568,46.7782725 L88.5600768,46.7782725 L85.8677248,46.7782725 L80.2933248,46.7782725 C80.6061568,48.5021723 80.7692288,50.2762828 80.7692288,52.0872144 C80.7692288,68.4090309 67.6103168,81.6412172 51.3829888,81.6412172 C38.8730368,81.6412172 28.1934848,73.7782257 23.9536128,62.7017509 L18.1262848,62.7017509 C22.5957888,76.8879401 35.7946368,87.1710861 51.3829888,87.1710861 C70.6487808,87.1710861 86.2670848,71.4651873 86.2670848,52.0872144 L88.0242688,52.0872144 L91.7649408,52.0872144 L97.2661248,52.0872144 L100.956877,52.0872144 L102.763981,52.0872144 C102.763981,80.630309 79.7608448,103.767388 51.3829888,103.767388 C24.7856128,103.767388 2.9106688,83.4454541 0.2682368,57.392809 L5.8027008,57.392809 C8.4218368,80.382603 27.8274048,98.2375187 51.3829888,98.2375187 C74.9385728,98.2375187 94.3474688,80.382603 96.9632768,57.392809 L91.4221568,57.392809 C88.8363008,77.3197519 71.9001088,92.7076498 51.3829888,92.7076498 C30.8658688,92.7076498 13.9296768,77.3197519 11.3404928,57.392809 L14.2891008,57.392809 L16.8949248,57.392809 L22.4726528,57.392809 C22.1631488,55.6722566 21.9967488,53.8981461 21.9967488,52.0872144 C21.9967488,35.7620506 35.1556608,22.5332116 51.3829888,22.5332116 C63.8929408,22.5332116 74.5724928,30.3928558 78.8156928,41.4726779 L84.6396928,41.4726779 C80.1668608,27.2831414 66.9713408,16.9999953 51.3829888,16.9999953 C32.1171968,16.9999953 16.4988928,32.7092416 16.4988928,52.0872144 L14.3523328,52.0872144 L10.9977088,52.0872144 L5.4998528,52.0872144 L1.4197248,52.0872144 L0.0019968,52.0872144 C0.0019968,23.5407725 23.0051328,0.40369382 51.3829888,0.40369382" id="Fill-1" fill="#202020" fill-rule="nonzero" mask="url(#mask-2)"></path>
                    </g>
                </g>
                <path d="M394.540532,38.5164707 L388.397705,38.5164707 L388.397705,38.7527645 L398.918293,54.8646258 L398.918293,66.3653824 L404.083852,66.3653824 L404.083852,54.8646258 L415,38.7527645 L415,38.5164707 L408.780721,38.5164707 L401.504396,50.0172273 L394.540532,38.5164707 Z M365.917221,66.3653824 L371.079455,66.3653824 L371.079455,38.5941101 L365.172636,38.5941101 L356.606584,50.5336981 L348.040532,38.5941101 L342.093824,38.5941101 L342.093824,66.3653824 L347.256058,66.3653824 L347.256058,46.179141 L355.97834,58.2740077 L356.998821,58.2740077 L365.917221,46.2162728 L365.917221,66.3653824 Z M324.034313,61.2006751 L308.660626,61.2006751 L308.660626,54.9220114 L323.485846,54.9220114 L323.485846,50.0374811 L308.660626,50.0374811 L308.660626,43.600163 L324.034313,43.600163 L324.034313,38.5164707 L303.534956,38.5164707 L303.534956,66.3653824 L324.034313,66.3653824 L324.034313,61.2006751 Z M284.73086,66.3653824 L284.73086,38.5941101 L279.608514,38.5941101 L279.608514,50.3142824 L266.149475,50.3142824 L266.149475,38.5941101 L260.983916,38.5941101 L260.983916,66.3653824 L266.149475,66.3653824 L266.149475,55.1616808 L279.608514,55.1616808 L279.608514,66.3653824 L284.73086,66.3653824 Z M240.501179,59.2563147 C238.702874,61.0825282 236.003753,62.0749622 233.617092,62.0749622 C226.849346,62.0749622 224.226678,57.2680712 224.18679,52.6569666 C224.146901,48.0121057 227.005576,43.0060528 233.617092,43.0060528 C236.003753,43.0060528 238.426978,43.8398324 240.228608,45.6255384 L243.66899,42.2499127 C240.853528,39.4312653 237.333369,38 233.617092,38 C223.7181,38 219.064443,45.3892446 219.104332,52.6569666 C219.140896,59.8909324 223.445529,67 233.617092,67 C237.566052,67 241.205876,65.6902572 244.021338,62.8682342 L240.501179,59.2563147 Z M182.96869,38.5164707 L182.96869,66.3653824 L202.218207,66.3653824 L202.218207,61.5179839 L188.134248,61.5179839 L188.134248,38.5164707 L182.96869,38.5164707 Z M156.183573,56.2351298 L146.015333,56.2351298 L151.101115,44.3698056 L156.183573,56.2351298 Z M160.567982,66.3653824 L166.20223,66.3653824 L153.916577,38.5164707 L148.285653,38.5164707 L136,66.3653824 L141.59436,66.3653824 L143.941132,61.1196601 L158.257774,61.1196601 L160.567982,66.3653824 Z" id="Fill-4" fill="#202020" fill-rule="nonzero"></path>
            </g>
        </g>
    </g>
</svg>