<?xml version="1.0" encoding="UTF-8"?>
<svg width="55px" height="62px" viewBox="0 0 55 62" version="1.1" xmlns="http://www.w3.org/2000/svg" xmlns:xlink="http://www.w3.org/1999/xlink">
    <!-- Generator: Sketch 51.3 (57544) - http://www.bohemiancoding.com/sketch -->
    <title>Marker/Icon Medium Selected</title>
    <desc>Created with Sketch.</desc>
    <defs>
        <path d="M54.67,28.4756462 C54.67,13.2236462 42.4458571,0.858620513 27.3664286,0.858620513 C12.287,0.858620513 0.0628571429,13.2236462 0.0628571429,28.4756462 C0.0628571429,36.0833641 3.09492857,42.9820564 8.02371429,47.9674923 C15.4518571,55.4806205 27.3664286,61.6082872 27.3664286,61.6082872 C27.3664286,61.6082872 37.62,56.0926718 45.1707143,49.4133641 C50.9480714,44.3039282 54.67,36.8472359 54.67,28.4756462" id="path-1"></path>
        <filter x="-10.1%" y="-5.8%" width="123.8%" height="126.3%" filterUnits="objectBoundingBox" id="filter-2">
            <feMorphology radius="1" operator="erode" in="SourceAlpha" result="shadowSpreadOuter1"></feMorphology>
            <feOffset dx="1" dy="6" in="shadowSpreadOuter1" result="shadowOffsetOuter1"></feOffset>
            <feGaussianBlur stdDeviation="1.5" in="shadowOffsetOuter1" result="shadowBlurOuter1"></feGaussianBlur>
            <feColorMatrix values="0 0 0 0 0   0 0 0 0 0   0 0 0 0 0  0 0 0 0.5 0" type="matrix" in="shadowBlurOuter1"></feColorMatrix>
        </filter>
    </defs>
    <g id="Marker/Icon-Medium-Selected" stroke="none" stroke-width="1" fill="none" fill-rule="evenodd">
        <g id="Marker/Icon-Black-Medium">
            <g id="Fill-3">
                <use fill="black" fill-opacity="1" filter="url(#filter-2)" xlink:href="#path-1"></use>
                <use fill="#1C1C1C" fill-rule="evenodd" xlink:href="#path-1"></use>
            </g>
        </g>
        <g id="Icon/Automotive-Blk" transform="translate(7.723571, 7.488773)" fill="#1C1C1C">
            <path d="M33.0575968,17.6125189 C34.1750007,17.5234624 35.0561128,16.6956747 35.0561128,15.6751745 C35.0561128,14.5948166 34.0725127,13.7188508 32.8611615,13.7188508 C32.0796905,13.7188508 31.399284,14.0867564 31.0106837,14.6342351 C30.4398824,12.8458049 29.516067,10.8413031 28.9182203,9.58575204 C28.5908281,8.89519898 27.7253738,8.14186838 27.0079578,7.9695951 C25.6072885,7.64110791 23.0536291,7.203125 19.2487621,7.203125 C15.4723639,7.203125 12.9656782,7.62650848 11.6091356,7.9695951 C10.8902962,8.14186838 9.92093047,8.817822 9.57788036,9.50691512 C8.91740212,10.7989647 8.30105067,12.7012705 7.84697189,14.2561098 C7.44556055,13.8064474 6.83205598,13.5129988 6.13741508,13.5129988 C4.9246404,13.5129988 3.94388716,14.3889646 3.94388716,15.4678626 C3.94388716,16.405146 4.6812314,17.1832956 5.66625497,17.3774681 C5.11395851,17.7760325 4.70970029,18.3833688 4.50472428,18.9323074 C4.22145883,19.6535193 4.05633928,20.9090703 4.05633928,21.6770003 L4.05633928,25.01735 C4.05633928,25.3779559 4.23711672,25.7371019 4.50045395,26.0232507 C4.34387506,26.1750848 4.25135117,26.375097 4.25135117,26.6232873 C4.25135117,27.2350035 4.60863573,27.6423276 5.14527429,27.6423276 C5.6833363,27.6423276 6.05627875,27.7810222 6.05627875,27.7810222 L6.05627875,30.528635 C6.05627875,31.3914613 7.86262978,31.7666667 9.09960302,31.7666667 C10.3394231,31.7666667 12.0262048,31.1242917 12.0262048,30.2614654 L12.0262048,28.912478 C12.0262048,28.1766667 12.0262048,27.57955 12.0262048,27.57955 L26.4713193,27.6277281 C26.4713193,27.6277281 26.5296805,28.2540437 26.5168695,29.0234337 C26.5012116,29.7431856 26.5012116,30.4804568 26.5012116,30.4804568 C26.5012116,31.2483869 28.4854932,31.7666667 29.7096554,31.7666667 C30.9466287,31.7666667 32.6191759,30.8731815 32.6191759,30.1052515 L32.6191759,27.4700543 C32.6191759,27.4700543 33.0817954,27.4554549 33.5600727,27.4846537 C34.1123692,27.5007131 34.5749886,27.2350035 34.5892231,26.6232873 C34.5977637,26.3166993 34.4554193,26.0816485 34.2262447,25.9210547 C34.4596896,25.6538852 34.6191154,25.3370775 34.6191154,25.01735 L34.6191154,20.3907905 C34.6191154,18.9118682 33.794941,18.0797007 33.0575968,17.6125189 M8.32524923,24.3267969 C7.05553676,24.3267969 6.01072853,23.2449791 6.01072853,21.8959918 C6.01072853,20.5630638 7.05553676,19.4651866 8.32524923,19.4651866 C9.60777269,19.4651866 10.636923,20.5630638 10.636923,21.8959918 C10.636923,23.2449791 9.60777269,24.3267969 8.32524923,24.3267969 M19.4793601,15.4912216 C16.8346002,15.4269842 11.0098655,16.2971102 9.95224625,16.5642798 C9.24906468,16.7526124 8.86188779,16.3292289 9.08536857,15.6080171 L10.5629039,10.9507988 C10.8006192,10.2135276 11.5493509,9.7740847 12.2653435,9.58575204 C14.5029982,9.05287283 19.5021352,8.20610587 26.1894773,9.46019694 C26.9054698,9.58575204 27.6954815,10.3069639 27.9630891,11.0267158 L29.6641052,15.7335722 C29.9189018,16.4547841 29.5758516,16.8460488 28.8598591,16.6431167 C28.2321201,16.4547841 22.1226964,15.5525393 19.4793601,15.4912216 M30.5309829,24.4684114 C29.2484594,24.4684114 28.2178856,23.3705342 28.2178856,22.0376062 C28.2178856,20.6871589 29.2484594,19.6068011 30.5309829,19.6068011 C31.8135063,19.6068011 32.8440801,20.6871589 32.8440801,22.0376062 C32.8440801,23.3705342 31.8135063,24.4684114 30.5309829,24.4684114" id="Fill-6"></path>
        </g>
    </g>
</svg>