<?xml version="1.0" encoding="UTF-8"?>
<svg width="300px" height="300px" viewBox="0 0 300 300" version="1.1" xmlns="http://www.w3.org/2000/svg" xmlns:xlink="http://www.w3.org/1999/xlink">
    <!-- Generator: Sketch 51.3 (57544) - http://www.bohemiancoding.com/sketch -->
    <title>Character/Mirage</title>
    <desc>Created with Sketch.</desc>
    <defs>
        <polygon id="path-1" points="0 35.767912 0 0.547837683 61.8085478 0.547837683 61.8085478 35.767912"></polygon>
        <polygon id="path-3" points="113.670751 0.116379594 113.670751 28.5140004 0.657070457 28.5140004 0.657070457 0.116379594 113.670751 0.116379594"></polygon>
        <polygon id="path-5" points="67.8323331 55.5496204 0.837944252 55.5496204 0.837944252 0.296824325 67.8323331 0.296824325"></polygon>
    </defs>
    <g id="Character/Mirage" stroke="none" stroke-width="1" fill="none" fill-rule="evenodd">
        <g id="Page-1" transform="translate(45.460766, 39.957031)">
            <g id="Group-3" transform="translate(0.000000, 153.471175)">
                <mask id="mask-2" fill="white">
                    <use xlink:href="#path-1"></use>
                </mask>
                <g id="Clip-2"></g>
                <path d="M38.9078246,24.4281446 C35.4716873,20.2101318 34.4506196,12.0415899 34.1471284,4.85553638 C41.3048904,6.70477492 47.7810833,11.0102343 55.8081674,9.68567543 C57.0684273,9.47991871 57.8322992,6.37813612 59.0488358,6.17752332 C48.3443423,7.94445917 40.391845,-0.314101273 29.8982521,0.622091814 C22.7790695,1.25479374 15.5595805,4.71407863 9.60035147,8.53086583 C8.2989402,9.36675252 7.64823457,11.2159911 6.35968309,12.0415899 C12.3163402,8.22480271 19.5409731,4.76294585 26.6575838,4.13024393 C27.7892457,4.02993753 28.8900442,4.05308516 29.970267,4.14310373 C27.7918177,11.8795565 24.4817064,20.4056007 20.677779,24.8730935 C15.7859129,30.8760459 8.44811382,33.5457394 -0.000771587709,33.9881163 L-0.000771587709,35.767912 L61.8085478,35.767912 L61.8085478,33.9881163 C51.3586783,33.9881163 44.2446396,30.6548574 38.9078246,24.4281446" id="Fill-1" fill="#9CD6F0" mask="url(#mask-2)"></path>
            </g>
            <path d="M199.936122,119.037465 C200.90575,119.616156 203.619167,117.226806 204.545072,117.779777 C195.221721,112.219202 184.684405,111.910567 174.697488,114.523677 L174.710348,114.927475 C183.151517,112.844188 192.451721,114.572545 199.936122,119.037465" id="Fill-4" fill="#9CD6F0"></path>
            <path d="M157.898995,120.788712 C156.047184,121.200226 154.210805,121.452278 152.39243,121.57316 L153.853303,159.890205 C154.074492,162.781087 154.074492,165.22702 154.074492,167.228005 C154.074492,181.234893 148.740249,186.126759 135.178309,187.459034 L135.178309,189.23883 L197.651193,189.23883 L197.651193,187.459034 C181.422132,185.905571 176.975215,179.678858 176.309077,159.890205 L174.711891,114.927218 C173.415624,115.248713 172.13736,115.65251 170.892532,116.156614 C166.509914,117.931266 162.538809,119.759929 157.898995,120.788712" id="Fill-6" fill="#9CD6F0"></path>
            <g id="Group-10" transform="translate(134.775348, 49.054333)">
                <mask id="mask-4" fill="white">
                    <use xlink:href="#path-3"></use>
                </mask>
                <g id="Clip-9"></g>
                <path d="M81.9849869,21.872581 C76.4398433,23.4646237 71.5891285,26.6641407 65.7739292,27.1425251 C63.3768634,27.337994 60.8846351,27.3688575 58.500429,27.0705102 C52.6080709,26.3272141 46.8957499,24.1410489 41.5229275,21.7002598 C40.5661587,21.2655987 39.6222498,20.7640667 38.6809128,20.2471029 C39.4550724,8.88161597 43.7836795,3.14871929 58.6521746,1.89360328 L58.6521746,0.116379594 L14.8517123,0.116379594 L15.4561227,15.8979202 C9.99328173,17.4230919 4.70533397,20.2085235 0.657070457,23.0479663 C1.87360708,22.1940759 4.02890874,22.6570285 5.26602104,21.7902783 C8.49125766,19.5269544 11.8630959,17.5233983 15.4818423,16.5872052 L15.4561227,15.8953482 C19.4246555,14.7868339 23.4857788,14.339313 27.2356951,15.0414578 C31.3585454,15.8104736 34.9875796,18.2152553 38.6809128,20.2471029 C38.6063259,21.3427575 38.5651746,22.4898512 38.5497428,23.6909561 C44.8098911,26.4506681 51.468693,28.6085417 58.3203919,28.5108073 C63.7703731,28.4336485 69.1920627,27.4048649 74.3179771,25.5221909 C81.7740863,22.7779106 88.0007991,19.8741689 96.2722193,21.2784585 C100.685701,22.0268986 105.199489,23.5520703 109.062572,25.8539736 C110.0322,26.4326644 112.745617,24.0433144 113.671522,24.5962856 C103.772052,18.6936397 92.7152,18.7913741 81.9849869,21.872581" id="Fill-8" fill="#9CD6F0" mask="url(#mask-4)"></path>
            </g>
            <path d="M158.281959,65.5342877 C155.457948,64.8475746 152.795971,64.9838884 150.257447,65.639738 L152.34845,120.437897 C141.695396,120.088111 130.962611,114.558399 121.965898,109.458204 C120.962834,108.889801 118.316288,111.261147 117.356947,110.715892 C128.21833,116.873162 139.94132,122.39773 152.392173,121.572131 L152.34845,120.437897 C156.612758,120.579355 160.864206,119.895214 164.987057,118.01254 C168.119703,116.585102 171.378375,115.391713 174.696202,114.524963 L173.417938,78.5175368 C173.34078,76.4676855 173.304772,74.5490041 173.325348,72.7434888 C172.129387,72.2162372 170.941142,71.6735539 169.776044,71.1154388 C165.977261,69.2867759 162.422813,66.5424956 158.281959,65.5342877" id="Fill-11" fill="#9CD6F0"></path>
            <path d="M55.232563,133.544857 C61.6701764,137.191895 68.411281,140.610029 75.4250133,142.626445 L73.7789595,139.300902 C68.8690897,137.27677 64.1546888,134.730531 59.8415135,132.28717 C58.8358776,131.718767 56.1919037,134.087541 55.232563,133.544857" id="Fill-13" fill="#9CD6F0"></path>
            <g id="Group-17" transform="translate(74.586812, 135.467462)">
                <mask id="mask-6" fill="white">
                    <use xlink:href="#path-5"></use>
                </mask>
                <g id="Clip-16"></g>
                <path d="M28.2756032,5.37378612 C27.5065874,5.72357255 26.7349997,6.02449176 25.9582681,6.29454745 L26.151165,6.68291327 C24.5488345,7.2461723 22.9207845,7.76570802 21.1872841,8.14892991 C14.1786957,9.70239317 7.3887239,9.0413997 0.837944252,7.15872569 L24.7957426,55.5501348 L25.6856404,55.5501348 L37.4677848,29.5373412 L26.151165,6.68548523 C28.8388622,5.7390043 31.4339689,4.627918 34.1808211,3.5168317 C43.5376081,-0.271663949 54.589316,1.24836384 63.2233825,6.39742582 C64.195583,6.9761166 66.9064278,4.58676666 67.8323331,5.13973785 C55.4097709,-2.26750416 40.839623,-0.359110556 28.2756032,5.37378612" id="Fill-15" fill="#9CD6F0" mask="url(#mask-6)"></path>
            </g>
            <path d="M75.6171386,95.1143885 C75.8023197,95.0552334 75.8306112,94.4816865 75.9154859,94.142188 C76.4427375,91.9868863 76.9674171,89.8315846 77.5152444,87.5888363 C78.1479463,87.6814269 78.7394969,87.7688735 78.983833,87.8023089 C78.6932016,87.1541753 77.8907504,86.0816684 78.1273707,85.7473137 C78.6854858,84.9628662 79.739989,84.535921 80.3186798,84.1501271 C80.2260892,83.4737019 79.9663214,82.7561253 80.0743436,82.0951319 C80.3366835,80.4850855 80.7044736,78.8801831 81.1597104,77.3112881 C81.4014745,76.4754014 81.2523009,75.246005 82.7157456,75.1971377 C82.8829229,75.1919938 83.0835357,74.5310003 83.1761262,74.1503504 C83.4641856,72.9569614 83.6236471,71.727565 83.9914372,70.5624676 C84.2846406,69.6365623 84.004297,68.2219848 85.6683545,68.1782615 C85.825244,68.1756896 85.9924214,67.6072866 86.1133034,67.2857918 C86.5222449,66.1901372 86.8231641,65.0481874 87.3221242,63.9988281 C88.8730155,60.7375841 90.0458288,57.1522732 92.2474257,54.3977051 C93.7520218,52.517603 94.6007682,50.4806115 95.8610282,48.4487638 C95.2051786,47.9626636 94.6213439,47.5305745 93.9011954,46.9981789 C90.1795707,51.324214 86.6328392,55.8585778 80.4729973,56.8410661 C80.8150678,55.7454116 81.1880019,54.5494506 81.560936,53.3509177 C81.4992089,53.3071944 81.43491,53.2660431 81.373183,53.2223198 C81.1031273,53.6595528 80.8022081,54.0813541 80.5707317,54.5391628 C80.3109639,55.0458387 80.112923,55.5859501 79.6499704,56.036043 C79.7682805,55.4367765 79.8891626,54.840082 80.0074727,54.2408156 C79.8840187,54.1842325 79.7605646,54.1302213 79.6371106,54.0736382 C79.1767299,55.0226911 78.6160429,55.9357366 78.2816882,56.9259408 C77.5589677,59.0606668 76.3912983,60.7633037 74.3697385,61.8821058 C72.0009643,63.188661 70.7149847,65.4056897 69.6270461,67.7821799 C68.4207973,70.410722 66.9367769,72.8283635 64.1744929,74.1477785 C65.3164427,71.2183171 66.6384297,68.3865902 67.5257555,65.4262654 C68.9531928,60.6732851 70.0462754,55.8225704 71.3656904,51.0387266 C72.6671016,46.3294696 75.5605555,43.1993955 80.4652814,42.0728774 C82.625727,41.5764893 84.7553091,40.9206397 86.8591716,40.2236389 C87.8416599,39.899572 88.8935912,39.4751988 89.6291714,38.7910577 C91.2006384,37.327613 92.9084192,36.9083837 94.9505547,37.3713363 C95.9664785,37.6028126 97.0184097,37.6851153 98.0626251,37.8368609 C98.3043892,37.1835833 98.5050021,36.6511878 98.7081868,36.0982166 C97.6485397,34.7299344 96.1285119,34.4341591 94.613628,34.4855983 C89.3874073,34.6527756 84.1663305,34.940835 79.1355786,35.1723113 C79.549664,34.7839455 80.2826723,34.0998044 81.43491,33.0247255 C79.1612982,33.6574275 77.350639,34.1615314 75.215913,34.755654 C76.0029325,34.2258304 76.5147523,33.8811879 77.0240002,33.5365454 C76.9802769,33.4182353 76.9365536,33.2999251 76.8928303,33.1790431 C75.8023197,33.6419957 74.6372223,33.9814943 73.6418741,34.5961925 C71.7694879,35.7510021 70.0925707,36.0416335 68.189321,34.5524692 C66.5021158,33.2279103 64.5577148,32.2325621 62.788207,31.0057377 C61.0264151,29.7866291 59.210612,28.9661742 56.9961553,28.791281 C55.1109093,28.6395354 53.2719586,27.9322466 51.4124322,27.471866 C51.427864,27.3561278 51.4458677,27.2403897 51.4612994,27.1246515 C52.4977989,26.7337137 53.5960254,26.4559422 54.5605101,25.9312625 C57.6597207,24.2466294 60.9621161,23.9071308 64.4162571,24.0948838 C69.8405187,24.3880871 75.2724961,24.5886999 80.7019016,24.7764529 C85.699218,24.9487742 90.6116598,25.3834353 95.1331638,27.8525159 C97.8980197,29.3622559 100.094473,31.427539 101.910276,34.3981517 C102.972495,28.4877898 101.812541,23.3155802 99.2817337,17.9479017 C100.415968,18.5960354 101.087249,18.9766853 101.938567,19.4627856 C101.074389,16.6490624 98.2863855,16.8059519 96.5760328,15.4376697 C96.8898118,15.3707987 97.1341479,15.3193596 97.5328015,15.231913 C93.8420403,12.9222938 90.3158845,10.7129809 86.3782152,8.2490442 C88.2531734,7.83495879 89.6626069,7.52375175 91.0746124,7.20997275 C89.3179644,6.67500527 87.5690323,6.63128197 85.8509636,6.37408606 C84.2666369,6.13746583 82.5768598,5.94199695 81.1777141,5.23985213 C78.9658293,4.13133779 76.9597013,2.61388196 74.7581043,1.1993045 C79.3927745,0.908673125 83.9322822,-1.10259884 88.8807314,0.831514354 C92.5586328,2.26666749 96.5657449,2.84021436 100.336237,4.06961077 C103.384008,5.06238696 105.732207,6.98878427 105.886524,10.5483756 C106.097425,15.4479575 106.277462,20.3501114 106.352049,25.2522653 C106.388056,27.59532 106.151436,29.9409467 106.02541,32.5874925 C106.851009,32.0088017 107.380833,31.6615872 107.882365,31.2783653 C114.186236,26.4302226 120.520971,21.6206592 126.76826,16.7030735 C128.810395,15.0955991 130.975985,14.1311145 133.565948,13.7736122 C139.247405,12.9891647 144.576504,11.147642 149.329484,7.83753075 C148.287841,10.2243087 147.549689,12.8194154 144.967442,14.1542621 C144.766829,14.2571405 144.496773,14.5760634 144.532781,14.727809 C145.232354,17.677846 143.316244,19.624819 141.791073,21.6463788 C140.247897,23.6859423 137.961426,24.7044381 135.536068,25.2779849 C133.151862,25.8438159 130.723933,26.2218939 128.157118,26.7105661 C128.65865,27.0552086 129.077879,27.3406961 129.515112,27.6390433 C127.840767,27.5155893 126.212717,27.3972792 124.587239,27.2763971 C124.564091,27.4590062 124.540943,27.6441872 124.517796,27.8267963 C125.868074,28.161151 127.220925,28.4955057 128.864406,28.9044472 C126.179281,30.4990618 123.545595,31.4018194 120.654713,31.4172511 C115.791139,31.4429707 111.735159,33.4876782 107.990387,36.3528405 C107.684324,36.5868888 107.419412,36.8723762 107.244519,37.5230819 C109.54385,37.4150596 111.843182,37.3198971 114.142513,37.1964431 C118.926357,36.9366752 123.707629,36.6254682 128.494044,36.4145675 C129.767164,36.3605564 131.063431,36.5277337 132.328835,36.7232026 C134.893078,37.1167123 136.487693,38.51843 137.120395,41.1521161 C137.657934,43.3974363 138.524685,45.5630258 138.96449,47.9575197 L136.906922,46.1674362 C136.822048,46.2471669 136.739745,46.3294696 136.65487,46.4092003 C137.462465,47.7903423 138.205762,49.2152076 139.095659,50.5423385 C141.011769,53.4100728 140.731425,56.221224 138.815316,58.8677699 C136.778324,61.6763491 134.551008,64.3486146 132.141082,66.9823006 C132.38799,65.2796637 132.588603,63.566739 132.892094,61.87439 C133.614815,57.8158386 132.850943,54.4157088 129.245056,51.8386058 C127.984796,50.9384202 127.192633,49.3463775 126.266728,48.0141028 C125.518288,46.9390239 124.89073,45.7842143 123.86709,44.8403053 C124.291463,45.8433693 124.715837,46.8490053 125.142782,47.8546413 C123.959681,46.9004445 122.874314,46.0259784 121.526607,44.9406117 C121.662921,45.8407974 121.742652,46.3757649 121.855818,47.1293488 C117.143989,44.2641865 112.293274,42.5924131 106.658112,42.3146415 C109.168344,45.1155049 111.318502,47.9446599 113.900749,50.2954304 C118.213924,54.2279558 120.842466,59.2587076 123.373274,64.2894595 C125.15307,67.8284751 124.440637,71.8587349 123.74878,75.6729502 C123.177805,78.821028 122.439653,81.9330984 121.812095,84.8857074 C121.289987,83.5380009 120.783311,81.8302201 119.986004,80.2716129 C118.74632,77.8385397 117.259727,75.5340644 115.971176,73.1241388 C114.803506,70.9354016 113.646125,68.7235169 112.697072,66.4344733 C111.904909,64.5260797 111.418808,62.4942321 110.444036,60.5986983 C110.490331,61.8435265 110.536626,63.0883546 110.585494,64.3331828 C110.500619,64.3434706 110.418316,64.3563304 110.336014,64.3691902 C109.916784,62.7642878 109.500127,61.1593854 109.08347,59.5544829 C108.985735,59.5724866 108.890573,59.5879184 108.792838,59.6059221 C108.980591,61.4423008 109.170916,63.2761076 109.379245,65.3053833 C105.143228,61.8923937 103.126812,57.4506204 102.342365,52.646201 C100.863488,52.1318092 99.6083725,51.6971481 97.8491525,51.0850218 C97.3990597,52.3529976 96.8563763,53.8936011 96.2982612,55.4316326 C96.2211024,55.6451052 96.0745008,55.8380021 95.9613346,56.0411869 C93.8934795,59.6856528 91.7124583,63.2735357 89.7963488,66.9977324 C88.3689115,69.7780201 87.2861168,72.733201 86.0515764,75.6112231 C86.0052812,75.7166735 85.9075467,75.8812788 85.9461261,75.932718 C87.5047333,77.9851413 85.4085867,79.3431357 84.9353462,80.9840456 C84.5341206,82.3754754 84.0660241,83.9237947 83.1221151,84.9268587 C82.2682247,85.8373322 82.2759406,86.7066544 82.0984754,87.9720582 C82.5177047,87.3933675 82.7929043,87.0152895 83.068104,86.6397835 C83.1967019,86.6963666 83.3227279,86.7529497 83.4487539,86.8095328 C83.1195431,87.676283 82.8031922,88.5481771 82.4611216,89.4097833 C81.7101096,91.3104611 80.8896547,93.1905631 80.2183734,95.1195324 C80.0331923,95.646784 80.2981041,96.3232092 80.3109639,96.9327635 C80.3212517,97.3494209 80.3392554,97.7969417 80.2029416,98.1775917 C79.5753836,99.9393836 78.8372314,101.662596 78.2533967,103.437248" id="Fill-18" fill="#34753B"></path>
            <path d="M78.0455824,103.270328 L75.8594172,94.9474683 C76.0445982,94.8883133 76.0754617,94.3147664 76.1577644,93.9726959 C76.687588,91.8199661 77.2122676,89.6646645 77.757523,87.4219162 C78.3902249,87.5145067 78.9817755,87.5993814 79.2261116,87.6353888 C78.9354802,86.9872551 78.133029,85.9121763 78.3722212,85.5803935 C78.9277643,84.795946 79.9822675,84.3690008 80.5609583,83.980635 C80.4709397,83.3067818 80.2085999,82.5892052 80.3166222,81.9282117 C80.578962,80.3181654 80.9493241,78.7132629 81.4019889,77.1443679 C81.643753,76.3084812 81.4945794,75.0790848 82.9580241,75.0302176 C83.1277734,75.0250737 83.3283862,74.3640802 83.4184048,73.9834303 C83.7064642,72.7900413 83.8659256,71.5606449 84.2337158,70.3955474 C84.5269191,69.4696422 84.2465756,68.0550647 85.9106331,68.0113414 C86.0700945,68.0087694 86.2346999,67.4403665 86.355582,67.1188716 C86.7645235,66.0232171 87.0680146,64.8812673 87.5669747,63.831908 C89.117866,60.5706639 90.2881073,56.985353 92.4922762,54.2307849 C93.9968723,52.3506829 94.8456187,50.3111194 96.1033067,48.2818437 C95.4474572,47.7957434 98.094003,50.9181017 98.094003,50.9181017 C97.6413382,52.1860775 97.0986549,53.726681 96.5431117,55.2647125 C96.463381,55.4781851 96.3193513,55.671082 96.2036131,55.8742667 C94.1357581,59.5187327 91.9547368,63.1066155 90.0411993,66.8308122 C88.6111901,69.6110999 87.5309673,72.5662808 86.293855,75.444303 C86.2475597,75.5497533 86.1498253,75.7143587 86.1884047,75.7632259 C87.7470118,77.8182212 85.6508652,79.1762156 85.1776248,80.8171254 C84.7789711,82.2085552 84.3083026,83.7568746 83.3643936,84.7599386 C82.5105032,85.6704121 82.5182191,86.5397343 82.3407539,87.8051381 C82.7625552,87.2264473 83.0377548,86.8483693 83.3129545,86.4728633 C83.4389804,86.5268745 83.5650064,86.5860295 83.6910324,86.6426126 C83.3643936,87.5093628 83.0480427,88.3812569 82.7059721,89.2428632 C81.9523881,91.1435409 81.1345052,93.023643 80.4606519,94.9526122 C80.2780428,95.4798638 80.5403826,96.1562891 80.5558144,96.7658434 C80.5635303,97.1825007 80.5841059,97.6300216 80.4477921,98.0106715 C79.8176621,99.7724635 79.0795099,101.495676 78.4956752,103.270328" id="Fill-20" fill="#A2743B"></path>
            <path d="M100.545337,141.762524 L54.6924516,49.1719987 L9.11476561,49.1719987 L9.11476561,50.9492224 C14.0066317,51.1704109 21.5656193,53.6163439 27.1236227,57.1733633 C30.1971138,59.2952294 32.9156745,61.8774763 35.5004933,65.1490082 C34.1270672,64.974115 32.7202056,64.9149599 31.2619048,65.0435579 C24.1427222,65.6788318 16.9232332,69.1381167 10.9665761,72.9549039 C9.66259288,73.7907905 9.0144592,75.6374571 7.72590773,76.463056 C13.6825648,72.6462688 20.9046258,69.1869839 28.0212364,68.554282 C32.0154888,68.1967797 35.6368071,69.1741241 39.1861106,70.4215242 C40.7189982,72.8726012 42.2390259,75.6220254 43.8002051,78.7418117 L63.2390714,118.010482 C67.6422653,116.482738 71.8216987,114.057381 75.7799437,111.824921 C77.1302221,111.061049 79.0514755,111.320817 80.3863223,110.567233 C75.2809836,113.447827 69.4529244,116.400436 63.4319684,118.396276 L63.2390714,118.010482 C60.6259611,118.915812 57.9331199,119.507362 55.1631201,119.548514 C49.1678836,119.641104 44.6000843,117.580965 39.1681069,115.443667 C29.6750061,111.706611 17.3810419,113.350092 8.50263936,118.604605 C9.81433846,117.827873 11.7818871,118.131364 13.1115899,117.346917 C26.6220907,109.350696 37.9901496,121.485199 51.6035288,120.79077 C55.5334822,120.590157 59.5225906,119.692543 63.4319684,118.396276 L73.7789595,139.301159 C82.4490334,142.876182 91.7389494,144.825727 100.545337,141.762524 M57.1718201,74.1097135 C50.5387377,75.205368 44.9627306,72.4507999 39.1861106,70.4215242 C37.9721459,68.4822671 36.7530373,66.733335 35.5004933,65.1490082 C44.0162496,66.2240871 51.1971592,72.1215891 60.4150604,70.6015613 C59.1985238,70.7996022 58.43208,73.9013848 57.1718201,74.1097135" id="Fill-22" fill="#9CD6F0"></path>
        </g>
    </g>
</svg>