<?xml version="1.0" encoding="UTF-8"?>
<svg width="300px" height="300px" viewBox="0 0 300 300" version="1.1" xmlns="http://www.w3.org/2000/svg" xmlns:xlink="http://www.w3.org/1999/xlink">
    <!-- Generator: Sketch 51.3 (57544) - http://www.bohemiancoding.com/sketch -->
    <title>Character/Prize</title>
    <desc>Created with Sketch.</desc>
    <defs></defs>
    <g id="Character/Prize" stroke="none" stroke-width="1" fill="none" fill-rule="evenodd">
        <g id="Group" transform="translate(38.500000, 30.000000)">
            <g id="Page-1" transform="translate(0.000000, 0.000000)" fill="#BD9700">
                <g id="Group-6" transform="translate(0.000000, 0.589991)">
                    <path d="M35.8545054,79.7193464 C10.3932959,79.7193464 1.27848417,53.4204782 0.0189829136,39.5177538 L0.000903948267,39.0868718 L0.000903948267,3.72140246 L31.7325013,4.77299561 L31.7325013,16.7804418 L11.4057179,15.7288486 L11.4057179,38.8488321 C11.7160735,41.7535192 12.5597585,76.6489355 35.8545054,76.6489355 L35.8545054,79.7193464 Z" id="Fill-1"></path>
                    <g id="Group-5" transform="translate(27.118448, 0.000000)">
                        <path d="M160.564112,75.0438247 L160.564112,72.5579669 C182.337213,72.5579669 182.954911,39.5698815 183.250201,36.8128393 L183.250201,15.4404891 L164.417945,16.169674 L164.417945,4.74376795 L194.103606,4.01759617 L194.085527,37.4365636 C192.904368,50.4443792 184.380136,75.0438247 160.564112,75.0438247" id="Fill-3"></path>
                        <path d="M82.0182394,0.459354477 C61.1551134,0.459354477 3.11560836,0.0465514355 3.11560836,0.0465514355 C3.11560836,0.0465514355 0.289263445,35.8067449 0.289263445,61.11127 C0.289263445,97.5403852 37.1643264,103.057483 59.1152035,106.917342 C59.1152035,106.917342 60.5615207,126.186506 57.3374386,133.957448 C50.491537,150.448477 43.7601356,159.484947 43.7601356,159.484947 L39.6321052,167.650613 L122.816438,167.650613 L117.757341,158.478551 C117.757341,158.478551 109.438003,150.448477 104.776644,134.716764 C102.345023,126.496861 104.336722,107.05896 104.336722,107.05896 C125.498151,103.500417 163.632715,97.6548853 168.257917,61.11127 C171.629644,34.4839672 165.434585,0.0465514355 165.434585,0.0465514355 C165.434585,0.0465514355 102.884379,0.459354477 82.0182394,0.459354477" id="Path"></path>
                    </g>
                </g>
            </g>
            <g id="Page-1" transform="translate(52.730316, 167.345977)">
                <polygon id="Fill-5" fill="#2F2D0B" points="5.55024236 53.8581703 101.823746 53.8581703 101.823746 6.88901839 5.55024236 6.88901839"></polygon>
                <polygon id="Fill-6" fill="#2F2D0B" points="0 71.5514511 107.373988 71.5514511 107.373988 62.0389021 0 62.0389021"></polygon>
                <g id="Group-11" transform="translate(0.000000, 0.525811)" fill="#2F2D0B">
                    <path d="M103.479779,56.1454464 C101.735159,53.2618515 101.843633,53.3341673 101.843633,53.3341673 L74.0381841,53.3341673 L28.6027311,53.3341673 L5.39837905,53.3341673 C5.39837905,53.3341673 5.33811583,54.114576 3.70498263,56.1454464 C2.00555989,58.2576722 0.538150535,58.9567255 0.538150535,58.9567255 L28.714218,58.9567255 L73.923684,58.9567255 L106.134374,58.9567255 C106.134374,58.9567255 104.766399,58.272738 103.479779,56.1454464" id="Fill-7"></path>
                    <path d="M99.3921251,3.55283233 C97.6475049,0.669237356 97.7559787,0.741553218 97.7559787,0.741553218 L10.4104709,0.741553218 C10.4104709,0.741553218 10.3502077,1.52196189 8.71707445,3.55283233 C7.01765171,5.66505811 5.55024236,6.36411144 5.55024236,6.36411144 L102.04672,6.36411144 C102.04672,6.36411144 100.678745,5.68012392 99.3921251,3.55283233" id="Fill-9"></path>
                </g>
                <polygon id="Fill-12" points="16.011937 48.2416384 91.3620513 48.2416384 91.3620513 12.5115766 16.011937 12.5115766"></polygon>
            </g>
        </g>
    </g>
</svg>