<?xml version="1.0" encoding="UTF-8"?>
<svg width="71px" height="86px" viewBox="0 0 71 86" version="1.1" xmlns="http://www.w3.org/2000/svg" xmlns:xlink="http://www.w3.org/1999/xlink">
    <!-- Generator: Sketch 51.2 (57519) - http://www.bohemiancoding.com/sketch -->
    <title>UploadFile_Icon</title>
    <desc>Created with Sketch.</desc>
    <defs></defs>
    <g id="User" stroke="none" stroke-width="1" fill="none" fill-rule="evenodd">
        <g id="3.Alchemy_SignUp_UploadWindow" transform="translate(-921.000000, -378.000000)" fill="#202020" fill-rule="nonzero">
            <g id="Group-7">
                <g id="Upload-Files" transform="translate(690.000000, 252.000000)">
                    <g id="Group" transform="translate(231.000000, 121.000000)">
                        <g id="UploadFile_Icon" transform="translate(0.000000, 5.000000)">
                            <path d="M50.204142,14.4311954 L50.204142,3.00058801 L67.8491124,20.1464991 L56.0857988,20.1464991 C50.204142,20.1464991 50.204142,18.3049701 50.204142,14.4311954 Z M61.9674556,83.0148399 L9.03254438,83.0148399 C5.78586982,83.0148399 3.15088757,80.4543838 3.15088757,77.2995362 L3.15088757,8.71589172 C3.15088757,5.56104407 5.78586982,3.00058801 9.03254438,3.00058801 L48.3362959,3.00058801 C48.2833609,9.8446642 48.4186391,14.4311954 48.4186391,14.4311954 C48.4186391,20.7437484 49.5895089,21.7665875 56.0857988,21.7665875 L67.8491124,21.7665875 L67.8491124,77.2995362 C67.8491124,80.4543838 65.2141302,83.0148399 61.9674556,83.0148399 Z M44.3224852,0.0154278921 L9.03254438,0.0154278921 C2.53625444,0.0154278921 2.55804993e-16,2.40333878 2.55804993e-16,8.71589172 L0,77.2995362 C0,83.6120891 2.53625444,86 9.03254438,86 L61.9674556,86 C68.4637456,86 71,83.6120891 71,77.2995362 L71,25.8618028 L71,20.1464991 L50.204142,0.0154278921 C49.827716,0.0954421439 48.2573136,-0.0445827968 44.3224852,0.0154278921 Z" id="file-document"></path>
                        </g>
                    </g>
                </g>
            </g>
        </g>
    </g>
</svg>