<?xml version="1.0" encoding="utf-8"?>
<!-- Generator: Adobe Illustrator 21.1.0, SVG Export Plug-In . SVG Version: 6.00 Build 0)  -->
<svg version="1.1" id="Layer_1" xmlns="http://www.w3.org/2000/svg" xmlns:xlink="http://www.w3.org/1999/xlink" x="0px" y="0px"
	 viewBox="0 0 6 669" style="enable-background:new 0 0 6 669;" xml:space="preserve">
<style type="text/css">
	.st0{fill:#E84F35;}
	.st1{fill:#48B9B9;}
</style>
<title>dashed_line/vertical</title>
<desc>Created with Sketch.</desc>
<polygon id="Fill-1" class="st0" points="0.6,668.3 6,668.3 6,667.8 0.6,667.8 "/>
<polygon id="Fill-2" class="st0" points="0.6,661.3 6,661.3 6,660.8 0.6,660.8 "/>
<polygon id="Fill-3" class="st0" points="0.6,655.4 6,655.4 6,654.9 0.6,654.9 "/>
<polygon id="Fill-4" class="st0" points="0.6,648.4 6,648.4 6,647.9 0.6,647.9 "/>
<polygon id="Fill-5" class="st0" points="0.6,642.4 6,642.4 6,641.9 0.6,641.9 "/>
<polygon id="Fill-6" class="st0" points="0.6,635.4 6,635.4 6,634.9 0.6,634.9 "/>
<polygon id="Fill-7" class="st0" points="0.6,629.4 6,629.4 6,628.9 0.6,628.9 "/>
<polygon id="Fill-8" class="st0" points="0.6,622.4 6,622.4 6,621.9 0.6,621.9 "/>
<polygon id="Fill-9" class="st0" points="0.6,609.4 6,609.4 6,608.9 0.6,608.9 "/>
<polygon id="Fill-10" class="st0" points="0.6,603.4 6,603.4 6,602.9 0.6,602.9 "/>
<polygon id="Fill-11" class="st0" points="0.6,590.4 6,590.4 6,589.9 0.6,589.9 "/>
<polygon id="Fill-12" class="st0" points="0.6,584.5 6,584.5 6,584 0.6,584 "/>
<polygon id="Fill-13" class="st0" points="0.6,577.5 6,577.5 6,577 0.6,577 "/>
<polygon id="Fill-14" class="st0" points="0.6,564.5 6,564.5 6,564 0.6,564 "/>
<polygon id="Fill-15" class="st0" points="0.6,558.5 6,558.5 6,558 0.6,558 "/>
<polygon id="Fill-16" class="st0" points="0.6,551.5 6,551.5 6,551 0.6,551 "/>
<polygon id="Fill-17" class="st0" points="0.6,545.5 6,545.5 6,545 0.6,545 "/>
<polygon id="Fill-18" class="st0" points="0.6,538.6 6,538.6 6,538.1 0.6,538.1 "/>
<polygon id="Fill-19" class="st0" points="0.6,525.6 6,525.6 6,525 0.6,525 "/>
<polygon id="Fill-20" class="st0" points="0.6,518.6 6,518.6 6,518 0.6,518 "/>
<polygon id="Fill-21" class="st0" points="0.6,512.6 6,512.6 6,512 0.6,512 "/>
<polygon id="Fill-22" class="st0" points="0.6,499.6 6,499.6 6,499 0.6,499 "/>
<polygon id="Fill-23" class="st0" points="0.6,492.6 6,492.6 6,492 0.6,492 "/>
<polygon id="Fill-24" class="st0" points="0.6,486.7 6,486.7 6,486 0.6,486 "/>
<polygon id="Fill-25" class="st0" points="0.6,480.7 6,480.7 6,480 0.6,480 "/>
<polygon id="Fill-26" class="st0" points="0.6,473.7 6,473.7 6,473 0.6,473 "/>
<polygon id="Fill-27" class="st0" points="0.6,467.7 6,467.7 6,467 0.6,467 "/>
<polygon id="Fill-28" class="st0" points="0.6,460.8 6,460.8 6,460 0.6,460 "/>
<polygon id="Fill-29" class="st0" points="0.6,447.8 6,447.8 6,447 0.6,447 "/>
<polygon id="Fill-30" class="st0" points="0.6,434.8 6,434.8 6,434 0.6,434 "/>
<polygon id="Fill-31" class="st0" points="0.6,428.8 6,428.8 6,428 0.6,428 "/>
<polygon id="Fill-32" class="st0" points="0.6,421.8 6,421.8 6,421 0.6,421 "/>
<polygon id="Fill-33" class="st0" points="0.6,415.6 6,415.6 6,414.8 0.6,414.8 "/>
<polygon id="Fill-34" class="st0" points="0.6,402.7 6,402.7 6,401.8 0.6,401.8 "/>
<polygon id="Fill-35" class="st0" points="0.6,396.2 6,396.2 6,395.3 0.6,395.3 "/>
<polygon id="Fill-36" class="st0" points="0.6,389.8 6,389.8 6,388.8 0.6,388.8 "/>
<polygon id="Fill-37" class="st0" points="0.6,383.3 6,383.3 6,382.3 0.6,382.3 "/>
<polygon id="Fill-38" class="st0" points="0.6,376.8 6,376.8 6,375.8 0.6,375.8 "/>
<polygon id="Fill-39" class="st0" points="0.6,370.4 6,370.4 6,369.4 0.6,369.4 "/>
<polygon id="Fill-34_1_" class="st0" points="0.6,409.2 6,409.2 6,408.3 0.6,408.3 "/>
<polygon id="Fill-30_1_" class="st0" points="0.6,441.8 6,441.8 6,441 0.6,441 "/>
<polygon id="Fill-19_1_" class="st0" points="0.6,532.6 6,532.6 6,532 0.6,532 "/>
<polygon id="Fill-14_1_" class="st0" points="0.6,571.5 6,571.5 6,571 0.6,571 "/>
<polygon id="Fill-9_1_" class="st0" points="0.6,616.4 6,616.4 6,615.9 0.6,615.9 "/>
<polygon id="Fill-22_1_" class="st0" points="0.6,505.6 6,505.6 6,505 0.6,505 "/>
<polygon id="Fill-29_1_" class="st0" points="0.6,454.8 6,454.8 6,454 0.6,454 "/>
<polygon id="Fill-11_1_" class="st0" points="0.6,596.4 6,596.4 6,595.9 0.6,595.9 "/>
<polygon id="Fill-40" class="st0" points="0.6,363.9 6,363.9 6,362.8 0.6,362.8 "/>
<polygon id="Fill-41" class="st0" points="0.6,357.4 6,357.4 6,356.3 0.6,356.3 "/>
<polygon id="Fill-41_1_" class="st0" points="0.6,350.8 6,350.8 6,349.8 0.6,349.8 "/>
<polygon id="Fill-42" class="st0" points="0.5,344.3 5.9,344.3 5.9,343.2 0.5,343.2 "/>
<polygon id="Fill-43" class="st0" points="0.5,337.7 5.9,337.7 5.9,336.7 0.5,336.7 "/>
<polygon id="Fill-44" class="st1" points="0.5,324.6 5.9,324.6 5.9,323.5 0.5,323.5 "/>
<polygon id="Fill-45" class="st1" points="0.5,318 5.9,318 5.9,316.9 0.5,316.9 "/>
<polygon id="Fill-46" class="st1" points="0.5,311.4 5.9,311.4 5.9,310.2 0.5,310.2 "/>
<polygon id="Fill-47" class="st1" points="0.5,304.7 5.9,304.7 5.9,303.6 0.5,303.6 "/>
<polygon id="Fill-48" class="st1" points="0.5,298.1 5.9,298.1 5.9,296.9 0.5,296.9 "/>
<polygon id="Fill-49" class="st1" points="0.5,291.4 5.9,291.4 5.9,290.2 0.5,290.2 "/>
<polygon id="Fill-50" class="st1" points="0.5,278 5.9,278 5.9,276.7 0.5,276.7 "/>
<polygon id="Fill-51" class="st1" points="0.5,271.2 5.9,271.2 5.9,270 0.5,270 "/>
<polygon id="Fill-52" class="st1" points="0.5,264.5 5.9,264.5 5.9,263.2 0.5,263.2 "/>
<polygon id="Fill-53" class="st1" points="0.5,257.7 5.9,257.7 5.9,256.4 0.5,256.4 "/>
<polygon id="Fill-54" class="st1" points="0.5,250.9 5.9,250.9 5.9,249.6 0.5,249.6 "/>
<polygon id="Fill-55" class="st1" points="0.5,244.1 5.9,244.1 5.9,242.8 0.5,242.8 "/>
<polygon id="Fill-56" class="st1" points="0.5,237.3 5.9,237.3 5.9,235.9 0.5,235.9 "/>
<polygon id="Fill-57" class="st1" points="0.5,230.4 5.9,230.4 5.9,229 0.5,229 "/>
<polygon id="Fill-58" class="st1" points="0.5,216.6 5.9,216.6 5.9,215.2 0.5,215.2 "/>
<polygon id="Fill-59" class="st1" points="0.5,209.7 5.9,209.7 5.9,208.3 0.5,208.3 "/>
<polygon id="Fill-60" class="st1" points="0.5,202.8 5.9,202.8 5.9,201.3 0.5,201.3 "/>
<polygon id="Fill-61" class="st1" points="0.5,188.9 5.9,188.9 5.9,187.4 0.5,187.4 "/>
<polygon id="Fill-62" class="st1" points="0.5,181.9 5.9,181.9 5.9,180.4 0.5,180.4 "/>
<polygon id="Fill-63" class="st1" points="0.5,174.9 5.9,174.9 5.9,173.4 0.5,173.4 "/>
<polygon id="Fill-64" class="st1" points="0.5,160.9 5.9,160.9 5.9,159.3 0.5,159.3 "/>
<polygon id="Fill-65" class="st1" points="0.5,153.8 5.9,153.8 5.9,152.3 0.5,152.3 "/>
<polygon id="Fill-66" class="st1" points="0.5,146.8 5.9,146.8 5.9,145.2 0.5,145.2 "/>
<polygon id="Fill-67" class="st1" points="0.5,132.6 5.9,132.6 5.9,131 0.5,131 "/>
<polygon id="Fill-68" class="st1" points="0.5,125.5 5.9,125.5 5.9,123.9 0.5,123.9 "/>
<polygon id="Fill-69" class="st1" points="0.5,118.4 5.9,118.4 5.9,116.7 0.5,116.7 "/>
<polygon id="Fill-70" class="st1" points="0.5,111.2 5.9,111.2 5.9,109.6 0.5,109.6 "/>
<polygon id="Fill-71" class="st1" points="0.5,104.1 5.9,104.1 5.9,102.4 0.5,102.4 "/>
<polygon id="Fill-72" class="st1" points="0.5,96.9 5.9,96.9 5.9,95.2 0.5,95.2 "/>
<polygon id="Fill-73" class="st1" points="0.5,89.7 5.9,89.7 5.9,87.9 0.5,87.9 "/>
<polygon id="Fill-74" class="st1" points="0.5,82.5 5.9,82.5 5.9,80.7 0.5,80.7 "/>
<polygon id="Fill-75" class="st1" points="0.5,60.7 5.9,60.7 5.9,58.9 0.5,58.9 "/>
<polygon id="Fill-76" class="st1" points="0.5,53.4 5.9,53.4 5.9,51.6 0.5,51.6 "/>
<polygon id="Fill-77" class="st1" points="0.5,46.1 5.9,46.1 5.9,44.3 0.5,44.3 "/>
<polygon id="Fill-78" class="st1" points="0.5,38.8 5.9,38.8 5.9,36.9 0.5,36.9 "/>
<polygon id="Fill-79" class="st1" points="0.5,24.1 5.9,24.1 5.9,22.2 0.5,22.2 "/>
<polygon id="Fill-80" class="st1" points="0.5,16.7 5.9,16.7 5.9,14.8 0.5,14.8 "/>
<polygon id="Fill-81" class="st1" points="0.5,9.3 5.9,9.3 5.9,7.4 0.5,7.4 "/>
<polygon id="Fill-82" class="st1" points="0.5,1.9 5.9,1.9 5.9,0 0.5,0 "/>
<polygon id="Fill-61_1_" class="st1" points="0.5,195.9 5.9,195.9 5.9,194.4 0.5,194.4 "/>
<polygon id="Fill-44_1_" class="st1" points="0.5,331.2 5.9,331.2 5.9,330.1 0.5,330.1 "/>
<polygon id="Fill-67_1_" class="st1" points="0.5,139.7 5.9,139.7 5.9,138.1 0.5,138.1 "/>
<polygon id="Fill-74_1_" class="st1" points="0.5,67.9 5.9,67.9 5.9,66.2 0.5,66.2 "/>
<polygon id="Fill-64_1_" class="st1" points="0.5,167.9 5.9,167.9 5.9,166.4 0.5,166.4 "/>
<polygon id="Fill-74_2_" class="st1" points="0.5,75.2 5.9,75.2 5.9,73.4 0.5,73.4 "/>
<polygon id="Fill-79_1_" class="st1" points="0.5,31.5 5.9,31.5 5.9,29.6 0.5,29.6 "/>
<polygon id="Fill-50_1_" class="st1" points="0.5,284.7 5.9,284.7 5.9,283.4 0.5,283.4 "/>
<polygon id="Fill-58_1_" class="st1" points="0.5,223.5 5.9,223.5 5.9,222.1 0.5,222.1 "/>
</svg>
